Ubuntu-CondensedThin.ufo
<glyph name="exclam" format="2">
  <advance width="239"/>
  <unicode hex="0021"/>
  <outline>
    <contour>
      <point x="109" y="183" type="curve"/>
      <point x="135" y="183" type="line"/>
      <point x="139.891" y="290.591"/>
      <point x="140" y="389.37"/>
      <point x="140" y="495" type="curve" smooth="yes"/>
      <point x="140" y="693" type="line"/>
      <point x="104" y="693" type="line"/>
      <point x="104" y="495" type="line" smooth="yes"/>
      <point x="104" y="389.37"/>
      <point x="105.088" y="290.589"/>
    </contour>
    <contour>
      <point x="120" y="-5" type="curve" smooth="yes"/>
      <point x="134" y="-5"/>
      <point x="147" y="9"/>
      <point x="147" y="25" type="curve" smooth="yes"/>
      <point x="147" y="42"/>
      <point x="134" y="54"/>
      <point x="120" y="54" type="curve" smooth="yes"/>
      <point x="104" y="54"/>
      <point x="92" y="42"/>
      <point x="92" y="25" type="curve" smooth="yes"/>
      <point x="92" y="9"/>
      <point x="104" y="-5"/>
    </contour>
  </outline>
</glyph>
<glyph name="numbersign" format="2">
  <advance width="540"/>
  <unicode hex="0023"/>
  <outline>
    <contour>
      <point x="108" y="0" type="line"/>
      <point x="137" y="0" type="line"/>
      <point x="164" y="195" type="line"/>
      <point x="333" y="195" type="line"/>
      <point x="306" y="0" type="line"/>
      <point x="335" y="0" type="line"/>
      <point x="362" y="195" type="line"/>
      <point x="498" y="195" type="line"/>
      <point x="498" y="222" type="line"/>
      <point x="366" y="222" type="line"/>
      <point x="401" y="469" type="line"/>
      <point x="498" y="469" type="line"/>
      <point x="498" y="498" type="line"/>
      <point x="405" y="498" type="line"/>
      <point x="432" y="693" type="line"/>
      <point x="402" y="693" type="line"/>
      <point x="375" y="498" type="line"/>
      <point x="207" y="498" type="line"/>
      <point x="234" y="693" type="line"/>
      <point x="204" y="693" type="line"/>
      <point x="177" y="498" type="line"/>
      <point x="42" y="498" type="line"/>
      <point x="42" y="469" type="line"/>
      <point x="173" y="469" type="line"/>
      <point x="139" y="222" type="line"/>
      <point x="42" y="222" type="line"/>
      <point x="42" y="195" type="line"/>
      <point x="135" y="195" type="line"/>
    </contour>
    <contour>
      <point x="168" y="222" type="line"/>
      <point x="203" y="469" type="line"/>
      <point x="371" y="469" type="line"/>
      <point x="337" y="222" type="line"/>
    </contour>
  </outline>
</glyph>
<glyph name="dollar" format="2">
  <advance width="412"/>
  <unicode hex="0024"/>
  <outline>
    <contour>
      <point x="187" y="-109" type="line"/>
      <point x="222" y="-109" type="line"/>
      <point x="222" y="30" type="line"/>
      <point x="296" y="46"/>
      <point x="339" y="106"/>
      <point x="339" y="192" type="curve" smooth="yes"/>
      <point x="339" y="290"/>
      <point x="277" y="329"/>
      <point x="218" y="368" type="curve" smooth="yes"/>
      <point x="164" y="404"/>
      <point x="113" y="436"/>
      <point x="113" y="510" type="curve" smooth="yes"/>
      <point x="113" y="587"/>
      <point x="162" y="626"/>
      <point x="233" y="626" type="curve" smooth="yes"/>
      <point x="261" y="626"/>
      <point x="293" y="620"/>
      <point x="324" y="605" type="curve"/>
      <point x="332" y="635" type="line"/>
      <point x="305" y="648"/>
      <point x="267" y="656"/>
      <point x="232" y="656" type="curve" smooth="yes"/>
      <point x="232" y="776" type="line"/>
      <point x="197" y="776" type="line"/>
      <point x="197" y="653" type="line"/>
      <point x="123" y="641"/>
      <point x="80" y="586"/>
      <point x="80" y="507" type="curve" smooth="yes"/>
      <point x="80" y="417"/>
      <point x="139" y="380"/>
      <point x="196" y="342" type="curve" smooth="yes"/>
      <point x="251" y="306"/>
      <point x="306" y="270"/>
      <point x="306" y="187" type="curve" smooth="yes"/>
      <point x="306" y="104"/>
      <point x="260" y="55"/>
      <point x="177" y="55" type="curve" smooth="yes"/>
      <point x="137" y="55"/>
      <point x="102" y="67"/>
      <point x="72" y="83" type="curve"/>
      <point x="64" y="52" type="line"/>
      <point x="99" y="35"/>
      <point x="142" y="26"/>
      <point x="187" y="25" type="curve"/>
    </contour>
  </outline>
</glyph>
<glyph name="percent" format="2">
  <advance width="646"/>
  <unicode hex="0025"/>
  <outline>
    <contour>
      <point x="155" y="0" type="line"/>
      <point x="187" y="0" type="line"/>
      <point x="477" y="693" type="line"/>
      <point x="445" y="693" type="line"/>
    </contour>
    <contour>
      <point x="170" y="356" type="curve" smooth="yes"/>
      <point x="235" y="356"/>
      <point x="271" y="411"/>
      <point x="271" y="530" type="curve" smooth="yes"/>
      <point x="271" y="651"/>
      <point x="235" y="706"/>
      <point x="170" y="706" type="curve" smooth="yes"/>
      <point x="106" y="706"/>
      <point x="70" y="652"/>
      <point x="70" y="532" type="curve" smooth="yes"/>
      <point x="70" y="412"/>
      <point x="106" y="356"/>
    </contour>
    <contour>
      <point x="170" y="384" type="curve" smooth="yes"/>
      <point x="128" y="384"/>
      <point x="102" y="432"/>
      <point x="102" y="532" type="curve" smooth="yes"/>
      <point x="102" y="633"/>
      <point x="128" y="678"/>
      <point x="170" y="678" type="curve" smooth="yes"/>
      <point x="213" y="678"/>
      <point x="239" y="632"/>
      <point x="239" y="530" type="curve" smooth="yes"/>
      <point x="239" y="431"/>
      <point x="213" y="384"/>
    </contour>
    <contour>
      <point x="475" y="-13" type="curve" smooth="yes"/>
      <point x="540" y="-13"/>
      <point x="576" y="42"/>
      <point x="576" y="161" type="curve" smooth="yes"/>
      <point x="576" y="282"/>
      <point x="540" y="337"/>
      <point x="475" y="337" type="curve" smooth="yes"/>
      <point x="411" y="337"/>
      <point x="375" y="283"/>
      <point x="375" y="163" type="curve" smooth="yes"/>
      <point x="375" y="43"/>
      <point x="411" y="-13"/>
    </contour>
    <contour>
      <point x="475" y="15" type="curve" smooth="yes"/>
      <point x="433" y="15"/>
      <point x="407" y="63"/>
      <point x="407" y="163" type="curve" smooth="yes"/>
      <point x="407" y="264"/>
      <point x="433" y="309"/>
      <point x="475" y="309" type="curve" smooth="yes"/>
      <point x="518" y="309"/>
      <point x="544" y="263"/>
      <point x="544" y="161" type="curve" smooth="yes"/>
      <point x="544" y="62"/>
      <point x="518" y="15"/>
    </contour>
  </outline>
</glyph>
<glyph name="ampersand" format="2">
  <advance width="478"/>
  <unicode hex="0026"/>
  <outline>
    <contour>
      <point x="215" y="-9" type="curve" smooth="yes"/>
      <point x="278" y="-9"/>
      <point x="337" y="32"/>
      <point x="381" y="100" type="curve"/>
      <point x="405" y="65"/>
      <point x="427" y="34"/>
      <point x="445" y="0" type="curve"/>
      <point x="478" y="0" type="line"/>
      <point x="455" y="41"/>
      <point x="428" y="81"/>
      <point x="396" y="125" type="curve"/>
      <point x="428" y="185"/>
      <point x="449" y="261"/>
      <point x="454" y="345" type="curve"/>
      <point x="424" y="348" type="line"/>
      <point x="418" y="272"/>
      <point x="402" y="205"/>
      <point x="377" y="151" type="curve"/>
      <point x="217" y="371" type="line"/>
      <point x="289" y="420"/>
      <point x="346" y="480"/>
      <point x="346" y="565" type="curve" smooth="yes"/>
      <point x="346" y="640"/>
      <point x="312" y="705"/>
      <point x="228" y="705" type="curve" smooth="yes"/>
      <point x="152" y="705"/>
      <point x="105" y="645"/>
      <point x="105" y="554" type="curve" smooth="yes"/>
      <point x="105" y="486"/>
      <point x="139" y="431"/>
      <point x="178" y="377" type="curve"/>
      <point x="102" y="326"/>
      <point x="54" y="270"/>
      <point x="54" y="169" type="curve" smooth="yes"/>
      <point x="54" y="86"/>
      <point x="101" y="-9"/>
    </contour>
    <contour>
      <point x="215" y="21" type="curve" smooth="yes"/>
      <point x="132" y="21"/>
      <point x="86" y="87"/>
      <point x="86" y="171" type="curve" smooth="yes"/>
      <point x="86" y="254"/>
      <point x="123" y="307"/>
      <point x="193" y="355" type="curve"/>
      <point x="363" y="124" type="line"/>
      <point x="326" y="60"/>
      <point x="274" y="21"/>
    </contour>
    <contour>
      <point x="201" y="392" type="curve"/>
      <point x="165" y="443"/>
      <point x="137" y="496"/>
      <point x="137" y="554" type="curve" smooth="yes"/>
      <point x="137" y="629"/>
      <point x="167" y="675"/>
      <point x="228" y="675" type="curve" smooth="yes"/>
      <point x="280" y="675"/>
      <point x="314" y="637"/>
      <point x="314" y="564" type="curve" smooth="yes"/>
      <point x="314" y="493"/>
      <point x="266" y="437"/>
    </contour>
  </outline>
</glyph>
<glyph name="quotesingle" format="2">
  <advance width="161"/>
  <unicode hex="0027"/>
  <outline>
    <contour>
      <point x="69" y="531" type="curve"/>
      <point x="91" y="531" type="line"/>
      <point x="95" y="597"/>
      <point x="97" y="645"/>
      <point x="97" y="709" type="curve" smooth="yes"/>
      <point x="97" y="760" type="line"/>
      <point x="64" y="760" type="line"/>
      <point x="64" y="710" type="line" smooth="yes"/>
      <point x="64" y="646"/>
      <point x="65" y="597"/>
    </contour>
  </outline>
</glyph>
<glyph name="parenleft" format="2">
  <advance width="231"/>
  <unicode hex="0028"/>
  <outline>
    <contour>
      <point x="199" y="-187" type="curve"/>
      <point x="227" y="-174" type="line"/>
      <point x="133" y="3"/>
      <point x="102" y="147.0"/>
      <point x="102" y="299" type="curve" smooth="yes"/>
      <point x="102" y="451"/>
      <point x="133" y="595"/>
      <point x="227" y="772" type="curve"/>
      <point x="199" y="785" type="line"/>
      <point x="100" y="602"/>
      <point x="66" y="455.0"/>
      <point x="66" y="299" type="curve" smooth="yes"/>
      <point x="66" y="143"/>
      <point x="100" y="-4"/>
    </contour>
  </outline>
</glyph>
<glyph name="parenright" format="2">
  <advance width="231"/>
  <unicode hex="0029"/>
  <outline>
    <contour>
      <point x="32" y="-187" type="line"/>
      <point x="131" y="-4"/>
      <point x="165.0" y="143.0"/>
      <point x="165" y="299" type="curve" smooth="yes"/>
      <point x="165" y="455"/>
      <point x="131" y="602"/>
      <point x="32" y="785" type="curve"/>
      <point x="4" y="772" type="line"/>
      <point x="98" y="595"/>
      <point x="129.0" y="451.0"/>
      <point x="129" y="299" type="curve" smooth="yes"/>
      <point x="129" y="147"/>
      <point x="98" y="3"/>
      <point x="4" y="-174" type="curve"/>
    </contour>
  </outline>
</glyph>
<glyph name="asterisk" format="2">
  <advance width="374"/>
  <unicode hex="002A"/>
  <outline>
    <contour>
      <point x="115" y="423" type="line"/>
      <point x="149" y="470"/>
      <point x="169" y="507"/>
      <point x="186" y="535" type="curve"/>
      <point x="203" y="507"/>
      <point x="223" y="470"/>
      <point x="257" y="423" type="curve"/>
      <point x="282" y="441" type="line"/>
      <point x="251" y="491"/>
      <point x="223" y="524"/>
      <point x="202" y="549" type="curve"/>
      <point x="233" y="556"/>
      <point x="273" y="565"/>
      <point x="327" y="586" type="curve"/>
      <point x="317" y="615" type="line"/>
      <point x="264" y="598"/>
      <point x="226" y="581"/>
      <point x="197" y="569" type="curve"/>
      <point x="200" y="602"/>
      <point x="205" y="645"/>
      <point x="203" y="707" type="curve"/>
      <point x="172" y="707" type="line"/>
      <point x="170" y="646"/>
      <point x="175" y="601"/>
      <point x="178" y="568" type="curve"/>
      <point x="148" y="581"/>
      <point x="110" y="598"/>
      <point x="56" y="615" type="curve"/>
      <point x="46" y="586" type="line"/>
      <point x="99" y="566"/>
      <point x="139" y="556"/>
      <point x="170" y="549" type="curve"/>
      <point x="150" y="524"/>
      <point x="121" y="491"/>
      <point x="90" y="441" type="curve"/>
    </contour>
  </outline>
</glyph>
<glyph name="plus" format="2">
  <advance width="425"/>
  <unicode hex="002B"/>
  <outline>
    <contour>
      <point x="195" y="120" type="line"/>
      <point x="229" y="120" type="line"/>
      <point x="229" y="284" type="line"/>
      <point x="379" y="284" type="line"/>
      <point x="379" y="315" type="line"/>
      <point x="229" y="315" type="line"/>
      <point x="229" y="480" type="line"/>
      <point x="195" y="480" type="line"/>
      <point x="195" y="315" type="line"/>
      <point x="45" y="315" type="line"/>
      <point x="45" y="284" type="line"/>
      <point x="195" y="284" type="line"/>
    </contour>
  </outline>
</glyph>
<glyph name="comma" format="2">
  <advance width="188"/>
  <unicode hex="002C"/>
  <outline>
    <contour>
      <point x="69" y="-128" type="line"/>
      <point x="93.237" y="-83.565"/>
      <point x="114" y="-33"/>
      <point x="114" y="30" type="curve" smooth="yes"/>
      <point x="114" y="43"/>
      <point x="113.907" y="57.604"/>
      <point x="112" y="70" type="curve"/>
      <point x="74" y="70" type="line"/>
      <point x="76" y="55"/>
      <point x="76" y="39"/>
      <point x="76" y="30" type="curve" smooth="yes"/>
      <point x="76" y="-27.252"/>
      <point x="65.886" y="-75.261"/>
      <point x="45" y="-123" type="curve"/>
    </contour>
  </outline>
</glyph>
<glyph name="hyphen" format="2">
  <advance width="221"/>
  <unicode hex="002D"/>
  <outline>
    <contour>
      <point x="31" y="265" type="line"/>
      <point x="191" y="265" type="line"/>
      <point x="191" y="295" type="line"/>
      <point x="31" y="295" type="line"/>
    </contour>
  </outline>
</glyph>
<glyph name="period" format="2">
  <advance width="188"/>
  <unicode hex="002E"/>
  <outline>
    <contour>
      <point x="94" y="-5" type="curve" smooth="yes"/>
      <point x="110" y="-5"/>
      <point x="124" y="9"/>
      <point x="124" y="26" type="curve" smooth="yes"/>
      <point x="124" y="45"/>
      <point x="110" y="58"/>
      <point x="94" y="58" type="curve" smooth="yes"/>
      <point x="76" y="58"/>
      <point x="63" y="45"/>
      <point x="63" y="26" type="curve" smooth="yes"/>
      <point x="63" y="9"/>
      <point x="76" y="-5"/>
    </contour>
  </outline>
</glyph>
<glyph name="slash" format="2">
  <advance width="226"/>
  <unicode hex="002F"/>
  <outline>
    <contour>
      <point x="-24" y="-185" type="line"/>
      <point x="8" y="-185" type="line"/>
      <point x="250" y="783" type="line"/>
      <point x="218" y="783" type="line"/>
    </contour>
  </outline>
</glyph>
<glyph name="zero" format="2">
  <advance width="425"/>
  <unicode hex="0030"/>
  <outline>
    <contour>
      <point x="212" y="-10" type="curve" smooth="yes"/>
      <point x="317" y="-10"/>
      <point x="365" y="102"/>
      <point x="365" y="348" type="curve" smooth="yes"/>
      <point x="365" y="595"/>
      <point x="317" y="707"/>
      <point x="212" y="707" type="curve" smooth="yes"/>
      <point x="108" y="707"/>
      <point x="60" y="595"/>
      <point x="60" y="348" type="curve" smooth="yes"/>
      <point x="60" y="102"/>
      <point x="108" y="-10"/>
    </contour>
    <contour>
      <point x="212" y="20" type="curve" smooth="yes"/>
      <point x="131" y="20"/>
      <point x="94" y="122"/>
      <point x="94" y="348" type="curve" smooth="yes"/>
      <point x="94" y="574"/>
      <point x="131" y="677"/>
      <point x="212" y="677" type="curve" smooth="yes"/>
      <point x="293" y="677"/>
      <point x="331" y="574"/>
      <point x="331" y="348" type="curve" smooth="yes"/>
      <point x="331" y="122"/>
      <point x="293" y="20"/>
    </contour>
  </outline>
</glyph>
<glyph name="one" format="2">
  <advance width="425"/>
  <unicode hex="0031"/>
  <outline>
    <contour>
      <point x="212" y="0" type="line"/>
      <point x="245" y="0" type="line"/>
      <point x="245" y="693" type="line"/>
      <point x="217" y="693" type="line"/>
      <point x="197" y="648"/>
      <point x="148" y="593"/>
      <point x="92" y="552" type="curve"/>
      <point x="109" y="530" type="line"/>
      <point x="156" y="564"/>
      <point x="183" y="590"/>
      <point x="212" y="630" type="curve"/>
    </contour>
  </outline>
</glyph>
<glyph name="two" format="2">
  <advance width="425"/>
  <unicode hex="0032"/>
  <outline>
    <contour>
      <point x="74" y="0" type="curve"/>
      <point x="366" y="0" type="line"/>
      <point x="366" y="33" type="line"/>
      <point x="107" y="33" type="line"/>
      <point x="110" y="163"/>
      <point x="170" y="245"/>
      <point x="228" y="322" type="curve" smooth="yes"/>
      <point x="280.81820702790236" y="392.7564660185107"/>
      <point x="331.0" y="457.0"/>
      <point x="331" y="550" type="curve" smooth="yes"/>
      <point x="331" y="651"/>
      <point x="277" y="707"/>
      <point x="184" y="707" type="curve" smooth="yes"/>
      <point x="133" y="707"/>
      <point x="87" y="688"/>
      <point x="54" y="653" type="curve"/>
      <point x="72" y="630" type="line"/>
      <point x="103" y="659"/>
      <point x="140" y="676"/>
      <point x="183" y="676" type="curve" smooth="yes"/>
      <point x="258" y="676"/>
      <point x="298" y="630"/>
      <point x="298" y="548" type="curve" smooth="yes"/>
      <point x="298" y="460"/>
      <point x="247" y="401"/>
      <point x="194" y="331" type="curve" smooth="yes"/>
      <point x="135" y="254"/>
      <point x="74" y="166.0"/>
      <point x="74" y="19" type="curve" smooth="yes"/>
      <point x="74.0" y="12.673"/>
      <point x="74.0" y="6.327"/>
    </contour>
  </outline>
</glyph>
<glyph name="three" format="2">
  <advance width="425"/>
  <unicode hex="0033"/>
  <outline>
    <contour>
      <point x="178" y="-15" type="curve" smooth="yes"/>
      <point x="273" y="-15"/>
      <point x="345" y="49"/>
      <point x="345" y="177" type="curve" smooth="yes"/>
      <point x="345" y="283"/>
      <point x="301" y="349"/>
      <point x="219" y="371" type="curve"/>
      <point x="290" y="396"/>
      <point x="322" y="467"/>
      <point x="322" y="548" type="curve"/>
      <point x="322" y="647"/>
      <point x="272" y="706"/>
      <point x="181" y="706" type="curve" smooth="yes"/>
      <point x="140" y="706"/>
      <point x="91" y="689"/>
      <point x="61" y="662" type="curve"/>
      <point x="74" y="638" type="line"/>
      <point x="101" y="661"/>
      <point x="145" y="676"/>
      <point x="181" y="676" type="curve" smooth="yes"/>
      <point x="252" y="676"/>
      <point x="290" y="628"/>
      <point x="290" y="548" type="curve"/>
      <point x="290" y="473"/>
      <point x="266" y="387"/>
      <point x="159" y="387" type="curve" smooth="yes"/>
      <point x="141" y="387" type="line"/>
      <point x="141" y="354" type="line"/>
      <point x="159" y="354" type="line" smooth="yes"/>
      <point x="260" y="354"/>
      <point x="313" y="292"/>
      <point x="313" y="177" type="curve" smooth="yes"/>
      <point x="313" y="52"/>
      <point x="245" y="15"/>
      <point x="179" y="15" type="curve" smooth="yes"/>
      <point x="137" y="15"/>
      <point x="100" y="25"/>
      <point x="60" y="47" type="curve"/>
      <point x="49" y="19" type="line"/>
      <point x="89" y="-3"/>
      <point x="135" y="-15"/>
    </contour>
  </outline>
</glyph>
<glyph name="four" format="2">
  <advance width="425"/>
  <unicode hex="0034"/>
  <outline>
    <contour>
      <point x="279" y="0" type="line"/>
      <point x="312" y="0" type="line"/>
      <point x="312" y="182" type="line"/>
      <point x="386" y="182" type="line"/>
      <point x="386" y="213" type="line"/>
      <point x="312" y="213" type="line"/>
      <point x="312" y="693" type="line"/>
      <point x="275" y="693" type="line"/>
      <point x="197" y="565"/>
      <point x="109" y="398"/>
      <point x="54" y="207" type="curve"/>
      <point x="54" y="182" type="line"/>
      <point x="279" y="182" type="line"/>
    </contour>
    <contour>
      <point x="87" y="213" type="line"/>
      <point x="131" y="362"/>
      <point x="201" y="514"/>
      <point x="279" y="646" type="curve"/>
      <point x="279" y="213" type="line"/>
    </contour>
  </outline>
</glyph>
<glyph name="five" format="2">
  <advance width="425"/>
  <unicode hex="0035"/>
  <outline>
    <contour>
      <point x="176" y="-15" type="curve" smooth="yes"/>
      <point x="279" y="-15"/>
      <point x="347" y="65"/>
      <point x="347" y="198" type="curve" smooth="yes"/>
      <point x="347" y="316"/>
      <point x="287" y="382"/>
      <point x="147" y="404" type="curve"/>
      <point x="155" y="484"/>
      <point x="159" y="552"/>
      <point x="161" y="661" type="curve"/>
      <point x="333" y="661" type="line"/>
      <point x="333" y="693" type="line"/>
      <point x="130" y="693" type="line"/>
      <point x="130" y="605"/>
      <point x="124" y="491"/>
      <point x="113" y="379" type="curve"/>
      <point x="247" y="371"/>
      <point x="315" y="309"/>
      <point x="315" y="197" type="curve" smooth="yes"/>
      <point x="315" y="85"/>
      <point x="260" y="15"/>
      <point x="178" y="15" type="curve" smooth="yes"/>
      <point x="148" y="15"/>
      <point x="105" y="25"/>
      <point x="73" y="40" type="curve"/>
      <point x="62" y="12" type="line"/>
      <point x="103" y="-6"/>
      <point x="138" y="-15"/>
    </contour>
  </outline>
</glyph>
<glyph name="six" format="2">
  <advance width="425"/>
  <unicode hex="0036"/>
  <outline>
    <contour>
      <point x="229" y="-10" type="curve" smooth="yes"/>
      <point x="317" y="-10"/>
      <point x="363" y="75"/>
      <point x="363" y="213" type="curve" smooth="yes"/>
      <point x="363" y="340"/>
      <point x="316" y="418"/>
      <point x="226" y="418" type="curve" smooth="yes"/>
      <point x="185" y="418"/>
      <point x="150" y="406"/>
      <point x="120" y="388" type="curve"/>
      <point x="146" y="597"/>
      <point x="226" y="657"/>
      <point x="331" y="667" type="curve"/>
      <point x="328" y="694" type="line"/>
      <point x="136" y="681"/>
      <point x="85" y="490"/>
      <point x="85" y="295" type="curve" smooth="yes"/>
      <point x="85" y="69"/>
      <point x="135" y="-10"/>
    </contour>
    <contour>
      <point x="228" y="20" type="curve" smooth="yes"/>
      <point x="134" y="20"/>
      <point x="116" y="147"/>
      <point x="116" y="295" type="curve" smooth="yes"/>
      <point x="116" y="308"/>
      <point x="117" y="332"/>
      <point x="119" y="355" type="curve"/>
      <point x="153" y="379"/>
      <point x="190" y="389"/>
      <point x="219" y="389" type="curve" smooth="yes"/>
      <point x="296" y="389"/>
      <point x="331" y="322"/>
      <point x="331" y="209" type="curve" smooth="yes"/>
      <point x="331" y="95"/>
      <point x="300" y="20"/>
    </contour>
  </outline>
</glyph>
<glyph name="seven" format="2">
  <advance width="425"/>
  <unicode hex="0037"/>
  <outline>
    <contour>
      <point x="136" y="0" type="curve"/>
      <point x="170" y="0" type="line"/>
      <point x="179" y="209"/>
      <point x="256" y="504"/>
      <point x="353" y="670" type="curve"/>
      <point x="353" y="693" type="line"/>
      <point x="57" y="693" type="line"/>
      <point x="57" y="661" type="line"/>
      <point x="312" y="661" type="line"/>
      <point x="217" y="474"/>
      <point x="142" y="186"/>
    </contour>
  </outline>
</glyph>
<glyph name="eight" format="2">
  <advance width="425"/>
  <unicode hex="0038"/>
  <outline>
    <contour>
      <point x="214" y="-10" type="curve" smooth="yes"/>
      <point x="290" y="-10"/>
      <point x="364" y="48"/>
      <point x="364" y="166" type="curve" smooth="yes"/>
      <point x="364" y="246"/>
      <point x="311" y="300"/>
      <point x="251" y="348" type="curve"/>
      <point x="303" y="391"/>
      <point x="354" y="459"/>
      <point x="354" y="544" type="curve" smooth="yes"/>
      <point x="354" y="658"/>
      <point x="290" y="706"/>
      <point x="216" y="706" type="curve" smooth="yes"/>
      <point x="151" y="706"/>
      <point x="79" y="660"/>
      <point x="79" y="550" type="curve" smooth="yes"/>
      <point x="79" y="467"/>
      <point x="121" y="410"/>
      <point x="181" y="363" type="curve"/>
      <point x="109" y="312"/>
      <point x="61" y="253"/>
      <point x="61" y="169" type="curve" smooth="yes"/>
      <point x="61" y="65"/>
      <point x="123" y="-10"/>
    </contour>
    <contour>
      <point x="216" y="20" type="curve" smooth="yes"/>
      <point x="141" y="20"/>
      <point x="94" y="80"/>
      <point x="94" y="170" type="curve" smooth="yes"/>
      <point x="94" y="256"/>
      <point x="140" y="301"/>
      <point x="204" y="346" type="curve"/>
      <point x="269" y="298"/>
      <point x="331" y="247"/>
      <point x="331" y="165" type="curve" smooth="yes"/>
      <point x="331" y="70"/>
      <point x="278" y="20"/>
    </contour>
    <contour>
      <point x="229" y="365" type="curve"/>
      <point x="158" y="417"/>
      <point x="112" y="467"/>
      <point x="112" y="550" type="curve" smooth="yes"/>
      <point x="112" y="650"/>
      <point x="173" y="676"/>
      <point x="217" y="676" type="curve" smooth="yes"/>
      <point x="276" y="676"/>
      <point x="321" y="641"/>
      <point x="321" y="541" type="curve" smooth="yes"/>
      <point x="321" y="455"/>
      <point x="286" y="414"/>
    </contour>
  </outline>
</glyph>
<glyph name="nine" format="2">
  <advance width="425"/>
  <unicode hex="0039"/>
  <outline>
    <contour>
      <point x="91" y="-2" type="line"/>
      <point x="290" y="11"/>
      <point x="341" y="204"/>
      <point x="341" y="401" type="curve" smooth="yes"/>
      <point x="341" y="627"/>
      <point x="291" y="706"/>
      <point x="196" y="706" type="curve" smooth="yes"/>
      <point x="108" y="706"/>
      <point x="62" y="621"/>
      <point x="62" y="483" type="curve" smooth="yes"/>
      <point x="62" y="355"/>
      <point x="109" y="276"/>
      <point x="199" y="276" type="curve" smooth="yes"/>
      <point x="240" y="276"/>
      <point x="275" y="288"/>
      <point x="306" y="306" type="curve"/>
      <point x="282" y="102"/>
      <point x="197" y="35"/>
      <point x="88" y="25" type="curve"/>
    </contour>
    <contour>
      <point x="206" y="305" type="curve" smooth="yes"/>
      <point x="129" y="305"/>
      <point x="94" y="373"/>
      <point x="94" y="487" type="curve" smooth="yes"/>
      <point x="94" y="601"/>
      <point x="125" y="676"/>
      <point x="197" y="676" type="curve" smooth="yes"/>
      <point x="291" y="676"/>
      <point x="309" y="549"/>
      <point x="309" y="401" type="curve" smooth="yes"/>
      <point x="309" y="388"/>
      <point x="309" y="363"/>
      <point x="307" y="339" type="curve"/>
      <point x="276" y="316"/>
      <point x="237" y="305"/>
    </contour>
  </outline>
</glyph>
<glyph name="equal" format="2">
  <advance width="425"/>
  <unicode hex="003D"/>
  <outline>
    <contour>
      <point x="45" y="378" type="line"/>
      <point x="379" y="378" type="line"/>
      <point x="379" y="409" type="line"/>
      <point x="45" y="409" type="line"/>
    </contour>
    <contour>
      <point x="45" y="189" type="line"/>
      <point x="379" y="189" type="line"/>
      <point x="379" y="220" type="line"/>
      <point x="45" y="220" type="line"/>
    </contour>
  </outline>
</glyph>
<glyph name="greater" format="2">
  <advance width="414"/>
  <unicode hex="003E"/>
  <outline>
    <contour>
      <point x="68" y="94" type="line"/>
      <point x="369" y="280" type="line"/>
      <point x="369" y="300" type="line"/>
      <point x="68" y="486" type="line"/>
      <point x="46" y="463" type="line"/>
      <point x="328" y="290" type="line"/>
      <point x="46" y="117" type="line"/>
    </contour>
  </outline>
</glyph>
<glyph name="at" format="2">
  <advance width="803"/>
  <unicode hex="0040"/>
  <outline>
    <contour>
      <point x="398" y="-148" type="curve" smooth="yes"/>
      <point x="449" y="-148"/>
      <point x="496" y="-141"/>
      <point x="532" y="-129" type="curve"/>
      <point x="526" y="-100" type="line"/>
      <point x="489" y="-112"/>
      <point x="443" y="-118"/>
      <point x="399" y="-118" type="curve" smooth="yes"/>
      <point x="188" y="-118"/>
      <point x="106" y="53"/>
      <point x="106" y="280" type="curve" smooth="yes"/>
      <point x="106" y="513"/>
      <point x="222" y="672"/>
      <point x="407" y="672" type="curve" smooth="yes"/>
      <point x="630" y="672"/>
      <point x="697" y="516"/>
      <point x="697" y="316" type="curve" smooth="yes"/>
      <point x="697" y="132"/>
      <point x="658" y="97"/>
      <point x="603" y="97" type="curve" smooth="yes"/>
      <point x="554" y="97"/>
      <point x="528" y="133"/>
      <point x="528" y="199" type="curve" smooth="yes"/>
      <point x="528" y="478" type="line"/>
      <point x="501" y="492"/>
      <point x="469" y="498"/>
      <point x="434" y="498" type="curve" smooth="yes"/>
      <point x="342" y="498"/>
      <point x="265" y="429"/>
      <point x="265" y="279" type="curve" smooth="yes"/>
      <point x="265" y="162"/>
      <point x="297" y="65"/>
      <point x="407" y="65" type="curve" smooth="yes"/>
      <point x="449" y="65"/>
      <point x="482" y="83"/>
      <point x="513" y="112" type="curve"/>
      <point x="532" y="80"/>
      <point x="565" y="68"/>
      <point x="605" y="68" type="curve" smooth="yes"/>
      <point x="685" y="68"/>
      <point x="729" y="124"/>
      <point x="729" y="317" type="curve" smooth="yes"/>
      <point x="729" y="533"/>
      <point x="654" y="702"/>
      <point x="408" y="702" type="curve" smooth="yes"/>
      <point x="204" y="702"/>
      <point x="74" y="532"/>
      <point x="74" y="280" type="curve" smooth="yes"/>
      <point x="74" y="30"/>
      <point x="168" y="-148"/>
    </contour>
    <contour>
      <point x="407" y="94" type="curve" smooth="yes"/>
      <point x="319" y="94"/>
      <point x="299" y="181"/>
      <point x="299" y="280" type="curve" smooth="yes"/>
      <point x="299" y="407"/>
      <point x="352" y="469"/>
      <point x="426" y="469" type="curve" smooth="yes"/>
      <point x="453" y="469"/>
      <point x="476" y="465"/>
      <point x="495" y="458" type="curve"/>
      <point x="495" y="198" type="line" smooth="yes"/>
      <point x="495" y="174"/>
      <point x="498" y="154"/>
      <point x="503" y="137" type="curve"/>
      <point x="479" y="109"/>
      <point x="443" y="94"/>
    </contour>
  </outline>
</glyph>
<glyph name="A" format="2">
  <advance width="461"/>
  <unicode hex="0041"/>
  <anchor x="231" y="0" name="bottom"/>
  <anchor x="415" y="10" name="ogonek"/>
  <anchor x="229" y="668" name="top"/>
  <outline>
    <contour>
      <point x="28" y="0" type="curve"/>
      <point x="61" y="0" type="line"/>
      <point x="71" y="64"/>
      <point x="83" y="131"/>
      <point x="98" y="200" type="curve"/>
      <point x="361" y="200" type="line"/>
      <point x="376" y="131"/>
      <point x="389" y="64"/>
      <point x="399" y="0" type="curve"/>
      <point x="433" y="0" type="line"/>
      <point x="402" y="213"/>
      <point x="338" y="440"/>
      <point x="249" y="693" type="curve"/>
      <point x="208" y="693" type="line"/>
      <point x="123" y="440"/>
      <point x="59" y="213"/>
    </contour>
    <contour>
      <point x="106" y="232" type="line"/>
      <point x="137" y="369"/>
      <point x="178" y="515"/>
      <point x="229" y="660" type="curve"/>
      <point x="281" y="515"/>
      <point x="322" y="369"/>
      <point x="354" y="232" type="curve"/>
    </contour>
  </outline>
</glyph>
<glyph name="B" format="2">
  <advance width="500.9"/>
  <unicode hex="0042"/>
  <anchor x="251" y="0" name="bottom"/>
  <anchor x="251" y="347" name="center"/>
  <anchor x="251" y="693" name="top"/>
  <outline>
    <contour>
      <point x="234" y="-2" type="curve" smooth="yes"/>
      <point x="368" y="-2"/>
      <point x="450" y="45"/>
      <point x="450" y="191" type="curve" smooth="yes"/>
      <point x="450" y="260"/>
      <point x="407" y="332"/>
      <point x="305" y="355" type="curve"/>
      <point x="374" y="373"/>
      <point x="428" y="435"/>
      <point x="428" y="525" type="curve" smooth="yes"/>
      <point x="428" y="634"/>
      <point x="382" y="697"/>
      <point x="215" y="697" type="curve" smooth="yes"/>
      <point x="168" y="697"/>
      <point x="120" y="690"/>
      <point x="91" y="683" type="curve"/>
      <point x="91" y="13" type="line"/>
      <point x="133" y="6"/>
      <point x="179" y="-2"/>
    </contour>
    <contour>
      <point x="230" y="32" type="curve" smooth="yes"/>
      <point x="216" y="32"/>
      <point x="172" y="35"/>
      <point x="129" y="46" type="curve"/>
      <point x="129" y="344" type="line"/>
      <point x="231" y="344" type="line" smooth="yes"/>
      <point x="394" y="344"/>
      <point x="414" y="258"/>
      <point x="414" y="192" type="curve" smooth="yes"/>
      <point x="414" y="97"/>
      <point x="406" y="32"/>
    </contour>
    <contour>
      <point x="129" y="376" type="line"/>
      <point x="129" y="653" type="line"/>
      <point x="154" y="655"/>
      <point x="205" y="662"/>
      <point x="210" y="662" type="curve" smooth="yes"/>
      <point x="341" y="662"/>
      <point x="390" y="624"/>
      <point x="390" y="520" type="curve" smooth="yes"/>
      <point x="390" y="453"/>
      <point x="380" y="376"/>
      <point x="231" y="376" type="curve" smooth="yes"/>
    </contour>
  </outline>
</glyph>
<glyph name="C" format="2">
  <advance width="449"/>
  <unicode hex="0043"/>
  <anchor x="225" y="0" name="bottom"/>
  <anchor x="225" y="693" name="top"/>
  <outline>
    <contour>
      <point x="295" y="-9" type="curve" smooth="yes"/>
      <point x="341" y="-9.0"/>
      <point x="387" y="2"/>
      <point x="424" y="25" type="curve"/>
      <point x="415" y="53" type="line"/>
      <point x="374" y="34"/>
      <point x="337" y="22"/>
      <point x="298" y="22" type="curve" smooth="yes"/>
      <point x="168" y="22.0"/>
      <point x="98.0" y="138"/>
      <point x="98" y="340" type="curve" smooth="yes"/>
      <point x="98.0" y="560"/>
      <point x="160" y="671.0"/>
      <point x="292" y="671" type="curve" smooth="yes"/>
      <point x="334" y="671"/>
      <point x="377" y="659"/>
      <point x="407" y="644" type="curve"/>
      <point x="417" y="672" type="line"/>
      <point x="380" y="691"/>
      <point x="338" y="702"/>
      <point x="291" y="702" type="curve" smooth="yes"/>
      <point x="141" y="702.0"/>
      <point x="62.0" y="575"/>
      <point x="62" y="340" type="curve" smooth="yes"/>
      <point x="62.0" y="120"/>
      <point x="148" y="-9.0"/>
    </contour>
  </outline>
</glyph>
<glyph name="D" format="2">
  <advance width="554"/>
  <unicode hex="0044"/>
  <anchor x="276" y="0" name="bottom"/>
  <anchor x="276" y="347" name="center"/>
  <anchor x="276" y="693" name="top"/>
  <outline>
    <contour>
      <point x="229" y="-4" type="curve" smooth="yes"/>
      <point x="403.02973977695166" y="-4.0"/>
      <point x="492.0" y="114.0"/>
      <point x="492" y="347" type="curve" smooth="yes"/>
      <point x="492.0" y="580.0"/>
      <point x="403.6791044776119" y="697.0"/>
      <point x="229" y="697" type="curve" smooth="yes"/>
      <point x="184" y="697.0"/>
      <point x="136" y="693"/>
      <point x="88" y="685" type="curve"/>
      <point x="88" y="6" type="line"/>
      <point x="138" y="-2"/>
      <point x="186" y="-4.0"/>
    </contour>
    <contour>
      <point x="225" y="28" type="curve" smooth="yes"/>
      <point x="184.0" y="28.0"/>
      <point x="153" y="29"/>
      <point x="122" y="34" type="curve"/>
      <point x="122" y="659" type="line"/>
      <point x="155" y="663"/>
      <point x="187.0" y="665.0"/>
      <point x="225" y="665" type="curve" smooth="yes"/>
      <point x="384.5466101694915" y="665.0"/>
      <point x="456.0" y="567.3860759493671"/>
      <point x="456" y="347" type="curve" smooth="yes"/>
      <point x="456.0" y="125.61198738170347"/>
      <point x="384.5466101694915" y="28.0"/>
    </contour>
  </outline>
</glyph>
<glyph name="E" format="2">
  <advance width="427.525"/>
  <unicode hex="0045"/>
  <anchor x="213" y="0" name="bottom"/>
  <anchor x="383" y="10" name="ogonek"/>
  <anchor x="213" y="693" name="top"/>
  <anchor x="20" y="693" name="topleft"/>
  <outline>
    <contour>
      <point x="91" y="0" type="line"/>
      <point x="374" y="0" type="line"/>
      <point x="374" y="35" type="line"/>
      <point x="128" y="35" type="line"/>
      <point x="128" y="346" type="line"/>
      <point x="337" y="346" type="line"/>
      <point x="337" y="381" type="line"/>
      <point x="128" y="381" type="line"/>
      <point x="128" y="658" type="line"/>
      <point x="363" y="658" type="line"/>
      <point x="363" y="693" type="line"/>
      <point x="91" y="693" type="line"/>
    </contour>
  </outline>
</glyph>
<glyph name="F" format="2">
  <advance width="390"/>
  <unicode hex="0046"/>
  <anchor x="198" y="0" name="bottom"/>
  <anchor x="198" y="693" name="top"/>
  <outline>
    <contour>
      <point x="88" y="0" type="line"/>
      <point x="122" y="0" type="line"/>
      <point x="122" y="346" type="line"/>
      <point x="327" y="346" type="line"/>
      <point x="327" y="377" type="line"/>
      <point x="122" y="377" type="line"/>
      <point x="122" y="662" type="line"/>
      <point x="352" y="662" type="line"/>
      <point x="352" y="693" type="line"/>
      <point x="88" y="693" type="line"/>
    </contour>
  </outline>
</glyph>
<glyph name="G" format="2">
  <advance width="504.9"/>
  <unicode hex="0047"/>
  <anchor x="253" y="0" name="bottom"/>
  <anchor x="253" y="693" name="top"/>
  <outline>
    <contour>
      <point x="317" y="-9" type="curve" smooth="yes"/>
      <point x="321" y="-9"/>
      <point x="361" y="-5"/>
      <point x="429" y="25" type="curve"/>
      <point x="429" y="316" type="line"/>
      <point x="391" y="316" type="line"/>
      <point x="391" y="42" type="line"/>
      <point x="348" y="28"/>
      <point x="321" y="26"/>
      <point x="306" y="26" type="curve" smooth="yes"/>
      <point x="197" y="26"/>
      <point x="101" y="121"/>
      <point x="101" y="347" type="curve" smooth="yes"/>
      <point x="101" y="518"/>
      <point x="154" y="667"/>
      <point x="316" y="667" type="curve" smooth="yes"/>
      <point x="358" y="667"/>
      <point x="388" y="649"/>
      <point x="416" y="638" type="curve"/>
      <point x="427" y="668" type="line"/>
      <point x="358" y="704"/>
      <point x="326" y="701"/>
      <point x="309" y="701" type="curve" smooth="yes"/>
      <point x="133" y="701"/>
      <point x="62" y="572"/>
      <point x="62" y="347" type="curve" smooth="yes"/>
      <point x="62" y="124"/>
      <point x="140" y="-9"/>
    </contour>
  </outline>
</glyph>
<glyph name="H" format="2">
  <advance width="548"/>
  <unicode hex="0048"/>
  <anchor x="274" y="0" name="bottom"/>
  <anchor x="274" y="347" name="center"/>
  <anchor x="274" y="693" name="top"/>
  <anchor x="16" y="693" name="topleft"/>
  <outline>
    <contour>
      <point x="88" y="0" type="line"/>
      <point x="122" y="0" type="line"/>
      <point x="122" y="346" type="line"/>
      <point x="426" y="346" type="line"/>
      <point x="426" y="0" type="line"/>
      <point x="460" y="0" type="line"/>
      <point x="460" y="693" type="line"/>
      <point x="426" y="693" type="line"/>
      <point x="426" y="378" type="line"/>
      <point x="122" y="378" type="line"/>
      <point x="122" y="693" type="line"/>
      <point x="88" y="693" type="line"/>
    </contour>
  </outline>
</glyph>
<glyph name="I" format="2">
  <advance width="210"/>
  <unicode hex="0049"/>
  <anchor x="105" y="0" name="bottom"/>
  <anchor x="193" y="10" name="ogonek"/>
  <anchor x="105" y="693" name="top"/>
  <anchor x="14" y="693" name="topleft"/>
  <outline>
    <contour>
      <point x="88" y="0" type="line"/>
      <point x="122" y="0" type="line"/>
      <point x="122" y="693" type="line"/>
      <point x="88" y="693" type="line"/>
    </contour>
  </outline>
</glyph>
<glyph name="J" format="2">
  <advance width="353"/>
  <unicode hex="004A"/>
  <anchor x="177" y="0" name="bottom"/>
  <anchor x="177" y="693" name="top"/>
  <outline>
    <contour>
      <point x="117" y="-7" type="curve" smooth="yes"/>
      <point x="197.59060402684565" y="-7.0"/>
      <point x="269" y="26.91160220994476"/>
      <point x="269" y="179" type="curve" smooth="yes"/>
      <point x="269" y="693" type="line"/>
      <point x="235" y="693" type="line"/>
      <point x="235" y="178" type="line" smooth="yes"/>
      <point x="235" y="67.40939597315437"/>
      <point x="195.0" y="24.0"/>
      <point x="117" y="24" type="curve" smooth="yes"/>
      <point x="80" y="24"/>
      <point x="44" y="31"/>
      <point x="13" y="48" type="curve"/>
      <point x="6" y="19" type="line"/>
      <point x="42.71826696660641" y="0.14467371985076483"/>
      <point x="80.94871794871796" y="-7.0"/>
    </contour>
  </outline>
</glyph>
<glyph name="K" format="2">
  <advance width="461.4"/>
  <unicode hex="004B"/>
  <anchor x="231" y="0" name="bottom"/>
  <anchor x="231" y="693" name="top"/>
  <outline>
    <contour>
      <point x="91" y="0" type="line"/>
      <point x="129" y="0" type="line"/>
      <point x="129" y="336" type="line"/>
      <point x="201" y="286"/>
      <point x="341" y="108"/>
      <point x="401" y="0" type="curve"/>
      <point x="441" y="0" type="line"/>
      <point x="334" y="179"/>
      <point x="239" y="277"/>
      <point x="157" y="360" type="curve"/>
      <point x="243" y="447"/>
      <point x="319" y="568"/>
      <point x="418" y="693" type="curve"/>
      <point x="384" y="693" type="line"/>
      <point x="313" y="599"/>
      <point x="220" y="466"/>
      <point x="129" y="380" type="curve"/>
      <point x="129" y="693" type="line"/>
      <point x="91" y="693" type="line"/>
    </contour>
  </outline>
</glyph>
<glyph name="L" format="2">
  <advance width="385"/>
  <unicode hex="004C"/>
  <anchor x="194" y="0" name="bottom"/>
  <anchor x="194" y="347" name="center"/>
  <anchor x="194" y="693" name="top"/>
  <anchor x="367" y="693" name="topright"/>
  <outline>
    <contour>
      <point x="88" y="0" type="line"/>
      <point x="351" y="0" type="line"/>
      <point x="351" y="32" type="line"/>
      <point x="122" y="32" type="line"/>
      <point x="122" y="693" type="line"/>
      <point x="88" y="693" type="line"/>
    </contour>
  </outline>
</glyph>
<glyph name="M" format="2">
  <advance width="705"/>
  <unicode hex="004D"/>
  <anchor x="352" y="0" name="bottom"/>
  <anchor x="352" y="693" name="top"/>
  <outline>
    <contour>
      <point x="78" y="0" type="curve"/>
      <point x="112" y="0" type="line"/>
      <point x="116" y="219"/>
      <point x="123" y="447"/>
      <point x="136" y="647" type="curve"/>
      <point x="212" y="466"/>
      <point x="279" y="287"/>
      <point x="333" y="103" type="curve"/>
      <point x="373" y="103" type="line"/>
      <point x="427" y="288"/>
      <point x="493" y="468"/>
      <point x="569" y="649" type="curve"/>
      <point x="581" y="449"/>
      <point x="589" y="220"/>
      <point x="593" y="0" type="curve"/>
      <point x="627" y="0" type="line"/>
      <point x="621" y="243"/>
      <point x="613" y="480"/>
      <point x="595" y="693" type="curve"/>
      <point x="557" y="693" type="line"/>
      <point x="484" y="523"/>
      <point x="413" y="340"/>
      <point x="353" y="136" type="curve"/>
      <point x="294" y="340"/>
      <point x="221" y="523"/>
      <point x="148" y="693" type="curve"/>
      <point x="110" y="693" type="line"/>
      <point x="92" y="480"/>
      <point x="84" y="243"/>
    </contour>
  </outline>
</glyph>
<glyph name="N" format="2">
  <advance width="561"/>
  <unicode hex="004E"/>
  <anchor x="282" y="0" name="bottom"/>
  <anchor x="282" y="693" name="top"/>
  <outline>
    <contour>
      <point x="88" y="0" type="line"/>
      <point x="122" y="0" type="line"/>
      <point x="122" y="639" type="line"/>
      <point x="225" y="465"/>
      <point x="339" y="234"/>
      <point x="438" y="0" type="curve"/>
      <point x="473" y="0" type="line"/>
      <point x="473" y="693" type="line"/>
      <point x="439" y="693" type="line"/>
      <point x="439" y="78" type="line"/>
      <point x="351" y="283"/>
      <point x="234" y="513"/>
      <point x="126" y="693" type="curve"/>
      <point x="88" y="693" type="line"/>
    </contour>
  </outline>
</glyph>
<glyph name="O" format="2">
  <advance width="576"/>
  <unicode hex="004F"/>
  <anchor x="288" y="0" name="bottom"/>
  <anchor x="288" y="347" name="center"/>
  <anchor x="520" y="10" name="ogonek"/>
  <anchor x="288" y="668" name="top"/>
  <anchor x="17" y="693" name="topleft"/>
  <anchor x="559" y="693" name="topright"/>
  <outline>
    <contour>
      <point x="288" y="-9" type="curve" smooth="yes"/>
      <point x="431.728" y="-9"/>
      <point x="514" y="119.729"/>
      <point x="514" y="344" type="curve" smooth="yes"/>
      <point x="514" y="572.272"/>
      <point x="431.728" y="703"/>
      <point x="288" y="703" type="curve" smooth="yes"/>
      <point x="144.272" y="703"/>
      <point x="62" y="572.272"/>
      <point x="62" y="344" type="curve" smooth="yes"/>
      <point x="62" y="119.729"/>
      <point x="144.272" y="-9"/>
    </contour>
    <contour>
      <point x="288" y="22" type="curve" smooth="yes"/>
      <point x="165.354" y="22"/>
      <point x="98" y="138.814"/>
      <point x="98" y="344" type="curve" smooth="yes"/>
      <point x="98" y="552.173"/>
      <point x="165.354" y="672"/>
      <point x="288" y="672" type="curve" smooth="yes"/>
      <point x="410.646" y="672"/>
      <point x="478" y="552.173"/>
      <point x="478" y="344" type="curve" smooth="yes"/>
      <point x="478" y="138.814"/>
      <point x="410.646" y="22"/>
    </contour>
  </outline>
</glyph>
<glyph name="P" format="2">
  <advance width="451"/>
  <unicode hex="0050"/>
  <anchor x="227" y="0" name="bottom"/>
  <anchor x="227" y="693" name="top"/>
  <outline>
    <contour>
      <point x="88" y="0" type="line"/>
      <point x="122" y="0" type="line"/>
      <point x="122" y="278" type="line"/>
      <point x="189" y="278" type="line" smooth="yes"/>
      <point x="329.09" y="278"/>
      <point x="409" y="353.905"/>
      <point x="409" y="486" type="curve" smooth="yes"/>
      <point x="409" y="621.27"/>
      <point x="331.087" y="699"/>
      <point x="194" y="699" type="curve" smooth="yes"/>
      <point x="162" y="699"/>
      <point x="124" y="695"/>
      <point x="88" y="688" type="curve"/>
    </contour>
    <contour>
      <point x="122" y="310" type="line"/>
      <point x="122" y="660" type="line"/>
      <point x="143" y="665"/>
      <point x="169" y="667"/>
      <point x="190" y="667" type="curve" smooth="yes"/>
      <point x="312" y="667"/>
      <point x="374" y="606.667"/>
      <point x="374" y="486" type="curve" smooth="yes"/>
      <point x="374" y="369.006"/>
      <point x="312.326" y="310"/>
      <point x="191" y="310" type="curve" smooth="yes"/>
    </contour>
  </outline>
</glyph>
<glyph name="Q" format="2">
  <advance width="576"/>
  <unicode hex="0051"/>
  <anchor x="288" y="0" name="bottom"/>
  <anchor x="288" y="693" name="top"/>
  <outline>
    <contour>
      <point x="474" y="-162" type="curve"/>
      <point x="484" y="-129" type="line"/>
      <point x="386" y="-108"/>
      <point x="329" y="-77"/>
      <point x="321" y="-7" type="curve"/>
      <point x="445" y="12"/>
      <point x="514" y="138"/>
      <point x="514" y="344" type="curve" smooth="yes"/>
      <point x="514" y="572"/>
      <point x="432" y="703"/>
      <point x="288" y="703" type="curve" smooth="yes"/>
      <point x="144" y="703"/>
      <point x="62" y="572"/>
      <point x="62" y="344" type="curve" smooth="yes"/>
      <point x="62" y="120"/>
      <point x="144" y="-9"/>
      <point x="288" y="-9" type="curve"/>
      <point x="301" y="-105"/>
      <point x="367" y="-134"/>
    </contour>
    <contour>
      <point x="288" y="22" type="curve" smooth="yes"/>
      <point x="165" y="22"/>
      <point x="98" y="139"/>
      <point x="98" y="344" type="curve" smooth="yes"/>
      <point x="98" y="552"/>
      <point x="165" y="672"/>
      <point x="288" y="672" type="curve" smooth="yes"/>
      <point x="411" y="672"/>
      <point x="478" y="552"/>
      <point x="478" y="344" type="curve" smooth="yes"/>
      <point x="478" y="139"/>
      <point x="411" y="22"/>
    </contour>
  </outline>
</glyph>
<glyph name="R" format="2">
  <advance width="476"/>
  <unicode hex="0052"/>
  <anchor x="236" y="0" name="bottom"/>
  <anchor x="227" y="668" name="top"/>
  <outline>
    <contour>
      <point x="88" y="0" type="line"/>
      <point x="122" y="0" type="line"/>
      <point x="122" y="285" type="line"/>
      <point x="195" y="285" type="line" smooth="yes"/>
      <point x="214" y="285"/>
      <point x="235" y="287"/>
      <point x="255" y="290" type="curve"/>
      <point x="312" y="196"/>
      <point x="360" y="99"/>
      <point x="401" y="0" type="curve"/>
      <point x="442" y="0" type="line"/>
      <point x="381" y="132"/>
      <point x="335" y="222"/>
      <point x="289" y="301" type="curve"/>
      <point x="362" y="325"/>
      <point x="404" y="393"/>
      <point x="404" y="489" type="curve" smooth="yes"/>
      <point x="404" y="622.269"/>
      <point x="329" y="699"/>
      <point x="198" y="699" type="curve" smooth="yes"/>
      <point x="160" y="699"/>
      <point x="122" y="694"/>
      <point x="88" y="688" type="curve"/>
    </contour>
    <contour>
      <point x="122" y="317" type="line"/>
      <point x="122" y="661" type="line"/>
      <point x="144" y="665"/>
      <point x="174" y="667"/>
      <point x="198" y="667" type="curve" smooth="yes"/>
      <point x="311" y="667"/>
      <point x="369" y="608.006"/>
      <point x="369" y="489" type="curve" smooth="yes"/>
      <point x="369" y="376"/>
      <point x="310" y="317"/>
      <point x="195" y="317" type="curve" smooth="yes"/>
    </contour>
  </outline>
</glyph>
<glyph name="S" format="2">
  <advance width="368"/>
  <unicode hex="0053"/>
  <anchor x="183" y="0" name="bottom"/>
  <anchor x="183" y="693" name="top"/>
  <outline>
    <contour>
      <point x="153" y="-10" type="curve" smooth="yes"/>
      <point x="265" y="-10.0"/>
      <point x="332.0" y="63.0"/>
      <point x="332" y="178" type="curve" smooth="yes"/>
      <point x="332.0" y="289.0"/>
      <point x="262.6687564903149" y="334.2158101654009"/>
      <point x="197" y="377" type="curve" smooth="yes"/>
      <point x="137.0749558603842" y="416.2951109112235"/>
      <point x="81.0" y="454.0"/>
      <point x="81" y="538" type="curve" smooth="yes"/>
      <point x="81.0" y="625.3129770992366"/>
      <point x="137.16788321167883" y="671.0"/>
      <point x="216" y="671" type="curve" smooth="yes"/>
      <point x="247.6138613861386" y="671.0"/>
      <point x="283.4381841732417" y="664.2728819729969"/>
      <point x="319" y="647" type="curve"/>
      <point x="327" y="679" type="line"/>
      <point x="297" y="693"/>
      <point x="255.05555555555554" y="703.0"/>
      <point x="216" y="703" type="curve" smooth="yes"/>
      <point x="108.52873563218391" y="703.0"/>
      <point x="46.0" y="637.0"/>
      <point x="46" y="534" type="curve" smooth="yes"/>
      <point x="46.0" y="432.54545454545456"/>
      <point x="112.09500797461442" y="389.9376510166593"/>
      <point x="176" y="348" type="curve" smooth="yes"/>
      <point x="237.69100237883112" y="307.85188734076075"/>
      <point x="297.0" y="267"/>
      <point x="297" y="173" type="curve" smooth="yes"/>
      <point x="297.0" y="77.73825503355705"/>
      <point x="245.43243243243242" y="22.0"/>
      <point x="153" y="22" type="curve" smooth="yes"/>
      <point x="107.71681415929203" y="22.0"/>
      <point x="68" y="35"/>
      <point x="34" y="53" type="curve"/>
      <point x="25" y="20" type="line"/>
      <point x="65" y="1"/>
      <point x="110" y="-10"/>
    </contour>
  </outline>
</glyph>
<glyph name="T" format="2">
  <advance width="399"/>
  <unicode hex="0054"/>
  <anchor x="185" y="0" name="bottom"/>
  <anchor x="199" y="347" name="center"/>
  <anchor x="199" y="668" name="top"/>
  <outline>
    <contour>
      <point x="182" y="0" type="line"/>
      <point x="216" y="0" type="line"/>
      <point x="216" y="661" type="line"/>
      <point x="379" y="661" type="line"/>
      <point x="379" y="693" type="line"/>
      <point x="20" y="693" type="line"/>
      <point x="20" y="661" type="line"/>
      <point x="182" y="661" type="line"/>
    </contour>
  </outline>
</glyph>
<glyph name="U" format="2">
  <advance width="522.2"/>
  <unicode hex="0055"/>
  <anchor x="262" y="0" name="bottom"/>
  <anchor x="471" y="10" name="ogonek"/>
  <anchor x="262" y="693" name="top"/>
  <anchor x="502" y="693" name="topright"/>
  <outline>
    <contour>
      <point x="262" y="-7" type="curve" smooth="yes"/>
      <point x="353" y="-7"/>
      <point x="438" y="22"/>
      <point x="438" y="217" type="curve" smooth="yes"/>
      <point x="438" y="693" type="line"/>
      <point x="399" y="693" type="line"/>
      <point x="399" y="222" type="line" smooth="yes"/>
      <point x="399" y="112"/>
      <point x="397" y="27"/>
      <point x="264" y="27" type="curve" smooth="yes"/>
      <point x="131" y="27"/>
      <point x="123" y="109"/>
      <point x="123" y="222" type="curve" smooth="yes"/>
      <point x="123" y="693" type="line"/>
      <point x="85" y="693" type="line"/>
      <point x="85" y="217" type="line" smooth="yes"/>
      <point x="85" y="14"/>
      <point x="169" y="-7"/>
    </contour>
  </outline>
</glyph>
<glyph name="V" format="2">
  <advance width="468.525"/>
  <unicode hex="0056"/>
  <anchor x="236" y="0" name="bottom"/>
  <anchor x="236" y="693" name="top"/>
  <outline>
    <contour>
      <point x="217" y="0" type="curve"/>
      <point x="255" y="0" type="line"/>
      <point x="341" y="207"/>
      <point x="417" y="471"/>
      <point x="442" y="693" type="curve"/>
      <point x="408" y="693" type="line"/>
      <point x="355" y="408"/>
      <point x="313" y="274"/>
      <point x="235" y="47" type="curve"/>
      <point x="163" y="249"/>
      <point x="103" y="433"/>
      <point x="60" y="693" type="curve"/>
      <point x="27" y="693" type="line"/>
      <point x="9" y="604"/>
      <point x="110" y="251"/>
    </contour>
  </outline>
</glyph>
<glyph name="X" format="2">
  <advance width="414.05"/>
  <unicode hex="0058"/>
  <anchor x="208" y="0" name="bottom"/>
  <anchor x="208" y="693" name="top"/>
  <outline>
    <contour>
      <point x="23" y="0" type="curve"/>
      <point x="58" y="0" type="line"/>
      <point x="102" y="103"/>
      <point x="126" y="176"/>
      <point x="209" y="318" type="curve"/>
      <point x="297" y="164"/>
      <point x="292" y="140"/>
      <point x="359" y="0" type="curve"/>
      <point x="391" y="0" type="line"/>
      <point x="322" y="140"/>
      <point x="293" y="223"/>
      <point x="226" y="361" type="curve"/>
      <point x="389" y="693" type="line"/>
      <point x="363" y="693" type="line"/>
      <point x="211" y="399" type="line"/>
      <point x="60" y="693" type="line"/>
      <point x="32" y="693" type="line"/>
      <point x="190" y="361" type="line"/>
      <point x="112" y="218"/>
      <point x="68" y="96"/>
    </contour>
  </outline>
</glyph>
<glyph name="Y" format="2">
  <advance width="395.725"/>
  <unicode hex="0059"/>
  <anchor x="198" y="0" name="bottom"/>
  <anchor x="198" y="693" name="top"/>
  <anchor x="20" y="693" name="topleft"/>
  <outline>
    <contour>
      <point x="180" y="0" type="line"/>
      <point x="218" y="0" type="line"/>
      <point x="218" y="281" type="line"/>
      <point x="286" y="409"/>
      <point x="344" y="527"/>
      <point x="386" y="693" type="curve"/>
      <point x="352" y="693" type="line"/>
      <point x="332" y="598"/>
      <point x="307" y="522"/>
      <point x="197" y="323" type="curve"/>
      <point x="139" y="438"/>
      <point x="85" y="570"/>
      <point x="41" y="693" type="curve"/>
      <point x="10" y="693" type="line"/>
      <point x="68" y="521"/>
      <point x="130" y="368"/>
      <point x="180" y="275" type="curve"/>
    </contour>
  </outline>
</glyph>
<glyph name="Z" format="2">
  <advance width="403.525"/>
  <unicode hex="005A"/>
  <anchor x="203" y="0" name="bottom"/>
  <anchor x="203" y="347" name="center"/>
  <anchor x="203" y="693" name="top"/>
  <outline>
    <contour>
      <point x="38" y="0" type="line"/>
      <point x="362" y="0" type="line"/>
      <point x="362" y="35" type="line"/>
      <point x="77" y="35" type="line"/>
      <point x="109" y="150"/>
      <point x="239" y="484"/>
      <point x="355" y="672" type="curve"/>
      <point x="355" y="693" type="line"/>
      <point x="49" y="693" type="line"/>
      <point x="49" y="658" type="line"/>
      <point x="311" y="658" type="line"/>
      <point x="211" y="481"/>
      <point x="104" y="198"/>
      <point x="38" y="23" type="curve"/>
    </contour>
  </outline>
</glyph>
<glyph name="bracketleft" format="2">
  <advance width="227"/>
  <unicode hex="005B"/>
  <outline>
    <contour>
      <point x="88" y="-185" type="line"/>
      <point x="223" y="-185" type="line"/>
      <point x="223" y="-156" type="line"/>
      <point x="120" y="-156" type="line"/>
      <point x="120" y="753" type="line"/>
      <point x="223" y="753" type="line"/>
      <point x="223" y="783" type="line"/>
      <point x="88" y="783" type="line"/>
    </contour>
  </outline>
</glyph>
<glyph name="backslash" format="2">
  <advance width="226"/>
  <unicode hex="005C"/>
  <outline>
    <contour>
      <point x="219" y="-185" type="line"/>
      <point x="250" y="-185" type="line"/>
      <point x="8" y="783" type="line"/>
      <point x="-23" y="783" type="line"/>
    </contour>
  </outline>
</glyph>
<glyph name="bracketright" format="2">
  <advance width="225"/>
  <unicode hex="005D"/>
  <outline>
    <contour>
      <point x="2" y="-185" type="line"/>
      <point x="137" y="-185" type="line"/>
      <point x="137" y="783" type="line"/>
      <point x="2" y="783" type="line"/>
      <point x="2" y="753" type="line"/>
      <point x="105" y="753" type="line"/>
      <point x="105" y="-156" type="line"/>
      <point x="2" y="-156" type="line"/>
    </contour>
  </outline>
</glyph>
<glyph name="asciicircum" format="2">
  <advance width="425"/>
  <unicode hex="005E"/>
  <outline>
    <contour>
      <point x="96" y="330" type="line"/>
      <point x="213" y="632" type="line"/>
      <point x="330" y="330" type="line"/>
      <point x="363" y="339" type="line"/>
      <point x="228" y="683" type="line"/>
      <point x="197" y="683" type="line"/>
      <point x="62" y="339" type="line"/>
    </contour>
  </outline>
</glyph>
<glyph name="underscore" format="2">
  <advance width="383.75"/>
  <unicode hex="005F"/>
  <outline>
    <contour>
      <point x="4" y="-182" type="line"/>
      <point x="379" y="-182" type="line"/>
      <point x="379" y="-153" type="line"/>
      <point x="4" y="-153" type="line"/>
    </contour>
  </outline>
</glyph>
<glyph name="grave" format="2">
  <advance width="314"/>
  <unicode hex="0060"/>
  <outline>
    <contour>
      <point x="217" y="595" type="line"/>
      <point x="236" y="612" type="line"/>
      <point x="104" y="778" type="line"/>
      <point x="76" y="754" type="line"/>
    </contour>
  </outline>
</glyph>
<glyph name="a" format="2">
  <advance width="409"/>
  <unicode hex="0061"/>
  <anchor x="199" y="0" name="bottom"/>
  <anchor x="368" y="10" name="ogonek"/>
  <anchor x="199" y="517" name="top"/>
  <outline>
    <contour>
      <point x="201" y="-6" type="curve" smooth="yes"/>
      <point x="238.13636363636363" y="-6.0"/>
      <point x="285.94310441825934" y="1.2724523874971414"/>
      <point x="330" y="14" type="curve"/>
      <point x="330" y="382" type="line" smooth="yes"/>
      <point x="330" y="481.0"/>
      <point x="276" y="529.0"/>
      <point x="194" y="529" type="curve" smooth="yes"/>
      <point x="160" y="529"/>
      <point x="124" y="524"/>
      <point x="87" y="510" type="curve"/>
      <point x="94" y="481" type="line"/>
      <point x="126" y="493"/>
      <point x="162" y="499"/>
      <point x="193" y="499" type="curve" smooth="yes"/>
      <point x="259" y="499.0"/>
      <point x="298" y="460.0"/>
      <point x="298" y="375" type="curve" smooth="yes"/>
      <point x="298" y="290" type="line"/>
      <point x="264.961854662958" y="298.7453914127464"/>
      <point x="233.32631578947368" y="304.0"/>
      <point x="202" y="304" type="curve" smooth="yes"/>
      <point x="102.46625766871166" y="304.0"/>
      <point x="46.0" y="248.0"/>
      <point x="46" y="150" type="curve" smooth="yes"/>
      <point x="46.0" y="52.0"/>
      <point x="103.15625" y="-6.0"/>
    </contour>
    <contour>
      <point x="205" y="24" type="curve" smooth="yes"/>
      <point x="123.91538461538464" y="24.0"/>
      <point x="78.0" y="70.73015873015873"/>
      <point x="78" y="152" type="curve" smooth="yes"/>
      <point x="78.0" y="233.31147540983608"/>
      <point x="122.25757575757576" y="276.0"/>
      <point x="205" y="276" type="curve" smooth="yes"/>
      <point x="235.67021276595744" y="276.0"/>
      <point x="267.8923267272157" y="269.7409374017761"/>
      <point x="298" y="261" type="curve"/>
      <point x="298" y="36" type="line"/>
      <point x="265.00591191026865" y="28.236685155357335"/>
      <point x="232.125" y="24.0"/>
    </contour>
  </outline>
</glyph>
<glyph name="b" format="2">
  <advance width="434"/>
  <unicode hex="0062"/>
  <anchor x="213" y="0" name="bottom"/>
  <anchor x="213" y="257" name="center"/>
  <anchor x="213" y="517" name="top"/>
  <outline>
    <contour>
      <point x="199" y="-10" type="curve" smooth="yes"/>
      <point x="335.0" y="-10.0"/>
      <point x="380.0" y="100.0"/>
      <point x="380" y="265" type="curve" smooth="yes"/>
      <point x="380" y="459"/>
      <point x="301" y="529"/>
      <point x="209" y="529" type="curve" smooth="yes"/>
      <point x="169" y="529"/>
      <point x="134" y="515"/>
      <point x="114" y="500" type="curve"/>
      <point x="114" y="776" type="line"/>
      <point x="82" y="768" type="line"/>
      <point x="82" y="18" type="line"/>
      <point x="121" y="0"/>
      <point x="154.0" y="-10.0"/>
    </contour>
    <contour>
      <point x="199" y="20" type="curve" smooth="yes"/>
      <point x="165.0" y="20.0"/>
      <point x="134" y="27"/>
      <point x="114" y="38" type="curve"/>
      <point x="114" y="468" type="line"/>
      <point x="134" y="486"/>
      <point x="170" y="499"/>
      <point x="209" y="499" type="curve" smooth="yes"/>
      <point x="264" y="499"/>
      <point x="347" y="469"/>
      <point x="347" y="265" type="curve" smooth="yes"/>
      <point x="347.0" y="78.0"/>
      <point x="290.0" y="20.0"/>
    </contour>
  </outline>
</glyph>
<glyph name="c" format="2">
  <advance width="336"/>
  <unicode hex="0063"/>
  <anchor x="167" y="0" name="bottom"/>
  <anchor x="167" y="513" name="top"/>
  <outline>
    <contour>
      <point x="227" y="-10" type="curve" smooth="yes"/>
      <point x="258.71264367816093" y="-10.0"/>
      <point x="289.56512802001583" y="-2.2676135261441104"/>
      <point x="316" y="14" type="curve"/>
      <point x="309" y="40" type="line"/>
      <point x="282.4653266670025" y="26.732663333501243"/>
      <point x="255.66666666666669" y="20.0"/>
      <point x="229" y="20" type="curve" smooth="yes"/>
      <point x="139" y="20"/>
      <point x="87" y="106"/>
      <point x="87" y="256" type="curve" smooth="yes"/>
      <point x="87.0" y="417.0"/>
      <point x="133.6764705882353" y="498.0"/>
      <point x="225" y="498" type="curve" smooth="yes"/>
      <point x="254.0" y="498.0"/>
      <point x="283" y="492"/>
      <point x="304" y="483" type="curve"/>
      <point x="311" y="511" type="line"/>
      <point x="285.99606873331453" y="523.001887008009"/>
      <point x="257.0" y="529.0"/>
      <point x="224" y="529" type="curve" smooth="yes"/>
      <point x="113.70238095238095" y="529.0"/>
      <point x="54.0" y="433.0"/>
      <point x="54" y="256" type="curve" smooth="yes"/>
      <point x="54" y="88"/>
      <point x="118" y="-10"/>
    </contour>
  </outline>
</glyph>
<glyph name="e" format="2">
  <advance width="412"/>
  <unicode hex="0065"/>
  <anchor x="209" y="0" name="bottom"/>
  <anchor x="378" y="10" name="ogonek"/>
  <anchor x="209" y="517" name="top"/>
  <outline>
    <contour>
      <point x="237" y="-10" type="curve" smooth="yes"/>
      <point x="271" y="-10.0"/>
      <point x="305" y="-2"/>
      <point x="342" y="16" type="curve"/>
      <point x="336" y="43" type="line"/>
      <point x="307" y="28"/>
      <point x="272" y="20.0"/>
      <point x="240" y="20" type="curve" smooth="yes"/>
      <point x="135.36774193548388" y="20.0"/>
      <point x="87.0" y="108.875"/>
      <point x="87" y="257" type="curve"/>
      <point x="358" y="257" type="line"/>
      <point x="359" y="274"/>
      <point x="360.0" y="293.0"/>
      <point x="360" y="303" type="curve" smooth="yes"/>
      <point x="360.0" y="454.33039647577095"/>
      <point x="301.4041095890411" y="529.0"/>
      <point x="215" y="529" type="curve" smooth="yes"/>
      <point x="112.2760736196319" y="529.0"/>
      <point x="54.0" y="431.18181818181813"/>
      <point x="54" y="260" type="curve" smooth="yes"/>
      <point x="54.0" y="88.73134328358208"/>
      <point x="120.90322580645162" y="-10.0"/>
    </contour>
    <contour>
      <point x="87" y="285" type="line"/>
      <point x="87.0" y="412.7766990291262"/>
      <point x="133.27131782945736" y="499.0"/>
      <point x="214" y="499" type="curve" smooth="yes"/>
      <point x="289.3333333333333" y="499.0"/>
      <point x="331.9767195760831" y="427.3341798759768"/>
      <point x="327" y="285" type="curve"/>
    </contour>
  </outline>
</glyph>
<glyph name="f" format="2">
  <advance width="263"/>
  <unicode hex="0066"/>
  <anchor x="133" y="0" name="bottom"/>
  <anchor x="133" y="776" name="top"/>
  <outline>
    <contour>
      <point x="82" y="0" type="line"/>
      <point x="114" y="0" type="line"/>
      <point x="114" y="487" type="line"/>
      <point x="260" y="487" type="line"/>
      <point x="260" y="517" type="line"/>
      <point x="114" y="517" type="line"/>
      <point x="114" y="610" type="line" smooth="yes"/>
      <point x="114" y="703"/>
      <point x="145" y="747"/>
      <point x="211" y="747" type="curve" smooth="yes"/>
      <point x="231" y="747"/>
      <point x="255" y="743"/>
      <point x="270" y="736" type="curve"/>
      <point x="277" y="764" type="line"/>
      <point x="260" y="771"/>
      <point x="232" y="776"/>
      <point x="208" y="776" type="curve" smooth="yes"/>
      <point x="124" y="776"/>
      <point x="82" y="720"/>
      <point x="82" y="610" type="curve" smooth="yes"/>
    </contour>
  </outline>
</glyph>
<glyph name="g" format="2">
  <advance width="434"/>
  <unicode hex="0067"/>
  <anchor x="217" y="-185" name="bottom"/>
  <anchor x="217" y="517" name="top"/>
  <outline>
    <contour>
      <point x="187" y="-188.0" type="curve" smooth="yes"/>
      <point x="293" y="-188.0"/>
      <point x="352" y="-137.0"/>
      <point x="352" y="-8" type="curve" smooth="yes"/>
      <point x="352" y="501" type="line"/>
      <point x="313" y="519"/>
      <point x="280" y="529"/>
      <point x="235" y="529" type="curve" smooth="yes"/>
      <point x="99.0" y="529.0"/>
      <point x="54.0" y="426.0"/>
      <point x="54" y="272" type="curve" smooth="yes"/>
      <point x="54.0" y="90.0"/>
      <point x="133.0" y="25.0"/>
      <point x="225" y="25" type="curve" smooth="yes"/>
      <point x="265" y="25"/>
      <point x="300" y="39"/>
      <point x="320" y="54" type="curve"/>
      <point x="320" y="5" type="line" smooth="yes"/>
      <point x="320" y="-120"/>
      <point x="277" y="-158.0"/>
      <point x="187" y="-158" type="curve" smooth="yes"/>
      <point x="151" y="-158"/>
      <point x="118" y="-150"/>
      <point x="91" y="-134" type="curve"/>
      <point x="83" y="-162" type="line"/>
      <point x="113" y="-179"/>
      <point x="149" y="-188"/>
    </contour>
    <contour>
      <point x="225" y="55" type="curve" smooth="yes"/>
      <point x="170.0" y="55.0"/>
      <point x="87.0" y="83.0"/>
      <point x="87" y="272" type="curve" smooth="yes"/>
      <point x="87.0" y="446.0"/>
      <point x="144.0" y="499.0"/>
      <point x="235" y="499" type="curve" smooth="yes"/>
      <point x="269" y="499"/>
      <point x="300" y="492"/>
      <point x="320" y="481" type="curve"/>
      <point x="320" y="86" type="line"/>
      <point x="300" y="68"/>
      <point x="264" y="55"/>
    </contour>
  </outline>
</glyph>
<glyph name="h" format="2">
  <advance width="453"/>
  <unicode hex="0068"/>
  <anchor x="229" y="0" name="bottom"/>
  <anchor x="229" y="388" name="center"/>
  <anchor x="229" y="776" name="top"/>
  <outline>
    <contour>
      <point x="82" y="0" type="line"/>
      <point x="114" y="0" type="line"/>
      <point x="114" y="474" type="line"/>
      <point x="150" y="489"/>
      <point x="189.0" y="497.0"/>
      <point x="226" y="497" type="curve" smooth="yes"/>
      <point x="310" y="497"/>
      <point x="342" y="445"/>
      <point x="342" y="320" type="curve" smooth="yes"/>
      <point x="342" y="0" type="line"/>
      <point x="374" y="0" type="line"/>
      <point x="374" y="327" type="line" smooth="yes"/>
      <point x="374" y="459"/>
      <point x="334" y="527"/>
      <point x="234" y="527" type="curve" smooth="yes"/>
      <point x="191.0" y="527.0"/>
      <point x="150" y="517"/>
      <point x="114" y="504" type="curve"/>
      <point x="114" y="776" type="line"/>
      <point x="82" y="768" type="line"/>
    </contour>
  </outline>
</glyph>
<glyph name="i" format="2">
  <advance width="196"/>
  <unicode hex="0069"/>
  <anchor x="97" y="0" name="bottom"/>
  <outline>
    <contour>
      <point x="82" y="0" type="line"/>
      <point x="114" y="0" type="line"/>
      <point x="114" y="517" type="line"/>
      <point x="82" y="517" type="line"/>
    </contour>
    <contour>
      <point x="99" y="638" type="curve" smooth="yes"/>
      <point x="116" y="638"/>
      <point x="128" y="651"/>
      <point x="128" y="668" type="curve" smooth="yes"/>
      <point x="128" y="685"/>
      <point x="116" y="698"/>
      <point x="99" y="698" type="curve" smooth="yes"/>
      <point x="81" y="698"/>
      <point x="69" y="685"/>
      <point x="69" y="668" type="curve" smooth="yes"/>
      <point x="69" y="651"/>
      <point x="81" y="638"/>
    </contour>
  </outline>
</glyph>
<glyph name="j" format="2">
  <advance width="213.525"/>
  <unicode hex="006A"/>
  <outline>
    <contour>
      <point x="15" y="-188" type="curve" smooth="yes"/>
      <point x="101" y="-188"/>
      <point x="124" y="-105"/>
      <point x="124" y="-38" type="curve" smooth="yes"/>
      <point x="124" y="518" type="line"/>
      <point x="90" y="518" type="line"/>
      <point x="90" y="-28" type="line" smooth="yes"/>
      <point x="90" y="-95"/>
      <point x="76" y="-152"/>
      <point x="8" y="-152" type="curve" smooth="yes"/>
      <point x="0" y="-152"/>
      <point x="-17" y="-150"/>
      <point x="-29" y="-147" type="curve"/>
      <point x="-34" y="-181" type="line"/>
      <point x="-19" y="-187"/>
      <point x="-3" y="-188"/>
    </contour>
    <contour>
      <point x="108" y="640" type="curve" smooth="yes"/>
      <point x="125" y="640"/>
      <point x="137" y="653"/>
      <point x="137" y="670" type="curve" smooth="yes"/>
      <point x="137" y="687"/>
      <point x="125" y="700"/>
      <point x="108" y="700" type="curve" smooth="yes"/>
      <point x="90" y="700"/>
      <point x="78" y="687"/>
      <point x="78" y="670" type="curve" smooth="yes"/>
      <point x="78" y="653"/>
      <point x="90" y="640"/>
    </contour>
  </outline>
</glyph>
<glyph name="k" format="2">
  <advance width="355"/>
  <unicode hex="006B"/>
  <anchor x="184" y="0" name="bottom"/>
  <anchor x="184" y="776" name="top"/>
  <outline>
    <contour>
      <point x="82" y="0" type="line"/>
      <point x="114" y="0" type="line"/>
      <point x="114" y="265" type="line"/>
      <point x="196" y="198"/>
      <point x="264" y="97"/>
      <point x="315" y="0" type="curve"/>
      <point x="351" y="0" type="line"/>
      <point x="304" y="95"/>
      <point x="227" y="208"/>
      <point x="147" y="278" type="curve"/>
      <point x="211" y="347"/>
      <point x="267" y="421"/>
      <point x="328" y="517" type="curve"/>
      <point x="293" y="517" type="line"/>
      <point x="241" y="436"/>
      <point x="183" y="360"/>
      <point x="114" y="284" type="curve"/>
      <point x="114" y="776" type="line"/>
      <point x="82" y="768" type="line"/>
    </contour>
  </outline>
</glyph>
<glyph name="l" format="2">
  <advance width="202"/>
  <unicode hex="006C"/>
  <anchor x="96" y="0" name="bottom"/>
  <anchor x="96" y="388" name="center"/>
  <anchor x="96" y="776" name="top"/>
  <anchor x="177" y="776" name="topright"/>
  <outline>
    <contour>
      <point x="171" y="-2" type="curve"/>
      <point x="175" y="26" type="line"/>
      <point x="132" y="36"/>
      <point x="112" y="64"/>
      <point x="112" y="117" type="curve" smooth="yes"/>
      <point x="112" y="776" type="line"/>
      <point x="80" y="768" type="line"/>
      <point x="80" y="118" type="line" smooth="yes"/>
      <point x="80" y="49"/>
      <point x="112" y="7"/>
    </contour>
  </outline>
</glyph>
<glyph name="m" format="2">
  <advance width="653"/>
  <unicode hex="006D"/>
  <anchor x="327" y="0" name="bottom"/>
  <anchor x="327" y="517" name="top"/>
  <outline>
    <contour>
      <point x="82" y="0" type="line"/>
      <point x="114" y="0" type="line"/>
      <point x="114" y="477" type="line"/>
      <point x="142" y="489"/>
      <point x="177" y="497"/>
      <point x="204" y="497" type="curve" smooth="yes"/>
      <point x="282" y="497"/>
      <point x="312" y="455.11"/>
      <point x="312" y="346" type="curve" smooth="yes"/>
      <point x="312" y="0" type="line"/>
      <point x="344" y="0" type="line"/>
      <point x="344" y="353" type="line" smooth="yes"/>
      <point x="344" y="394.362"/>
      <point x="340" y="425"/>
      <point x="329" y="454" type="curve"/>
      <point x="355.002" y="481.002"/>
      <point x="393" y="497"/>
      <point x="434" y="497" type="curve" smooth="yes"/>
      <point x="512" y="497"/>
      <point x="542" y="455.11"/>
      <point x="542" y="346" type="curve" smooth="yes"/>
      <point x="542" y="0" type="line"/>
      <point x="574" y="0" type="line"/>
      <point x="574" y="353" type="line" smooth="yes"/>
      <point x="574" y="473.236"/>
      <point x="535" y="527"/>
      <point x="436" y="527" type="curve" smooth="yes"/>
      <point x="392.645" y="527"/>
      <point x="350.181" y="510.146"/>
      <point x="314" y="481" type="curve"/>
      <point x="292.067" y="511.905"/>
      <point x="256.532" y="527"/>
      <point x="206" y="527" type="curve" smooth="yes"/>
      <point x="162" y="527"/>
      <point x="121" y="513"/>
      <point x="82" y="498" type="curve"/>
    </contour>
  </outline>
</glyph>
<glyph name="n" format="2">
  <advance width="453"/>
  <unicode hex="006E"/>
  <anchor x="227" y="0" name="bottom"/>
  <anchor x="227" y="517" name="top"/>
  <outline>
    <contour>
      <point x="82" y="0" type="line"/>
      <point x="114" y="0" type="line"/>
      <point x="114" y="477" type="line"/>
      <point x="146" y="491"/>
      <point x="187" y="497"/>
      <point x="219" y="497" type="curve" smooth="yes"/>
      <point x="308.175" y="497"/>
      <point x="342" y="447.559"/>
      <point x="342" y="320" type="curve" smooth="yes"/>
      <point x="342" y="0" type="line"/>
      <point x="374" y="0" type="line"/>
      <point x="374" y="327" type="line" smooth="yes"/>
      <point x="374" y="465.235"/>
      <point x="331" y="527"/>
      <point x="221" y="527" type="curve" smooth="yes"/>
      <point x="172" y="527"/>
      <point x="125" y="515"/>
      <point x="82" y="498" type="curve"/>
    </contour>
  </outline>
</glyph>
<glyph name="o" format="2">
  <advance width="440"/>
  <unicode hex="006F"/>
  <anchor x="220" y="0" name="bottom"/>
  <anchor x="220" y="257" name="center"/>
  <anchor x="400" y="10" name="ogonek"/>
  <anchor x="220" y="517" name="top"/>
  <anchor x="425" y="517" name="topright"/>
  <outline>
    <contour>
      <point x="220" y="-10" type="curve" smooth="yes"/>
      <point x="325" y="-10"/>
      <point x="386" y="88.269"/>
      <point x="386" y="259" type="curve" smooth="yes"/>
      <point x="386" y="430.365"/>
      <point x="325" y="529"/>
      <point x="220" y="529" type="curve" smooth="yes"/>
      <point x="115" y="529"/>
      <point x="54" y="430.365"/>
      <point x="54" y="259" type="curve" smooth="yes"/>
      <point x="54" y="88.269"/>
      <point x="115" y="-10"/>
    </contour>
    <contour>
      <point x="220" y="20" type="curve" smooth="yes"/>
      <point x="137" y="20"/>
      <point x="87" y="108.261"/>
      <point x="87" y="259" type="curve" smooth="yes"/>
      <point x="87" y="410.369"/>
      <point x="137" y="499"/>
      <point x="220" y="499" type="curve" smooth="yes"/>
      <point x="303" y="499"/>
      <point x="353" y="410.369"/>
      <point x="353" y="259" type="curve" smooth="yes"/>
      <point x="353" y="108.261"/>
      <point x="303" y="20"/>
    </contour>
  </outline>
</glyph>
<glyph name="p" format="2">
  <advance width="434"/>
  <unicode hex="0070"/>
  <anchor x="219" y="0" name="bottom"/>
  <anchor x="219" y="517" name="top"/>
  <outline>
    <contour>
      <point x="82" y="-185" type="line"/>
      <point x="114" y="-185" type="line"/>
      <point x="114" y="19" type="line"/>
      <point x="134" y="4"/>
      <point x="169" y="-10"/>
      <point x="209" y="-10" type="curve" smooth="yes"/>
      <point x="301" y="-10"/>
      <point x="380" y="60"/>
      <point x="380" y="254" type="curve" smooth="yes"/>
      <point x="380" y="419.201"/>
      <point x="334.503" y="529"/>
      <point x="199" y="529" type="curve" smooth="yes"/>
      <point x="154" y="529"/>
      <point x="121" y="519"/>
      <point x="82" y="501" type="curve"/>
    </contour>
    <contour>
      <point x="209" y="20" type="curve" smooth="yes"/>
      <point x="170" y="20"/>
      <point x="134" y="33"/>
      <point x="114" y="51" type="curve"/>
      <point x="114" y="481" type="line"/>
      <point x="134" y="492"/>
      <point x="165" y="499"/>
      <point x="199" y="499" type="curve" smooth="yes"/>
      <point x="289.773" y="499"/>
      <point x="347" y="441"/>
      <point x="347" y="254" type="curve" smooth="yes"/>
      <point x="347" y="50"/>
      <point x="264" y="20"/>
    </contour>
  </outline>
</glyph>
<glyph name="q" format="2">
  <advance width="434"/>
  <unicode hex="0071"/>
  <anchor x="215" y="0" name="bottom"/>
  <anchor x="215" y="517" name="top"/>
  <outline>
    <contour>
      <point x="320" y="-185" type="line"/>
      <point x="352" y="-185" type="line"/>
      <point x="352" y="501" type="line"/>
      <point x="313" y="519"/>
      <point x="280" y="529"/>
      <point x="235" y="529" type="curve" smooth="yes"/>
      <point x="99" y="529"/>
      <point x="54" y="419"/>
      <point x="54" y="254" type="curve" smooth="yes"/>
      <point x="54" y="60"/>
      <point x="133" y="-10"/>
      <point x="225" y="-10" type="curve" smooth="yes"/>
      <point x="265" y="-10"/>
      <point x="300" y="4"/>
      <point x="320" y="19" type="curve"/>
    </contour>
    <contour>
      <point x="225" y="20" type="curve" smooth="yes"/>
      <point x="170" y="20"/>
      <point x="87" y="50"/>
      <point x="87" y="254" type="curve" smooth="yes"/>
      <point x="87" y="441"/>
      <point x="144" y="499"/>
      <point x="235" y="499" type="curve" smooth="yes"/>
      <point x="269" y="499"/>
      <point x="300" y="492"/>
      <point x="320" y="481" type="curve"/>
      <point x="320" y="51" type="line"/>
      <point x="300" y="33"/>
      <point x="264" y="20"/>
    </contour>
  </outline>
</glyph>
<glyph name="r" format="2">
  <advance width="287"/>
  <unicode hex="0072"/>
  <anchor x="98" y="0" name="bottom"/>
  <anchor x="183" y="517" name="top"/>
  <outline>
    <contour>
      <point x="82" y="0" type="line"/>
      <point x="114" y="0" type="line"/>
      <point x="114" y="477" type="line"/>
      <point x="141" y="490"/>
      <point x="171" y="497"/>
      <point x="205" y="497" type="curve" smooth="yes"/>
      <point x="232" y="497"/>
      <point x="255" y="494"/>
      <point x="274" y="488" type="curve"/>
      <point x="279" y="517" type="line"/>
      <point x="260" y="524"/>
      <point x="236" y="527"/>
      <point x="207" y="527" type="curve" smooth="yes"/>
      <point x="165" y="527"/>
      <point x="123" y="516"/>
      <point x="82" y="495" type="curve"/>
    </contour>
  </outline>
</glyph>
<glyph name="s" format="2">
  <advance width="316"/>
  <unicode hex="0073"/>
  <anchor x="156" y="0" name="bottom"/>
  <anchor x="156" y="517" name="top"/>
  <outline>
    <contour>
      <point x="142" y="-10" type="curve" smooth="yes"/>
      <point x="223.194" y="-10"/>
      <point x="278" y="52"/>
      <point x="278" y="130" type="curve" smooth="yes"/>
      <point x="278" y="196"/>
      <point x="249.239" y="236.867"/>
      <point x="175" y="278" type="curve" smooth="yes"/>
      <point x="111.757" y="313.135"/>
      <point x="83" y="349"/>
      <point x="83" y="403" type="curve" smooth="yes"/>
      <point x="83" y="464"/>
      <point x="116" y="499"/>
      <point x="172" y="499" type="curve" smooth="yes"/>
      <point x="198" y="499"/>
      <point x="231.997" y="492.001"/>
      <point x="258" y="482" type="curve"/>
      <point x="262" y="512" type="line"/>
      <point x="236.242" y="522.898"/>
      <point x="201.678" y="529"/>
      <point x="173" y="529" type="curve" smooth="yes"/>
      <point x="97.385" y="529"/>
      <point x="50" y="476"/>
      <point x="50" y="401" type="curve" smooth="yes"/>
      <point x="50" y="340"/>
      <point x="83.645" y="292.197"/>
      <point x="158" y="251" type="curve" smooth="yes"/>
      <point x="230.278" y="210.846"/>
      <point x="245" y="179"/>
      <point x="245" y="126" type="curve" smooth="yes"/>
      <point x="245" y="66"/>
      <point x="201.14" y="20"/>
      <point x="143" y="20" type="curve" smooth="yes"/>
      <point x="110.629" y="20"/>
      <point x="71.478" y="29.212"/>
      <point x="40" y="42" type="curve"/>
      <point x="34" y="12" type="line"/>
      <point x="66.492" y="-1.785"/>
      <point x="105.673" y="-10"/>
    </contour>
  </outline>
</glyph>
<glyph name="t" format="2">
  <advance width="276"/>
  <unicode hex="0074"/>
  <anchor x="191" y="0" name="bottom"/>
  <anchor x="146" y="257" name="center"/>
  <anchor x="146" y="517" name="top"/>
  <anchor x="271" y="776" name="topright"/>
  <outline>
    <contour>
      <point x="201" y="-3" type="curve" smooth="yes"/>
      <point x="225.045" y="-3"/>
      <point x="248.748" y="0.88"/>
      <point x="270" y="11" type="curve"/>
      <point x="265" y="38" type="line"/>
      <point x="243" y="30"/>
      <point x="223" y="27"/>
      <point x="203" y="27" type="curve" smooth="yes"/>
      <point x="142" y="27"/>
      <point x="112" y="62"/>
      <point x="112" y="137" type="curve" smooth="yes"/>
      <point x="112" y="487" type="line"/>
      <point x="251" y="487" type="line"/>
      <point x="251" y="517" type="line"/>
      <point x="112" y="517" type="line"/>
      <point x="112" y="681" type="line"/>
      <point x="80" y="673" type="line"/>
      <point x="80" y="137" type="line" smooth="yes"/>
      <point x="80" y="28"/>
      <point x="136.073" y="-3"/>
    </contour>
  </outline>
</glyph>
<glyph name="u" format="2">
  <advance width="453.2"/>
  <unicode hex="0075"/>
  <anchor x="227" y="0" name="bottom"/>
  <anchor x="409" y="10" name="ogonek"/>
  <anchor x="227" y="513" name="top"/>
  <anchor x="433" y="513" name="topright"/>
  <outline>
    <contour>
      <point x="256" y="-4" type="curve" smooth="yes"/>
      <point x="250" y="-4"/>
      <point x="321" y="3"/>
      <point x="370" y="25" type="curve"/>
      <point x="370" y="525" type="line"/>
      <point x="335" y="525" type="line"/>
      <point x="335" y="43" type="line"/>
      <point x="274" y="27"/>
      <point x="240" y="26"/>
      <point x="239" y="26" type="curve" smooth="yes"/>
      <point x="146" y="26"/>
      <point x="112" y="69"/>
      <point x="112" y="178" type="curve" smooth="yes"/>
      <point x="112" y="525" type="line"/>
      <point x="78" y="525" type="line"/>
      <point x="78" y="209" type="line" smooth="yes"/>
      <point x="78" y="-17"/>
      <point x="159" y="-4"/>
    </contour>
  </outline>
</glyph>
<glyph name="v" format="2">
  <advance width="362"/>
  <unicode hex="0076"/>
  <anchor x="180" y="0" name="bottom"/>
  <anchor x="180" y="513" name="top"/>
  <outline>
    <contour>
      <point x="164" y="0" type="curve"/>
      <point x="198" y="0" type="line"/>
      <point x="250" y="106"/>
      <point x="315" y="343"/>
      <point x="340" y="517" type="curve"/>
      <point x="310" y="517" type="line"/>
      <point x="281" y="347"/>
      <point x="238" y="176"/>
      <point x="182" y="29" type="curve"/>
      <point x="125" y="173"/>
      <point x="82" y="347"/>
      <point x="55" y="517" type="curve"/>
      <point x="22" y="517" type="line"/>
      <point x="47" y="343"/>
      <point x="112" y="106"/>
    </contour>
  </outline>
</glyph>
<glyph name="w" format="2">
  <advance width="565"/>
  <unicode hex="0077"/>
  <anchor x="282" y="0" name="bottom"/>
  <anchor x="287" y="517" name="top"/>
  <outline>
    <contour>
      <point x="148" y="0" type="curve"/>
      <point x="186" y="0" type="line"/>
      <point x="228" y="121"/>
      <point x="268" y="278"/>
      <point x="286" y="420" type="curve"/>
      <point x="306" y="278"/>
      <point x="339" y="121"/>
      <point x="379" y="0" type="curve"/>
      <point x="415" y="0" type="line"/>
      <point x="476" y="185"/>
      <point x="517" y="342"/>
      <point x="538" y="517" type="curve"/>
      <point x="508" y="517" type="line"/>
      <point x="494" y="399"/>
      <point x="459" y="229"/>
      <point x="396" y="34" type="curve"/>
      <point x="338" y="223"/>
      <point x="315" y="391"/>
      <point x="301" y="517" type="curve"/>
      <point x="272" y="517" type="line"/>
      <point x="260" y="391"/>
      <point x="229" y="223"/>
      <point x="167" y="36" type="curve"/>
      <point x="103" y="231"/>
      <point x="72" y="399"/>
      <point x="57" y="517" type="curve"/>
      <point x="25" y="517" type="line"/>
      <point x="48" y="342"/>
      <point x="86" y="187"/>
    </contour>
  </outline>
</glyph>
<glyph name="x" format="2">
  <advance width="355.15"/>
  <unicode hex="0078"/>
  <anchor x="178" y="0" name="bottom"/>
  <anchor x="178" y="513" name="top"/>
  <outline>
    <contour>
      <point x="27" y="0" type="curve"/>
      <point x="55" y="0" type="line"/>
      <point x="98" y="102"/>
      <point x="147" y="203"/>
      <point x="171" y="246" type="curve"/>
      <point x="210" y="185"/>
      <point x="246" y="119"/>
      <point x="299" y="0" type="curve"/>
      <point x="328" y="0" type="line"/>
      <point x="311" y="47"/>
      <point x="263" y="159"/>
      <point x="186" y="283" type="curve"/>
      <point x="315" y="518" type="line"/>
      <point x="288" y="518" type="line"/>
      <point x="177" y="322" type="line"/>
      <point x="62" y="518" type="line"/>
      <point x="38" y="518" type="line"/>
      <point x="166" y="284" type="line"/>
      <point x="112" y="196"/>
      <point x="58" y="84"/>
    </contour>
  </outline>
</glyph>
<glyph name="y" format="2">
  <advance width="362"/>
  <unicode hex="0079"/>
  <anchor x="181" y="0" name="bottom"/>
  <anchor x="181" y="517" name="top"/>
  <outline>
    <contour>
      <point x="48" y="-188" type="curve" smooth="yes"/>
      <point x="101" y="-188"/>
      <point x="151" y="-127"/>
      <point x="205" y="8" type="curve" smooth="yes"/>
      <point x="263" y="153"/>
      <point x="311" y="332"/>
      <point x="340" y="517" type="curve"/>
      <point x="310" y="517" type="line"/>
      <point x="284" y="355"/>
      <point x="234" y="162"/>
      <point x="182" y="29" type="curve"/>
      <point x="133" y="144"/>
      <point x="78" y="355"/>
      <point x="55" y="517" type="curve"/>
      <point x="22" y="517" type="line"/>
      <point x="56" y="320"/>
      <point x="95" y="155"/>
      <point x="167" y="-10" type="curve"/>
      <point x="115" y="-123"/>
      <point x="79" y="-158"/>
      <point x="44" y="-158" type="curve" smooth="yes"/>
      <point x="33" y="-158"/>
      <point x="21" y="-156"/>
      <point x="10" y="-152" type="curve"/>
      <point x="4" y="-180" type="line"/>
      <point x="16" y="-185"/>
      <point x="30" y="-188"/>
    </contour>
  </outline>
</glyph>
<glyph name="z" format="2">
  <advance width="325.85"/>
  <unicode hex="007A"/>
  <anchor x="163" y="0" name="bottom"/>
  <anchor x="163" y="257" name="center"/>
  <anchor x="163" y="513" name="top"/>
  <outline>
    <contour>
      <point x="40" y="0" type="line"/>
      <point x="289" y="0" type="line"/>
      <point x="289" y="32" type="line"/>
      <point x="67" y="32" type="line"/>
      <point x="99" y="144"/>
      <point x="207" y="372"/>
      <point x="284" y="496" type="curve"/>
      <point x="284" y="518" type="line"/>
      <point x="53" y="518" type="line"/>
      <point x="53" y="486" type="line"/>
      <point x="249" y="486" type="line"/>
      <point x="187" y="383"/>
      <point x="83" y="161"/>
      <point x="40" y="30" type="curve"/>
    </contour>
  </outline>
</glyph>
<glyph name="braceleft" format="2">
  <advance width="235"/>
  <unicode hex="007B"/>
  <outline>
    <contour>
      <point x="217" y="-185" type="curve" smooth="yes"/>
      <point x="229" y="-185" type="line"/>
      <point x="229" y="-156" type="line"/>
      <point x="217" y="-156" type="line" smooth="yes"/>
      <point x="173" y="-156"/>
      <point x="141" y="-133"/>
      <point x="141" y="-46" type="curve" smooth="yes"/>
      <point x="141" y="162" type="line" smooth="yes"/>
      <point x="141" y="237"/>
      <point x="119" y="280"/>
      <point x="77" y="298" type="curve"/>
      <point x="118" y="315"/>
      <point x="141" y="358"/>
      <point x="141" y="435" type="curve" smooth="yes"/>
      <point x="141" y="644" type="line" smooth="yes"/>
      <point x="141" y="731"/>
      <point x="173" y="754"/>
      <point x="217" y="754" type="curve" smooth="yes"/>
      <point x="229" y="754" type="line"/>
      <point x="229" y="783" type="line"/>
      <point x="217" y="783" type="line" smooth="yes"/>
      <point x="153" y="783"/>
      <point x="110.0" y="747.0"/>
      <point x="110" y="644" type="curve" smooth="yes"/>
      <point x="110" y="437" type="line" smooth="yes"/>
      <point x="110" y="359"/>
      <point x="84" y="318"/>
      <point x="38" y="313" type="curve"/>
      <point x="38" y="284" type="line"/>
      <point x="84" y="279"/>
      <point x="110" y="238"/>
      <point x="110" y="160" type="curve" smooth="yes"/>
      <point x="110" y="-46" type="line" smooth="yes"/>
      <point x="110.0" y="-149.0"/>
      <point x="153" y="-185"/>
    </contour>
  </outline>
</glyph>
<glyph name="bar" format="2">
  <advance width="234"/>
  <unicode hex="007C"/>
  <outline>
    <contour>
      <point x="100" y="-185" type="line"/>
      <point x="134" y="-185" type="line"/>
      <point x="134" y="783" type="line"/>
      <point x="100" y="783" type="line"/>
    </contour>
  </outline>
</glyph>
<glyph name="braceright" format="2">
  <advance width="235"/>
  <unicode hex="007D"/>
  <outline>
    <contour>
      <point x="6" y="-185" type="line"/>
      <point x="18" y="-185" type="line" smooth="yes"/>
      <point x="82" y="-185"/>
      <point x="125.0" y="-149.0"/>
      <point x="125" y="-46" type="curve" smooth="yes"/>
      <point x="125" y="161" type="line" smooth="yes"/>
      <point x="125" y="239"/>
      <point x="151" y="280"/>
      <point x="197" y="285" type="curve"/>
      <point x="197" y="314" type="line"/>
      <point x="151" y="319"/>
      <point x="125" y="360"/>
      <point x="125" y="438" type="curve" smooth="yes"/>
      <point x="125" y="644" type="line" smooth="yes"/>
      <point x="125.0" y="747.0"/>
      <point x="82" y="783"/>
      <point x="18" y="783" type="curve" smooth="yes"/>
      <point x="6" y="783" type="line"/>
      <point x="6" y="754" type="line"/>
      <point x="18" y="754" type="line" smooth="yes"/>
      <point x="62" y="754"/>
      <point x="94" y="731"/>
      <point x="94" y="644" type="curve" smooth="yes"/>
      <point x="94" y="436" type="line" smooth="yes"/>
      <point x="94" y="361"/>
      <point x="116" y="318"/>
      <point x="158" y="300" type="curve"/>
      <point x="117" y="283"/>
      <point x="94" y="240"/>
      <point x="94" y="163" type="curve" smooth="yes"/>
      <point x="94" y="-46" type="line" smooth="yes"/>
      <point x="94" y="-133"/>
      <point x="62" y="-156"/>
      <point x="18" y="-156" type="curve" smooth="yes"/>
      <point x="6" y="-156" type="line"/>
    </contour>
  </outline>
</glyph>
<glyph name="asciitilde" format="2">
  <advance width="430"/>
  <unicode hex="007E"/>
  <outline>
    <contour>
      <point x="297" y="238" type="curve" smooth="yes"/>
      <point x="336" y="238"/>
      <point x="377" y="261"/>
      <point x="389" y="347" type="curve"/>
      <point x="359" y="355" type="line"/>
      <point x="350" y="279"/>
      <point x="312" y="272"/>
      <point x="295" y="272" type="curve" smooth="yes"/>
      <point x="244" y="272"/>
      <point x="202" y="358"/>
      <point x="132" y="358" type="curve" smooth="yes"/>
      <point x="93" y="358"/>
      <point x="52" y="335"/>
      <point x="40" y="249" type="curve"/>
      <point x="70" y="241" type="line"/>
      <point x="79" y="317"/>
      <point x="117" y="324"/>
      <point x="134" y="324" type="curve" smooth="yes"/>
      <point x="184" y="324"/>
      <point x="228" y="238"/>
    </contour>
  </outline>
</glyph>
<glyph name="exclamdown" format="2">
  <advance width="239"/>
  <unicode hex="00A1"/>
  <outline>
    <contour>
      <point x="108" y="-174" type="line"/>
      <point x="144" y="-174" type="line"/>
      <point x="144" y="24" type="line" smooth="yes"/>
      <point x="144" y="130"/>
      <point x="143" y="228"/>
      <point x="139" y="336" type="curve"/>
      <point x="113" y="336" type="line"/>
      <point x="108" y="228"/>
      <point x="108" y="130"/>
      <point x="108" y="24" type="curve" smooth="yes"/>
    </contour>
    <contour>
      <point x="128" y="465" type="curve" smooth="yes"/>
      <point x="144" y="465"/>
      <point x="156" y="477"/>
      <point x="156" y="494" type="curve" smooth="yes"/>
      <point x="156" y="510"/>
      <point x="144" y="524"/>
      <point x="128" y="524" type="curve" smooth="yes"/>
      <point x="114" y="524"/>
      <point x="101" y="510"/>
      <point x="101" y="494" type="curve" smooth="yes"/>
      <point x="101" y="477"/>
      <point x="114" y="465"/>
    </contour>
  </outline>
</glyph>
<glyph name="cent" format="2">
  <advance width="430"/>
  <unicode hex="00A2"/>
  <outline>
    <contour>
      <point x="234" y="-100" type="line"/>
      <point x="267" y="-100" type="line"/>
      <point x="267" y="31" type="line"/>
      <point x="295" y="31"/>
      <point x="329" y="37"/>
      <point x="357" y="54" type="curve"/>
      <point x="350" y="80" type="line"/>
      <point x="322" y="66"/>
      <point x="292" y="61"/>
      <point x="264" y="61" type="curve" smooth="yes"/>
      <point x="175" y="61"/>
      <point x="122" y="143"/>
      <point x="122" y="286" type="curve" smooth="yes"/>
      <point x="122" y="440"/>
      <point x="171" y="518"/>
      <point x="264" y="518" type="curve" smooth="yes"/>
      <point x="293" y="518"/>
      <point x="323" y="512"/>
      <point x="345" y="503" type="curve"/>
      <point x="352" y="531" type="line"/>
      <point x="327" y="543"/>
      <point x="298" y="549"/>
      <point x="267" y="549" type="curve"/>
      <point x="267" y="685" type="line"/>
      <point x="234" y="685" type="line"/>
      <point x="234" y="547" type="line"/>
      <point x="140" y="532"/>
      <point x="89" y="442"/>
      <point x="89" y="286" type="curve" smooth="yes"/>
      <point x="89" y="139"/>
      <point x="141" y="48"/>
      <point x="234" y="33" type="curve"/>
    </contour>
  </outline>
</glyph>
<glyph name="sterling" format="2">
  <advance width="412"/>
  <unicode hex="00A3"/>
  <outline>
    <contour>
      <point x="81" y="0" type="curve"/>
      <point x="378" y="0" type="line"/>
      <point x="378" y="32" type="line"/>
      <point x="121" y="32" type="line"/>
      <point x="136" y="124"/>
      <point x="140" y="243"/>
      <point x="140" y="313" type="curve" smooth="yes"/>
      <point x="140" y="322" type="line"/>
      <point x="314" y="322" type="line"/>
      <point x="314" y="354" type="line"/>
      <point x="140" y="354" type="line"/>
      <point x="140" y="505" type="line" smooth="yes"/>
      <point x="140" y="632.0"/>
      <point x="189" y="671"/>
      <point x="255" y="671" type="curve" smooth="yes"/>
      <point x="291" y="671"/>
      <point x="326" y="661"/>
      <point x="349" y="650" type="curve"/>
      <point x="359" y="680" type="line"/>
      <point x="334" y="692"/>
      <point x="299" y="703"/>
      <point x="256" y="703" type="curve" smooth="yes"/>
      <point x="180" y="703"/>
      <point x="105" y="662.0"/>
      <point x="105" y="505" type="curve" smooth="yes"/>
      <point x="105" y="354" type="line"/>
      <point x="29" y="354" type="line"/>
      <point x="29" y="322" type="line"/>
      <point x="105" y="322" type="line"/>
      <point x="105" y="314" type="line" smooth="yes"/>
      <point x="105" y="186"/>
      <point x="94" y="88"/>
    </contour>
  </outline>
</glyph>
<glyph name="currency" format="2">
  <advance width="430"/>
  <unicode hex="00A4"/>
  <outline>
    <contour>
      <point x="76" y="121" type="line"/>
      <point x="128" y="196" type="line"/>
      <point x="152" y="174"/>
      <point x="182" y="162"/>
      <point x="216" y="162" type="curve" smooth="yes"/>
      <point x="249" y="162"/>
      <point x="279" y="173"/>
      <point x="303" y="195" type="curve"/>
      <point x="354" y="121" type="line"/>
      <point x="380" y="140" type="line"/>
      <point x="325" y="220" type="line"/>
      <point x="346" y="251"/>
      <point x="358" y="294"/>
      <point x="358" y="347" type="curve" smooth="yes"/>
      <point x="358" y="401"/>
      <point x="345" y="445"/>
      <point x="323" y="476" type="curve"/>
      <point x="380" y="558" type="line"/>
      <point x="354" y="577" type="line"/>
      <point x="301" y="501" type="line"/>
      <point x="278" y="521"/>
      <point x="249" y="532"/>
      <point x="216" y="532" type="curve" smooth="yes"/>
      <point x="183" y="532"/>
      <point x="153" y="521"/>
      <point x="130" y="500" type="curve"/>
      <point x="76" y="577" type="line"/>
      <point x="50" y="558" type="line"/>
      <point x="108" y="475" type="line"/>
      <point x="86" y="444"/>
      <point x="74" y="400"/>
      <point x="74" y="347" type="curve" smooth="yes"/>
      <point x="74" y="295"/>
      <point x="86" y="252"/>
      <point x="107" y="221" type="curve"/>
      <point x="50" y="140" type="line"/>
    </contour>
    <contour>
      <point x="216" y="194" type="curve" smooth="yes"/>
      <point x="154" y="194"/>
      <point x="108" y="244"/>
      <point x="108" y="347" type="curve" smooth="yes"/>
      <point x="108" y="452"/>
      <point x="154" y="500"/>
      <point x="216" y="500" type="curve" smooth="yes"/>
      <point x="278" y="500"/>
      <point x="324" y="452"/>
      <point x="324" y="347" type="curve" smooth="yes"/>
      <point x="324" y="244"/>
      <point x="278" y="194"/>
    </contour>
  </outline>
</glyph>
<glyph name="yen" format="2">
  <advance width="430"/>
  <unicode hex="00A5"/>
  <outline>
    <contour>
      <point x="193" y="0" type="line"/>
      <point x="232" y="0" type="line"/>
      <point x="232" y="136" type="line"/>
      <point x="354" y="136" type="line"/>
      <point x="354" y="167" type="line"/>
      <point x="232" y="167" type="line"/>
      <point x="232" y="298" type="line"/>
      <point x="354" y="298" type="line"/>
      <point x="354" y="329" type="line"/>
      <point x="243" y="329" type="line"/>
      <point x="320" y="475"/>
      <point x="369" y="590"/>
      <point x="397" y="693" type="curve"/>
      <point x="362" y="693" type="line"/>
      <point x="325" y="572"/>
      <point x="268" y="442"/>
      <point x="214" y="342" type="curve"/>
      <point x="159" y="443"/>
      <point x="107" y="578"/>
      <point x="69" y="693" type="curve"/>
      <point x="32" y="693" type="line"/>
      <point x="86" y="556"/>
      <point x="114" y="463"/>
      <point x="183" y="329" type="curve"/>
      <point x="72" y="329" type="line"/>
      <point x="72" y="298" type="line"/>
      <point x="193" y="298" type="line"/>
      <point x="193" y="167" type="line"/>
      <point x="72" y="167" type="line"/>
      <point x="72" y="136" type="line"/>
      <point x="193" y="136" type="line"/>
    </contour>
  </outline>
</glyph>
<glyph name="brokenbar" format="2">
  <advance width="234"/>
  <unicode hex="00A6"/>
  <outline>
    <contour>
      <point x="100" y="412" type="line"/>
      <point x="134" y="412" type="line"/>
      <point x="134" y="783" type="line"/>
      <point x="100" y="783" type="line"/>
    </contour>
    <contour>
      <point x="100" y="-185" type="line"/>
      <point x="134" y="-185" type="line"/>
      <point x="134" y="183" type="line"/>
      <point x="100" y="183" type="line"/>
    </contour>
  </outline>
</glyph>
<glyph name="section" format="2">
  <advance width="382"/>
  <unicode hex="00A7"/>
  <outline>
    <contour>
      <point x="165" y="-108" type="curve" smooth="yes"/>
      <point x="256" y="-108"/>
      <point x="313" y="-55"/>
      <point x="313" y="21" type="curve" smooth="yes"/>
      <point x="313" y="70"/>
      <point x="286" y="110"/>
      <point x="230" y="147" type="curve"/>
      <point x="296" y="166"/>
      <point x="338" y="228"/>
      <point x="338" y="303" type="curve" smooth="yes"/>
      <point x="338" y="368"/>
      <point x="307" y="408"/>
      <point x="223" y="451" type="curve" smooth="yes"/>
      <point x="150" y="488"/>
      <point x="114" y="522"/>
      <point x="114" y="576" type="curve" smooth="yes"/>
      <point x="114" y="637"/>
      <point x="155" y="671"/>
      <point x="222" y="671" type="curve" smooth="yes"/>
      <point x="254" y="671"/>
      <point x="292" y="663"/>
      <point x="324" y="650" type="curve"/>
      <point x="332" y="682" type="line"/>
      <point x="300" y="696"/>
      <point x="259" y="703"/>
      <point x="223" y="703" type="curve" smooth="yes"/>
      <point x="135" y="703"/>
      <point x="80" y="650"/>
      <point x="80" y="574" type="curve" smooth="yes"/>
      <point x="80" y="530"/>
      <point x="102" y="493"/>
      <point x="148" y="459" type="curve"/>
      <point x="88" y="432"/>
      <point x="49" y="378"/>
      <point x="49" y="306" type="curve" smooth="yes"/>
      <point x="49" y="235"/>
      <point x="81" y="190"/>
      <point x="170" y="144" type="curve" smooth="yes"/>
      <point x="243" y="107"/>
      <point x="279" y="73"/>
      <point x="279" y="19" type="curve" smooth="yes"/>
      <point x="279" y="-42"/>
      <point x="236" y="-76"/>
      <point x="166" y="-76" type="curve" smooth="yes"/>
      <point x="133" y="-76"/>
      <point x="95" y="-65"/>
      <point x="61" y="-50" type="curve"/>
      <point x="53" y="-82" type="line"/>
      <point x="87" y="-98"/>
      <point x="128" y="-108"/>
    </contour>
    <contour>
      <point x="201" y="164" type="curve"/>
      <point x="197" y="166"/>
      <point x="193" y="168"/>
      <point x="189" y="170" type="curve" smooth="yes"/>
      <point x="100" y="215"/>
      <point x="83" y="251"/>
      <point x="83" y="310" type="curve" smooth="yes"/>
      <point x="83" y="372"/>
      <point x="128" y="422"/>
      <point x="174" y="442" type="curve"/>
      <point x="184" y="436"/>
      <point x="193" y="431"/>
      <point x="204" y="425" type="curve" smooth="yes"/>
      <point x="287" y="383"/>
      <point x="304" y="352"/>
      <point x="304" y="299" type="curve" smooth="yes"/>
      <point x="304" y="232"/>
      <point x="259" y="181"/>
    </contour>
  </outline>
</glyph>
<glyph name="dieresis" format="2">
  <advance width="314"/>
  <unicode hex="00A8"/>
  <outline>
    <contour>
      <point x="222" y="639" type="curve" smooth="yes"/>
      <point x="237" y="639"/>
      <point x="251" y="653"/>
      <point x="251" y="669" type="curve" smooth="yes"/>
      <point x="251" y="688"/>
      <point x="237" y="701"/>
      <point x="222" y="701" type="curve" smooth="yes"/>
      <point x="206" y="701"/>
      <point x="193" y="688"/>
      <point x="193" y="669" type="curve" smooth="yes"/>
      <point x="193" y="653"/>
      <point x="206" y="639"/>
    </contour>
    <contour>
      <point x="92" y="639" type="curve" smooth="yes"/>
      <point x="107" y="639"/>
      <point x="121" y="653"/>
      <point x="121" y="669" type="curve" smooth="yes"/>
      <point x="121" y="688"/>
      <point x="107" y="701"/>
      <point x="92" y="701" type="curve" smooth="yes"/>
      <point x="76" y="701"/>
      <point x="63" y="688"/>
      <point x="63" y="669" type="curve" smooth="yes"/>
      <point x="63" y="653"/>
      <point x="76" y="639"/>
    </contour>
  </outline>
</glyph>
<glyph name="copyright" format="2">
  <advance width="727"/>
  <unicode hex="00A9"/>
  <outline>
    <contour>
      <point x="364" y="-15" type="curve" smooth="yes"/>
      <point x="545" y="-15"/>
      <point x="651" y="139"/>
      <point x="651" y="345" type="curve" smooth="yes"/>
      <point x="651" y="550"/>
      <point x="545" y="706"/>
      <point x="364" y="706" type="curve" smooth="yes"/>
      <point x="183" y="706"/>
      <point x="76" y="550"/>
      <point x="76" y="345" type="curve" smooth="yes"/>
      <point x="76" y="139"/>
      <point x="183" y="-15"/>
    </contour>
    <contour>
      <point x="378" y="144" type="curve" smooth="yes"/>
      <point x="406" y="144"/>
      <point x="435" y="150"/>
      <point x="457" y="163" type="curve"/>
      <point x="449" y="190" type="line"/>
      <point x="424" y="179"/>
      <point x="403" y="173"/>
      <point x="380" y="173" type="curve" smooth="yes"/>
      <point x="304" y="173"/>
      <point x="263" y="235"/>
      <point x="263" y="344" type="curve" smooth="yes"/>
      <point x="263" y="462"/>
      <point x="300" y="522"/>
      <point x="376" y="522" type="curve" smooth="yes"/>
      <point x="401" y="522"/>
      <point x="428" y="515"/>
      <point x="445" y="507" type="curve"/>
      <point x="452" y="534" type="line"/>
      <point x="431" y="545"/>
      <point x="403" y="551"/>
      <point x="376" y="551" type="curve" smooth="yes"/>
      <point x="281" y="551"/>
      <point x="231" y="478"/>
      <point x="231" y="344" type="curve" smooth="yes"/>
      <point x="231" y="218"/>
      <point x="286" y="144"/>
    </contour>
    <contour>
      <point x="364" y="13" type="curve" smooth="yes"/>
      <point x="208" y="13"/>
      <point x="106" y="144"/>
      <point x="106" y="345" type="curve" smooth="yes"/>
      <point x="106" y="543"/>
      <point x="207" y="678"/>
      <point x="364" y="678" type="curve" smooth="yes"/>
      <point x="515" y="678"/>
      <point x="621" y="546"/>
      <point x="621" y="345" type="curve" smooth="yes"/>
      <point x="621" y="146"/>
      <point x="518" y="13"/>
    </contour>
  </outline>
</glyph>
<glyph name="ordfeminine" format="2">
  <advance width="286"/>
  <unicode hex="00AA"/>
  <outline>
    <contour>
      <point x="140" y="334" type="curve" smooth="yes"/>
      <point x="166" y="334"/>
      <point x="201" y="339"/>
      <point x="232" y="348" type="curve"/>
      <point x="232" y="600" type="line" smooth="yes"/>
      <point x="232" y="668"/>
      <point x="194" y="701"/>
      <point x="135" y="701" type="curve" smooth="yes"/>
      <point x="111" y="701"/>
      <point x="86" y="697"/>
      <point x="60" y="688" type="curve"/>
      <point x="64" y="662" type="line"/>
      <point x="87" y="670"/>
      <point x="112" y="674"/>
      <point x="134" y="674" type="curve" smooth="yes"/>
      <point x="179" y="674"/>
      <point x="204" y="649"/>
      <point x="204" y="595" type="curve" smooth="yes"/>
      <point x="204" y="541" type="line"/>
      <point x="183" y="547"/>
      <point x="161" y="550"/>
      <point x="140" y="550" type="curve" smooth="yes"/>
      <point x="71" y="550"/>
      <point x="32" y="510"/>
      <point x="32" y="441" type="curve" smooth="yes"/>
      <point x="32" y="374"/>
      <point x="72" y="334"/>
    </contour>
    <contour>
      <point x="143" y="360" type="curve" smooth="yes"/>
      <point x="90" y="360"/>
      <point x="59" y="390"/>
      <point x="59" y="442" type="curve" smooth="yes"/>
      <point x="59" y="496"/>
      <point x="89" y="524"/>
      <point x="143" y="524" type="curve" smooth="yes"/>
      <point x="163" y="524"/>
      <point x="185" y="520"/>
      <point x="204" y="514" type="curve"/>
      <point x="204" y="369" type="line"/>
      <point x="183" y="363"/>
      <point x="160" y="360"/>
    </contour>
  </outline>
</glyph>
<glyph name="logicalnot" format="2">
  <advance width="425"/>
  <unicode hex="00AC"/>
  <outline>
    <contour>
      <point x="327" y="140" type="line"/>
      <point x="360" y="140" type="line"/>
      <point x="360" y="384" type="line"/>
      <point x="28" y="384" type="line"/>
      <point x="28" y="353" type="line"/>
      <point x="327" y="353" type="line"/>
    </contour>
  </outline>
</glyph>
<glyph name="registered" format="2">
  <advance width="734"/>
  <unicode hex="00AE"/>
  <outline>
    <contour>
      <point x="364" y="-15" type="curve" smooth="yes"/>
      <point x="545" y="-15"/>
      <point x="651" y="139"/>
      <point x="651" y="345" type="curve" smooth="yes"/>
      <point x="651" y="550"/>
      <point x="545" y="706"/>
      <point x="364" y="706" type="curve" smooth="yes"/>
      <point x="183" y="706"/>
      <point x="76" y="550"/>
      <point x="76" y="345" type="curve" smooth="yes"/>
      <point x="76" y="139"/>
      <point x="183" y="-15"/>
    </contour>
    <contour>
      <point x="364" y="13" type="curve" smooth="yes"/>
      <point x="208" y="13"/>
      <point x="106" y="144"/>
      <point x="106" y="345" type="curve" smooth="yes"/>
      <point x="106" y="543"/>
      <point x="207" y="678"/>
      <point x="364" y="678" type="curve" smooth="yes"/>
      <point x="515" y="678"/>
      <point x="621" y="546"/>
      <point x="621" y="345" type="curve" smooth="yes"/>
      <point x="621" y="146"/>
      <point x="518" y="13"/>
    </contour>
    <contour>
      <point x="263" y="149" type="line"/>
      <point x="295" y="149" type="line"/>
      <point x="295" y="315" type="line"/>
      <point x="324" y="315" type="line" smooth="yes"/>
      <point x="336" y="315"/>
      <point x="348" y="315"/>
      <point x="360" y="315" type="curve"/>
      <point x="397" y="262"/>
      <point x="428" y="205"/>
      <point x="455" y="149" type="curve"/>
      <point x="492" y="149" type="line"/>
      <point x="453" y="224"/>
      <point x="422" y="277"/>
      <point x="394" y="321" type="curve"/>
      <point x="441" y="338"/>
      <point x="471" y="374"/>
      <point x="471" y="428" type="curve" smooth="yes"/>
      <point x="471" y="503"/>
      <point x="434" y="545"/>
      <point x="347" y="545" type="curve" smooth="yes"/>
      <point x="318" y="545"/>
      <point x="288" y="540"/>
      <point x="263" y="534" type="curve"/>
    </contour>
    <contour>
      <point x="295" y="342" type="line"/>
      <point x="295" y="514" type="line"/>
      <point x="313" y="516"/>
      <point x="329" y="518"/>
      <point x="347" y="518" type="curve" smooth="yes"/>
      <point x="408" y="518"/>
      <point x="439" y="489"/>
      <point x="439" y="428" type="curve"/>
      <point x="439" y="371"/>
      <point x="408" y="342"/>
      <point x="347" y="342" type="curve" smooth="yes"/>
    </contour>
  </outline>
</glyph>
<glyph name="macron" format="2">
  <advance width="312"/>
  <unicode hex="00AF"/>
  <outline>
    <contour>
      <point x="64" y="664" type="line"/>
      <point x="248" y="664" type="line"/>
      <point x="248" y="694" type="line"/>
      <point x="64" y="694" type="line"/>
    </contour>
  </outline>
</glyph>
<glyph name="degree" format="2">
  <advance width="255"/>
  <unicode hex="00B0"/>
  <outline>
    <contour>
      <point x="128" y="540" type="curve" smooth="yes"/>
      <point x="192" y="540"/>
      <point x="229" y="583"/>
      <point x="229" y="644" type="curve" smooth="yes"/>
      <point x="229" y="699"/>
      <point x="190" y="748"/>
      <point x="128" y="748" type="curve" smooth="yes"/>
      <point x="63" y="748"/>
      <point x="26" y="704"/>
      <point x="26" y="644" type="curve" smooth="yes"/>
      <point x="26" y="588"/>
      <point x="65" y="540"/>
    </contour>
    <contour>
      <point x="128" y="567" type="curve" smooth="yes"/>
      <point x="85" y="567"/>
      <point x="56" y="600"/>
      <point x="56" y="644" type="curve" smooth="yes"/>
      <point x="56" y="688"/>
      <point x="85" y="720"/>
      <point x="128" y="720" type="curve" smooth="yes"/>
      <point x="171" y="720"/>
      <point x="199" y="688"/>
      <point x="199" y="644" type="curve" smooth="yes"/>
      <point x="199" y="600"/>
      <point x="171" y="567"/>
    </contour>
  </outline>
</glyph>
<glyph name="plusminus" format="2">
  <advance width="425"/>
  <unicode hex="00B1"/>
  <outline>
    <contour>
      <point x="195" y="126" type="line"/>
      <point x="229" y="126" type="line"/>
      <point x="229" y="290" type="line"/>
      <point x="379" y="290" type="line"/>
      <point x="379" y="321" type="line"/>
      <point x="229" y="321" type="line"/>
      <point x="229" y="486" type="line"/>
      <point x="195" y="486" type="line"/>
      <point x="195" y="321" type="line"/>
      <point x="45" y="321" type="line"/>
      <point x="45" y="290" type="line"/>
      <point x="195" y="290" type="line"/>
    </contour>
    <contour>
      <point x="45" y="10" type="line"/>
      <point x="379" y="10" type="line"/>
      <point x="379" y="41" type="line"/>
      <point x="45" y="41" type="line"/>
    </contour>
  </outline>
</glyph>
<glyph name="twosuperior" format="2">
  <advance width="280"/>
  <unicode hex="00B2"/>
  <outline>
    <contour>
      <point x="49" y="309" type="curve"/>
      <point x="226" y="309" type="line"/>
      <point x="226" y="341" type="line"/>
      <point x="89" y="341" type="line"/>
      <point x="101" y="405"/>
      <point x="139" y="445"/>
      <point x="157" y="467" type="curve" smooth="yes"/>
      <point x="205" y="518"/>
      <point x="221" y="565"/>
      <point x="221" y="605" type="curve" smooth="yes"/>
      <point x="221" y="648"/>
      <point x="177" y="696"/>
      <point x="132" y="696" type="curve" smooth="yes"/>
      <point x="122" y="696"/>
      <point x="97" y="699"/>
      <point x="49" y="666" type="curve"/>
      <point x="62" y="637" type="line"/>
      <point x="118" y="681"/>
      <point x="122" y="662"/>
      <point x="129" y="662" type="curve" smooth="yes"/>
      <point x="171" y="662"/>
      <point x="187" y="625"/>
      <point x="187" y="593" type="curve" smooth="yes"/>
      <point x="187" y="580"/>
      <point x="197" y="560"/>
      <point x="130" y="489" type="curve" smooth="yes"/>
      <point x="24" y="389"/>
      <point x="51" y="364"/>
      <point x="51" y="318" type="curve" smooth="yes"/>
      <point x="51" y="315"/>
      <point x="51" y="312"/>
    </contour>
  </outline>
</glyph>
<glyph name="threesuperior" format="2">
  <advance width="280"/>
  <unicode hex="00B3"/>
  <outline>
    <contour>
      <point x="120.0" y="303" type="curve" smooth="yes"/>
      <point x="181" y="303"/>
      <point x="229" y="339"/>
      <point x="229.0" y="412" type="curve" smooth="yes"/>
      <point x="229" y="470"/>
      <point x="199" y="505"/>
      <point x="154" y="517" type="curve"/>
      <point x="192" y="530"/>
      <point x="213" y="565"/>
      <point x="213" y="605" type="curve" smooth="yes"/>
      <point x="213" y="661"/>
      <point x="182" y="697"/>
      <point x="123" y="697.0" type="curve" smooth="yes"/>
      <point x="93" y="697"/>
      <point x="66" y="690"/>
      <point x="37" y="670" type="curve"/>
      <point x="49" y="648" type="line"/>
      <point x="75" y="665"/>
      <point x="97" y="671"/>
      <point x="122" y="671" type="curve" smooth="yes"/>
      <point x="163" y="671"/>
      <point x="183" y="645"/>
      <point x="183" y="605" type="curve" smooth="yes"/>
      <point x="183" y="569"/>
      <point x="169" y="528"/>
      <point x="105" y="528" type="curve" smooth="yes"/>
      <point x="83" y="528" type="line"/>
      <point x="83" y="502" type="line"/>
      <point x="105" y="502" type="line" smooth="yes"/>
      <point x="167" y="502"/>
      <point x="199" y="471"/>
      <point x="199" y="412" type="curve" smooth="yes"/>
      <point x="199" y="347"/>
      <point x="160" y="329"/>
      <point x="121" y="329" type="curve" smooth="yes"/>
      <point x="92" y="329"/>
      <point x="69" y="335"/>
      <point x="40.0" y="350" type="curve"/>
      <point x="32" y="324" type="line"/>
      <point x="60" y="310"/>
      <point x="90" y="303"/>
    </contour>
  </outline>
</glyph>
<glyph name="acute" format="2">
  <advance width="314"/>
  <unicode hex="00B4"/>
  <outline>
    <contour>
      <point x="96" y="596" type="line"/>
      <point x="234" y="751" type="line"/>
      <point x="207" y="774" type="line"/>
      <point x="78" y="612" type="line"/>
    </contour>
  </outline>
</glyph>
<glyph name="mu" format="2">
  <advance width="476"/>
  <unicode hex="00B5"/>
  <outline>
    <contour>
      <point x="88" y="-185" type="line"/>
      <point x="125" y="-185" type="line"/>
      <point x="125" y="-82" type="line"/>
      <point x="125" y="-22"/>
      <point x="123" y="18"/>
      <point x="129" y="65" type="curve"/>
      <point x="160" y="6"/>
      <point x="214" y="-11"/>
      <point x="274" y="-11" type="curve" smooth="yes"/>
      <point x="252" y="-11"/>
      <point x="318" y="-9"/>
      <point x="388" y="18" type="curve"/>
      <point x="388" y="518" type="line"/>
      <point x="354" y="518" type="line"/>
      <point x="354" y="43" type="line"/>
      <point x="293" y="23"/>
      <point x="253" y="20"/>
      <point x="242" y="20" type="curve" smooth="yes"/>
      <point x="168" y="20"/>
      <point x="122" y="72"/>
      <point x="122" y="134" type="curve" smooth="yes"/>
      <point x="122" y="518" type="line"/>
      <point x="88" y="518" type="line"/>
    </contour>
  </outline>
</glyph>
<glyph name="paragraph" format="2">
  <advance width="447"/>
  <unicode hex="00B6"/>
  <outline>
    <contour>
      <point x="219" y="-185" type="line"/>
      <point x="253" y="-185" type="line"/>
      <point x="253" y="667" type="line"/>
      <point x="277" y="670"/>
      <point x="304" y="669"/>
      <point x="325" y="665" type="curve"/>
      <point x="325" y="-185" type="line"/>
      <point x="359" y="-185" type="line"/>
      <point x="359" y="686" type="line"/>
      <point x="343" y="693"/>
      <point x="313" y="697"/>
      <point x="285" y="697" type="curve" smooth="yes"/>
      <point x="158" y="697"/>
      <point x="32" y="637"/>
      <point x="32" y="480" type="curve" smooth="yes"/>
      <point x="32" y="351"/>
      <point x="99" y="273"/>
      <point x="219" y="266" type="curve"/>
    </contour>
  </outline>
</glyph>
<glyph name="cedilla" format="2">
  <advance width="314"/>
  <unicode hex="00B8"/>
  <outline>
    <contour>
      <point x="133" y="-185" type="curve" smooth="yes"/>
      <point x="179" y="-185"/>
      <point x="213" y="-156"/>
      <point x="213" y="-113" type="curve" smooth="yes"/>
      <point x="213" y="-80"/>
      <point x="195" y="-54"/>
      <point x="153" y="-38" type="curve"/>
      <point x="161" y="-19"/>
      <point x="169" y="-2"/>
      <point x="179" y="20" type="curve"/>
      <point x="149" y="20" type="line"/>
      <point x="140" y="1"/>
      <point x="128" y="-24"/>
      <point x="116" y="-52" type="curve"/>
      <point x="165" y="-67"/>
      <point x="181" y="-86"/>
      <point x="181" y="-114" type="curve" smooth="yes"/>
      <point x="181" y="-143"/>
      <point x="164" y="-158"/>
      <point x="133" y="-158" type="curve" smooth="yes"/>
      <point x="117" y="-158"/>
      <point x="96" y="-155"/>
      <point x="80" y="-150" type="curve"/>
      <point x="76" y="-176" type="line"/>
      <point x="93" y="-182"/>
      <point x="112" y="-185"/>
    </contour>
  </outline>
</glyph>
<glyph name="onesuperior" format="2">
  <advance width="280"/>
  <unicode hex="00B9"/>
  <outline>
    <contour>
      <point x="141" y="309" type="line"/>
      <point x="171" y="309" type="line"/>
      <point x="171" y="690" type="line"/>
      <point x="148" y="690" type="line"/>
      <point x="115" y="650"/>
      <point x="89" y="630"/>
      <point x="53" y="606" type="curve"/>
      <point x="67" y="584" type="line"/>
      <point x="96" y="600"/>
      <point x="121" y="621"/>
      <point x="141" y="644" type="curve"/>
    </contour>
  </outline>
</glyph>
<glyph name="ordmasculine" format="2">
  <advance width="334"/>
  <unicode hex="00BA"/>
  <outline>
    <contour>
      <point x="167" y="331.0" type="curve" smooth="yes"/>
      <point x="244" y="331.0"/>
      <point x="286" y="398.0"/>
      <point x="286" y="516.0" type="curve" smooth="yes"/>
      <point x="286" y="633.0"/>
      <point x="244" y="701.0"/>
      <point x="167" y="701.0" type="curve" smooth="yes"/>
      <point x="91" y="701.0"/>
      <point x="48" y="633.0"/>
      <point x="48" y="516.0" type="curve" smooth="yes"/>
      <point x="48" y="398.0"/>
      <point x="91" y="331.0"/>
    </contour>
    <contour>
      <point x="167" y="358.0" type="curve" smooth="yes"/>
      <point x="110" y="358.0"/>
      <point x="77" y="416.0"/>
      <point x="77" y="516.0" type="curve" smooth="yes"/>
      <point x="77" y="615"/>
      <point x="110" y="674"/>
      <point x="167" y="674.0" type="curve" smooth="yes"/>
      <point x="225" y="674"/>
      <point x="257" y="615"/>
      <point x="257" y="516.0" type="curve" smooth="yes"/>
      <point x="257" y="416.0"/>
      <point x="225" y="358.0"/>
    </contour>
  </outline>
</glyph>
<glyph name="AE" format="2">
  <advance width="695"/>
  <unicode hex="00C6"/>
  <anchor x="362" y="0" name="bottom"/>
  <anchor x="369" y="693" name="top"/>
  <outline>
    <contour>
      <point x="28" y="0" type="curve"/>
      <point x="62" y="0" type="line"/>
      <point x="85" y="66"/>
      <point x="111" y="134"/>
      <point x="139" y="200" type="curve"/>
      <point x="368" y="200" type="line"/>
      <point x="368" y="0" type="line"/>
      <point x="643" y="0" type="line"/>
      <point x="643" y="31" type="line"/>
      <point x="402" y="31" type="line"/>
      <point x="402" y="348" type="line"/>
      <point x="606" y="348" type="line"/>
      <point x="606" y="379" type="line"/>
      <point x="402" y="379" type="line"/>
      <point x="402" y="662" type="line"/>
      <point x="632" y="662" type="line"/>
      <point x="632" y="693" type="line"/>
      <point x="367" y="693" type="line"/>
      <point x="252" y="522"/>
      <point x="122" y="267"/>
    </contour>
    <contour>
      <point x="154" y="233" type="line"/>
      <point x="222" y="390"/>
      <point x="301" y="537"/>
      <point x="368" y="641" type="curve"/>
      <point x="368" y="233" type="line"/>
    </contour>
  </outline>
</glyph>
<glyph name="Ccedilla" format="2">
  <advance width="449"/>
  <unicode hex="00C7"/>
  <outline>
    <contour>
      <point x="251" y="-185" type="curve" smooth="yes"/>
      <point x="297" y="-185"/>
      <point x="331" y="-156"/>
      <point x="331" y="-113" type="curve" smooth="yes"/>
      <point x="331" y="-80"/>
      <point x="313" y="-54"/>
      <point x="271" y="-38" type="curve"/>
      <point x="275" y="-28"/>
      <point x="279" y="-19"/>
      <point x="284" y="-9" type="curve"/>
      <point x="288" y="-9"/>
      <point x="291" y="-9"/>
      <point x="295" y="-9" type="curve" smooth="yes"/>
      <point x="341" y="-9"/>
      <point x="387" y="2"/>
      <point x="424" y="25" type="curve"/>
      <point x="415" y="53" type="line"/>
      <point x="374" y="34"/>
      <point x="337" y="22"/>
      <point x="298" y="22" type="curve" smooth="yes"/>
      <point x="168" y="22"/>
      <point x="98" y="138"/>
      <point x="98" y="340" type="curve" smooth="yes"/>
      <point x="98" y="560"/>
      <point x="160" y="671"/>
      <point x="292" y="671" type="curve" smooth="yes"/>
      <point x="334" y="671"/>
      <point x="377" y="659"/>
      <point x="407" y="644" type="curve"/>
      <point x="417" y="672" type="line"/>
      <point x="380" y="691"/>
      <point x="338" y="702"/>
      <point x="291" y="702" type="curve" smooth="yes"/>
      <point x="141" y="702"/>
      <point x="62" y="575"/>
      <point x="62" y="340" type="curve" smooth="yes"/>
      <point x="62" y="141"/>
      <point x="132" y="16"/>
      <point x="255" y="-6" type="curve"/>
      <point x="248" y="-20"/>
      <point x="240" y="-36"/>
      <point x="233" y="-53" type="curve"/>
      <point x="283" y="-68"/>
      <point x="299" y="-86"/>
      <point x="299" y="-114" type="curve" smooth="yes"/>
      <point x="299" y="-142"/>
      <point x="282" y="-157"/>
      <point x="251" y="-157" type="curve" smooth="yes"/>
      <point x="235" y="-157"/>
      <point x="214" y="-154"/>
      <point x="198" y="-149" type="curve"/>
      <point x="194" y="-176" type="line"/>
      <point x="211" y="-182"/>
      <point x="230" y="-185"/>
    </contour>
  </outline>
</glyph>
<glyph name="multiply" format="2">
  <advance width="425"/>
  <unicode hex="00D7"/>
  <outline>
    <contour>
      <point x="105" y="170" type="line"/>
      <point x="211" y="276" type="line"/>
      <point x="326" y="161" type="line"/>
      <point x="350" y="185" type="line"/>
      <point x="235" y="300" type="line"/>
      <point x="341" y="406" type="line"/>
      <point x="317" y="430" type="line"/>
      <point x="211" y="324" type="line"/>
      <point x="96" y="439" type="line"/>
      <point x="72" y="415" type="line"/>
      <point x="187" y="300" type="line"/>
      <point x="81" y="194" type="line"/>
    </contour>
  </outline>
</glyph>
<glyph name="Oslash" format="2">
  <advance width="576"/>
  <unicode hex="00D8"/>
  <anchor x="288" y="0" name="bottom"/>
  <anchor x="288" y="668" name="top"/>
  <outline>
    <contour>
      <point x="96" y="-28" type="line"/>
      <point x="142" y="55" type="line"/>
      <point x="179" y="13"/>
      <point x="228" y="-9"/>
      <point x="288" y="-9" type="curve" smooth="yes"/>
      <point x="432" y="-9"/>
      <point x="514" y="120"/>
      <point x="514" y="344" type="curve" smooth="yes"/>
      <point x="514" y="460"/>
      <point x="493" y="551"/>
      <point x="453" y="612" type="curve"/>
      <point x="508" y="711" type="line"/>
      <point x="480" y="724" type="line"/>
      <point x="433" y="639" type="line"/>
      <point x="396" y="681"/>
      <point x="347" y="703"/>
      <point x="288" y="703" type="curve" smooth="yes"/>
      <point x="144" y="703"/>
      <point x="62" y="572"/>
      <point x="62" y="344" type="curve" smooth="yes"/>
      <point x="62" y="230"/>
      <point x="83" y="141"/>
      <point x="123" y="80" type="curve"/>
      <point x="70" y="-15" type="line"/>
    </contour>
    <contour>
      <point x="142" y="115" type="line"/>
      <point x="113" y="169"/>
      <point x="98" y="247"/>
      <point x="98" y="344" type="curve" smooth="yes"/>
      <point x="98" y="552"/>
      <point x="165" y="672"/>
      <point x="288" y="672" type="curve" smooth="yes"/>
      <point x="341" y="672"/>
      <point x="384" y="650"/>
      <point x="415" y="607" type="curve"/>
    </contour>
    <contour>
      <point x="288" y="22" type="curve" smooth="yes"/>
      <point x="234" y="22"/>
      <point x="191" y="44"/>
      <point x="160" y="87" type="curve"/>
      <point x="434" y="578" type="line"/>
      <point x="463" y="522"/>
      <point x="478" y="443"/>
      <point x="478" y="344" type="curve" smooth="yes"/>
      <point x="478" y="139"/>
      <point x="411" y="22"/>
    </contour>
  </outline>
</glyph>
<glyph name="Thorn" format="2">
  <advance width="451"/>
  <unicode hex="00DE"/>
  <anchor x="225" y="0" name="bottom"/>
  <anchor x="225" y="693" name="top"/>
  <outline>
    <contour>
      <point x="88" y="0" type="line"/>
      <point x="122" y="0" type="line"/>
      <point x="122" y="146" type="line"/>
      <point x="189" y="146" type="line" smooth="yes"/>
      <point x="329" y="146"/>
      <point x="409" y="222"/>
      <point x="409" y="354" type="curve" smooth="yes"/>
      <point x="409" y="489"/>
      <point x="331" y="567"/>
      <point x="194" y="567" type="curve" smooth="yes"/>
      <point x="172" y="567"/>
      <point x="147" y="565"/>
      <point x="122" y="562" type="curve"/>
      <point x="122" y="693" type="line"/>
      <point x="88" y="693" type="line"/>
    </contour>
    <contour>
      <point x="122" y="178" type="line"/>
      <point x="122" y="529" type="line"/>
      <point x="143" y="533"/>
      <point x="171" y="535"/>
      <point x="190" y="535" type="curve" smooth="yes"/>
      <point x="312" y="535"/>
      <point x="374" y="475"/>
      <point x="374" y="354" type="curve" smooth="yes"/>
      <point x="374" y="237"/>
      <point x="312" y="178"/>
      <point x="191" y="178" type="curve" smooth="yes"/>
    </contour>
  </outline>
</glyph>
<glyph name="germandbls" format="2">
  <advance width="439"/>
  <unicode hex="00DF"/>
  <anchor x="220" y="0" name="bottom"/>
  <anchor x="220" y="776" name="top"/>
  <outline>
    <contour>
      <point x="296" y="-10" type="curve" smooth="yes"/>
      <point x="382" y="-10"/>
      <point x="433" y="48"/>
      <point x="433" y="132" type="curve" smooth="yes"/>
      <point x="433" y="226"/>
      <point x="374" y="253"/>
      <point x="327" y="288" type="curve" smooth="yes"/>
      <point x="295" y="312"/>
      <point x="268" y="340"/>
      <point x="268" y="396" type="curve" smooth="yes"/>
      <point x="268" y="435"/>
      <point x="283" y="461"/>
      <point x="302" y="486" type="curve" smooth="yes"/>
      <point x="331" y="526"/>
      <point x="370" y="562"/>
      <point x="370" y="643" type="curve" smooth="yes"/>
      <point x="370" y="725"/>
      <point x="320" y="776"/>
      <point x="234" y="776" type="curve" smooth="yes"/>
      <point x="147" y="776"/>
      <point x="92" y="710"/>
      <point x="92" y="602" type="curve" smooth="yes"/>
      <point x="92" y="0" type="line"/>
      <point x="124" y="0" type="line"/>
      <point x="124" y="602" type="line" smooth="yes"/>
      <point x="124" y="691"/>
      <point x="161" y="746"/>
      <point x="236" y="746" type="curve" smooth="yes"/>
      <point x="297" y="746"/>
      <point x="338" y="703"/>
      <point x="338" y="642" type="curve" smooth="yes"/>
      <point x="338" y="577"/>
      <point x="305" y="543"/>
      <point x="276" y="505" type="curve" smooth="yes"/>
      <point x="254" y="476"/>
      <point x="235" y="445"/>
      <point x="235" y="396" type="curve" smooth="yes"/>
      <point x="235" y="325"/>
      <point x="266" y="292"/>
      <point x="300" y="266" type="curve" smooth="yes"/>
      <point x="346" y="232"/>
      <point x="400" y="212"/>
      <point x="400" y="133" type="curve" smooth="yes"/>
      <point x="400" y="66"/>
      <point x="367" y="20"/>
      <point x="296" y="20" type="curve" smooth="yes"/>
      <point x="267" y="20"/>
      <point x="241" y="26"/>
      <point x="215" y="35" type="curve"/>
      <point x="208" y="5" type="line"/>
      <point x="235" y="-5"/>
      <point x="266" y="-10"/>
    </contour>
  </outline>
</glyph>
<glyph name="ae" format="2">
  <advance width="660"/>
  <unicode hex="00E6"/>
  <anchor x="330" y="0" name="bottom"/>
  <anchor x="330" y="513" name="top"/>
  <outline>
    <contour>
      <point x="205" y="-6" type="curve" smooth="yes"/>
      <point x="256" y="-6"/>
      <point x="298" y="1"/>
      <point x="352" y="40" type="curve"/>
      <point x="375" y="13"/>
      <point x="416" y="-6"/>
      <point x="481" y="-6" type="curve" smooth="yes"/>
      <point x="503" y="-6"/>
      <point x="545" y="2"/>
      <point x="579" y="25" type="curve"/>
      <point x="570" y="51" type="line"/>
      <point x="541" y="31"/>
      <point x="491" y="24"/>
      <point x="491" y="24" type="curve" smooth="yes"/>
      <point x="376" y="24"/>
      <point x="330" y="93"/>
      <point x="329" y="257" type="curve"/>
      <point x="601" y="257" type="line"/>
      <point x="602" y="268"/>
      <point x="602" y="273"/>
      <point x="602" y="313" type="curve" smooth="yes"/>
      <point x="602" y="405"/>
      <point x="590" y="531"/>
      <point x="463" y="531" type="curve" smooth="yes"/>
      <point x="357" y="531"/>
      <point x="320" y="468"/>
      <point x="313" y="410" type="curve"/>
      <point x="303" y="498"/>
      <point x="255" y="531"/>
      <point x="191" y="531" type="curve" smooth="yes"/>
      <point x="172" y="531"/>
      <point x="142" y="526"/>
      <point x="93" y="506" type="curve"/>
      <point x="106" y="473" type="line"/>
      <point x="150" y="496"/>
      <point x="195" y="497"/>
      <point x="173" y="497" type="curve" smooth="yes"/>
      <point x="227" y="497"/>
      <point x="295" y="508"/>
      <point x="295" y="349" type="curve" smooth="yes"/>
      <point x="295" y="290" type="line"/>
      <point x="235" y="305"/>
      <point x="218" y="304"/>
      <point x="192" y="304" type="curve" smooth="yes"/>
      <point x="79" y="304"/>
      <point x="48" y="241"/>
      <point x="48" y="152" type="curve" smooth="yes"/>
      <point x="48" y="58"/>
      <point x="90" y="-6"/>
    </contour>
    <contour>
      <point x="217" y="26" type="curve" smooth="yes"/>
      <point x="105" y="26"/>
      <point x="82" y="88"/>
      <point x="82" y="153" type="curve" smooth="yes"/>
      <point x="82" y="212"/>
      <point x="78" y="277"/>
      <point x="211" y="277" type="curve" smooth="yes"/>
      <point x="212" y="277"/>
      <point x="243" y="279"/>
      <point x="291" y="264" type="curve"/>
      <point x="293" y="191"/>
      <point x="300" y="124"/>
      <point x="336" y="69" type="curve"/>
      <point x="309" y="47"/>
      <point x="282" y="26"/>
    </contour>
    <contour>
      <point x="326" y="285" type="line"/>
      <point x="337" y="407"/>
      <point x="359" y="502"/>
      <point x="461" y="502" type="curve" smooth="yes"/>
      <point x="538" y="502"/>
      <point x="568" y="429"/>
      <point x="564" y="285" type="curve"/>
    </contour>
  </outline>
</glyph>
<glyph name="ccedilla" format="2">
  <advance width="336"/>
  <unicode hex="00E7"/>
  <outline>
    <contour>
      <point x="196" y="-186" type="curve" smooth="yes"/>
      <point x="242" y="-186"/>
      <point x="276" y="-157"/>
      <point x="276" y="-114" type="curve" smooth="yes"/>
      <point x="276" y="-81"/>
      <point x="258" y="-55"/>
      <point x="216" y="-39" type="curve"/>
      <point x="220" y="-29"/>
      <point x="225" y="-19"/>
      <point x="229" y="-9" type="curve"/>
      <point x="257" y="-9"/>
      <point x="289" y="-3"/>
      <point x="316" y="14" type="curve"/>
      <point x="309" y="40" type="line"/>
      <point x="282" y="26"/>
      <point x="254" y="21"/>
      <point x="227" y="21" type="curve" smooth="yes"/>
      <point x="139" y="21"/>
      <point x="87" y="107"/>
      <point x="87" y="256" type="curve" smooth="yes"/>
      <point x="87" y="417"/>
      <point x="134" y="498"/>
      <point x="225" y="498" type="curve" smooth="yes"/>
      <point x="254" y="498"/>
      <point x="283" y="492"/>
      <point x="304" y="483" type="curve"/>
      <point x="311" y="511" type="line"/>
      <point x="286" y="523"/>
      <point x="257" y="529"/>
      <point x="224" y="529" type="curve" smooth="yes"/>
      <point x="114" y="529"/>
      <point x="54" y="433"/>
      <point x="54" y="256" type="curve" smooth="yes"/>
      <point x="54" y="102"/>
      <point x="106" y="7"/>
      <point x="200" y="-7" type="curve"/>
      <point x="193" y="-21"/>
      <point x="186" y="-36"/>
      <point x="179" y="-53" type="curve"/>
      <point x="228" y="-68"/>
      <point x="244" y="-87"/>
      <point x="244" y="-115" type="curve" smooth="yes"/>
      <point x="244" y="-144"/>
      <point x="227" y="-159"/>
      <point x="196" y="-159" type="curve" smooth="yes"/>
      <point x="180" y="-159"/>
      <point x="159" y="-156"/>
      <point x="143" y="-151" type="curve"/>
      <point x="139" y="-177" type="line"/>
      <point x="156" y="-183"/>
      <point x="175" y="-186"/>
    </contour>
  </outline>
</glyph>
<glyph name="eth" format="2">
  <advance width="439"/>
  <unicode hex="00F0"/>
  <anchor x="220" y="0" name="bottom"/>
  <anchor x="220" y="776" name="top"/>
  <outline>
    <contour>
      <point x="213" y="-5" type="curve" smooth="yes"/>
      <point x="256" y="-5"/>
      <point x="379" y="18"/>
      <point x="379" y="294" type="curve" smooth="yes"/>
      <point x="379" y="430"/>
      <point x="352" y="545"/>
      <point x="295" y="644" type="curve"/>
      <point x="386" y="688" type="line"/>
      <point x="373" y="716" type="line"/>
      <point x="281" y="671" type="line"/>
      <point x="257" y="708"/>
      <point x="228" y="743"/>
      <point x="193" y="775" type="curve"/>
      <point x="165" y="757" type="line"/>
      <point x="203" y="724"/>
      <point x="230" y="692"/>
      <point x="255" y="655" type="curve"/>
      <point x="150" y="607" type="line"/>
      <point x="163" y="579" type="line"/>
      <point x="266" y="626" type="line"/>
      <point x="297" y="586"/>
      <point x="314" y="534"/>
      <point x="330" y="447" type="curve"/>
      <point x="296" y="475"/>
      <point x="256" y="482"/>
      <point x="229" y="482" type="curve" smooth="yes"/>
      <point x="124" y="482"/>
      <point x="54" y="391"/>
      <point x="54" y="229" type="curve" smooth="yes"/>
      <point x="54" y="72"/>
      <point x="112" y="-5"/>
    </contour>
    <contour>
      <point x="217" y="25" type="curve" smooth="yes"/>
      <point x="153" y="25"/>
      <point x="90" y="69"/>
      <point x="90" y="227" type="curve" smooth="yes"/>
      <point x="90" y="398"/>
      <point x="160" y="456"/>
      <point x="237" y="456" type="curve" smooth="yes"/>
      <point x="281" y="456"/>
      <point x="315" y="434"/>
      <point x="337" y="411" type="curve"/>
      <point x="341" y="385"/>
      <point x="343" y="358"/>
      <point x="343" y="296" type="curve" smooth="yes"/>
      <point x="343" y="47"/>
      <point x="249" y="25"/>
    </contour>
  </outline>
</glyph>
<glyph name="divide" format="2">
  <advance width="425"/>
  <unicode hex="00F7"/>
  <outline>
    <contour>
      <point x="45" y="284" type="line"/>
      <point x="379" y="284" type="line"/>
      <point x="379" y="315" type="line"/>
      <point x="45" y="315" type="line"/>
    </contour>
    <contour>
      <point x="213" y="127" type="curve" smooth="yes"/>
      <point x="229" y="127"/>
      <point x="243" y="141"/>
      <point x="243" y="158" type="curve" smooth="yes"/>
      <point x="243" y="177"/>
      <point x="229" y="190"/>
      <point x="213" y="190" type="curve" smooth="yes"/>
      <point x="195" y="190"/>
      <point x="182" y="177"/>
      <point x="182" y="158" type="curve" smooth="yes"/>
      <point x="182" y="141"/>
      <point x="195" y="127"/>
    </contour>
    <contour>
      <point x="213" y="409" type="curve" smooth="yes"/>
      <point x="229" y="409"/>
      <point x="243" y="423"/>
      <point x="243" y="440" type="curve" smooth="yes"/>
      <point x="243" y="459"/>
      <point x="229" y="472"/>
      <point x="213" y="472" type="curve" smooth="yes"/>
      <point x="195" y="472"/>
      <point x="182" y="459"/>
      <point x="182" y="440" type="curve" smooth="yes"/>
      <point x="182" y="423"/>
      <point x="195" y="409"/>
    </contour>
  </outline>
</glyph>
<glyph name="oslash" format="2">
  <advance width="440"/>
  <unicode hex="00F8"/>
  <anchor x="225" y="513" name="top"/>
  <outline>
    <contour>
      <point x="73" y="-25" type="line"/>
      <point x="111" y="41" type="line"/>
      <point x="139" y="8"/>
      <point x="175" y="-10"/>
      <point x="220" y="-10" type="curve" smooth="yes"/>
      <point x="325" y="-10"/>
      <point x="386" y="88"/>
      <point x="386" y="259" type="curve" smooth="yes"/>
      <point x="386" y="340"/>
      <point x="372" y="406"/>
      <point x="346" y="451" type="curve"/>
      <point x="392" y="531" type="line"/>
      <point x="365" y="545" type="line"/>
      <point x="327" y="479" type="line"/>
      <point x="300" y="512"/>
      <point x="264" y="529"/>
      <point x="220" y="529" type="curve" smooth="yes"/>
      <point x="115" y="529"/>
      <point x="54" y="430"/>
      <point x="54" y="259" type="curve" smooth="yes"/>
      <point x="54" y="178"/>
      <point x="68" y="114"/>
      <point x="93" y="69" type="curve"/>
      <point x="48" y="-10" type="line"/>
    </contour>
    <contour>
      <point x="220" y="20" type="curve" smooth="yes"/>
      <point x="182" y="20"/>
      <point x="151" y="38"/>
      <point x="129" y="72" type="curve"/>
      <point x="327" y="417" type="line"/>
      <point x="344" y="377"/>
      <point x="353" y="324"/>
      <point x="353" y="259" type="curve" smooth="yes"/>
      <point x="353" y="108"/>
      <point x="303" y="20"/>
    </contour>
    <contour>
      <point x="113" y="103" type="line"/>
      <point x="96" y="142"/>
      <point x="87" y="195"/>
      <point x="87" y="259" type="curve" smooth="yes"/>
      <point x="87" y="410"/>
      <point x="137" y="499"/>
      <point x="220" y="499" type="curve" smooth="yes"/>
      <point x="257" y="499"/>
      <point x="287" y="481"/>
      <point x="310" y="448" type="curve"/>
    </contour>
  </outline>
</glyph>
<glyph name="thorn" format="2">
  <advance width="440"/>
  <unicode hex="00FE"/>
  <anchor x="221" y="0" name="bottom"/>
  <anchor x="221" y="517" name="top"/>
  <outline>
    <contour>
      <point x="82" y="-185" type="line"/>
      <point x="114" y="-185" type="line"/>
      <point x="114" y="19" type="line"/>
      <point x="134" y="4"/>
      <point x="169" y="-10"/>
      <point x="209" y="-10" type="curve" smooth="yes"/>
      <point x="301" y="-10"/>
      <point x="380" y="60"/>
      <point x="380" y="254" type="curve" smooth="yes"/>
      <point x="380" y="419"/>
      <point x="335" y="529"/>
      <point x="199" y="529" type="curve" smooth="yes"/>
      <point x="167" y="529"/>
      <point x="141" y="524"/>
      <point x="114" y="514" type="curve"/>
      <point x="114" y="776" type="line"/>
      <point x="82" y="768" type="line"/>
    </contour>
    <contour>
      <point x="209" y="20" type="curve" smooth="yes"/>
      <point x="170" y="20"/>
      <point x="134" y="33"/>
      <point x="114" y="51" type="curve"/>
      <point x="114" y="481" type="line"/>
      <point x="135" y="492"/>
      <point x="165" y="499"/>
      <point x="199" y="499" type="curve" smooth="yes"/>
      <point x="290" y="499"/>
      <point x="347" y="441"/>
      <point x="347" y="254" type="curve" smooth="yes"/>
      <point x="347" y="50"/>
      <point x="264" y="20"/>
    </contour>
  </outline>
</glyph>
<glyph name="aogonek" format="2">
  <advance width="409"/>
  <unicode hex="0105"/>
  <outline>
    <contour>
      <point x="281" y="-186" type="curve" smooth="yes"/>
      <point x="296" y="-186"/>
      <point x="311" y="-184"/>
      <point x="324" y="-179" type="curve"/>
      <point x="321" y="-153" type="line"/>
      <point x="308" y="-157"/>
      <point x="297" y="-158"/>
      <point x="287" y="-158" type="curve" smooth="yes"/>
      <point x="258" y="-158"/>
      <point x="245" y="-142"/>
      <point x="245" y="-110" type="curve" smooth="yes"/>
      <point x="245" y="-72"/>
      <point x="280" y="-26"/>
      <point x="330" y="14" type="curve"/>
      <point x="330" y="382" type="line" smooth="yes"/>
      <point x="330" y="481"/>
      <point x="276" y="529"/>
      <point x="194" y="529" type="curve" smooth="yes"/>
      <point x="160" y="529"/>
      <point x="124" y="524"/>
      <point x="87" y="510" type="curve"/>
      <point x="94" y="481" type="line"/>
      <point x="126" y="493"/>
      <point x="162" y="499"/>
      <point x="193" y="499" type="curve" smooth="yes"/>
      <point x="259" y="499"/>
      <point x="298" y="460"/>
      <point x="298" y="375" type="curve" smooth="yes"/>
      <point x="298" y="290" type="line"/>
      <point x="265" y="299"/>
      <point x="233" y="304"/>
      <point x="202" y="304" type="curve" smooth="yes"/>
      <point x="102" y="304"/>
      <point x="46" y="248"/>
      <point x="46" y="150" type="curve" smooth="yes"/>
      <point x="46" y="52"/>
      <point x="103" y="-6"/>
      <point x="201" y="-6" type="curve" smooth="yes"/>
      <point x="225" y="-6"/>
      <point x="253" y="-3"/>
      <point x="281" y="2" type="curve"/>
      <point x="238" y="-35"/>
      <point x="214" y="-76"/>
      <point x="214" y="-114" type="curve" smooth="yes"/>
      <point x="214" y="-158"/>
      <point x="240" y="-186"/>
    </contour>
    <contour>
      <point x="205" y="24" type="curve" smooth="yes"/>
      <point x="124" y="24"/>
      <point x="78" y="71"/>
      <point x="78" y="152" type="curve" smooth="yes"/>
      <point x="78" y="233"/>
      <point x="122" y="276"/>
      <point x="205" y="276" type="curve" smooth="yes"/>
      <point x="236" y="276"/>
      <point x="268" y="270"/>
      <point x="298" y="261" type="curve"/>
      <point x="298" y="36" type="line"/>
      <point x="265" y="28"/>
      <point x="232" y="24"/>
    </contour>
  </outline>
</glyph>
<glyph name="dcroat" format="2">
  <advance width="436"/>
  <unicode hex="0111"/>
  <outline>
    <contour>
      <point x="235" y="-10" type="curve" smooth="yes"/>
      <point x="280" y="-10"/>
      <point x="313" y="0"/>
      <point x="352" y="18" type="curve"/>
      <point x="352" y="647" type="line"/>
      <point x="434" y="647" type="line"/>
      <point x="434" y="676" type="line"/>
      <point x="352" y="676" type="line"/>
      <point x="352" y="776" type="line"/>
      <point x="320" y="768" type="line"/>
      <point x="320" y="676" type="line"/>
      <point x="195" y="676" type="line"/>
      <point x="195" y="647" type="line"/>
      <point x="320" y="647" type="line"/>
      <point x="320" y="500" type="line"/>
      <point x="300" y="515"/>
      <point x="265" y="529"/>
      <point x="225" y="529" type="curve" smooth="yes"/>
      <point x="133" y="529"/>
      <point x="54" y="459"/>
      <point x="54" y="265" type="curve" smooth="yes"/>
      <point x="54" y="100"/>
      <point x="99" y="-10"/>
    </contour>
    <contour>
      <point x="235" y="20" type="curve" smooth="yes"/>
      <point x="144" y="20"/>
      <point x="87" y="78"/>
      <point x="87" y="265" type="curve" smooth="yes"/>
      <point x="87" y="469"/>
      <point x="170" y="499"/>
      <point x="225" y="499" type="curve" smooth="yes"/>
      <point x="264" y="499"/>
      <point x="300" y="486"/>
      <point x="320" y="468" type="curve"/>
      <point x="320" y="38" type="line"/>
      <point x="300" y="27"/>
      <point x="269" y="20"/>
    </contour>
  </outline>
</glyph>
<glyph name="Eogonek" format="2">
  <advance width="421"/>
  <unicode hex="0118"/>
  <anchor x="211" y="693" name="top"/>
  <outline>
    <contour>
      <point x="330" y="-186" type="curve" smooth="yes"/>
      <point x="345" y="-186"/>
      <point x="360" y="-184"/>
      <point x="373" y="-179" type="curve"/>
      <point x="370" y="-153" type="line"/>
      <point x="357" y="-157"/>
      <point x="346" y="-158"/>
      <point x="336" y="-158" type="curve" smooth="yes"/>
      <point x="307" y="-158"/>
      <point x="294" y="-142"/>
      <point x="294" y="-110" type="curve" smooth="yes"/>
      <point x="294" y="-75"/>
      <point x="320" y="-37"/>
      <point x="369" y="0" type="curve"/>
      <point x="369" y="31" type="line"/>
      <point x="122" y="31" type="line"/>
      <point x="122" y="348" type="line"/>
      <point x="332" y="348" type="line"/>
      <point x="332" y="379" type="line"/>
      <point x="122" y="379" type="line"/>
      <point x="122" y="662" type="line"/>
      <point x="358" y="662" type="line"/>
      <point x="358" y="693" type="line"/>
      <point x="88" y="693" type="line"/>
      <point x="88" y="0" type="line"/>
      <point x="334" y="0" type="line"/>
      <point x="287" y="-36"/>
      <point x="263" y="-77"/>
      <point x="263" y="-114" type="curve" smooth="yes"/>
      <point x="263" y="-158"/>
      <point x="289" y="-186"/>
    </contour>
  </outline>
</glyph>
<glyph name="eogonek" format="2">
  <advance width="412"/>
  <unicode hex="0119"/>
  <anchor x="213" y="513" name="top"/>
  <outline>
    <contour>
      <point x="287" y="-186" type="curve" smooth="yes"/>
      <point x="302" y="-186"/>
      <point x="317" y="-184"/>
      <point x="330" y="-179" type="curve"/>
      <point x="327" y="-153" type="line"/>
      <point x="314" y="-157"/>
      <point x="303" y="-158"/>
      <point x="293" y="-158" type="curve" smooth="yes"/>
      <point x="264" y="-158"/>
      <point x="251" y="-142"/>
      <point x="251" y="-110" type="curve" smooth="yes"/>
      <point x="251" y="-72"/>
      <point x="283" y="-17"/>
      <point x="342" y="16" type="curve"/>
      <point x="336" y="43" type="line"/>
      <point x="307" y="28"/>
      <point x="272" y="20"/>
      <point x="240" y="20" type="curve" smooth="yes"/>
      <point x="135" y="20"/>
      <point x="87" y="109"/>
      <point x="87" y="257" type="curve"/>
      <point x="358" y="257" type="line"/>
      <point x="359" y="274"/>
      <point x="360" y="293"/>
      <point x="360" y="303" type="curve" smooth="yes"/>
      <point x="360" y="454"/>
      <point x="301" y="529"/>
      <point x="215" y="529" type="curve" smooth="yes"/>
      <point x="112" y="529"/>
      <point x="54" y="431"/>
      <point x="54" y="260" type="curve" smooth="yes"/>
      <point x="54" y="89"/>
      <point x="121" y="-10"/>
      <point x="237" y="-10" type="curve" smooth="yes"/>
      <point x="250" y="-10"/>
      <point x="263" y="-8"/>
      <point x="276" y="-5" type="curve"/>
      <point x="238" y="-42"/>
      <point x="220" y="-78"/>
      <point x="220" y="-114" type="curve" smooth="yes"/>
      <point x="220" y="-158"/>
      <point x="246" y="-186"/>
    </contour>
    <contour>
      <point x="87" y="285" type="line"/>
      <point x="87" y="413"/>
      <point x="133" y="499"/>
      <point x="214" y="499" type="curve" smooth="yes"/>
      <point x="289" y="499"/>
      <point x="332" y="427"/>
      <point x="327" y="285" type="curve"/>
    </contour>
  </outline>
</glyph>
<glyph name="Hbar" format="2">
  <advance width="560"/>
  <unicode hex="0126"/>
  <outline>
    <contour>
      <point x="94" y="0" type="line"/>
      <point x="128" y="0" type="line"/>
      <point x="128" y="346" type="line"/>
      <point x="432" y="346" type="line"/>
      <point x="432" y="0" type="line"/>
      <point x="466" y="0" type="line"/>
      <point x="466" y="535" type="line"/>
      <point x="538" y="535" type="line"/>
      <point x="538" y="565" type="line"/>
      <point x="466" y="565" type="line"/>
      <point x="466" y="693" type="line"/>
      <point x="432" y="693" type="line"/>
      <point x="432" y="565" type="line"/>
      <point x="128" y="565" type="line"/>
      <point x="128" y="693" type="line"/>
      <point x="94" y="693" type="line"/>
      <point x="94" y="565" type="line"/>
      <point x="22" y="565" type="line"/>
      <point x="22" y="535" type="line"/>
      <point x="94" y="535" type="line"/>
    </contour>
    <contour>
      <point x="128" y="378" type="line"/>
      <point x="128" y="535" type="line"/>
      <point x="432" y="535" type="line"/>
      <point x="432" y="378" type="line"/>
    </contour>
  </outline>
</glyph>
<glyph name="hbar" format="2">
  <advance width="453"/>
  <unicode hex="0127"/>
  <outline>
    <contour>
      <point x="82" y="0" type="line"/>
      <point x="114" y="0" type="line"/>
      <point x="114" y="474" type="line"/>
      <point x="150" y="489"/>
      <point x="189" y="497"/>
      <point x="226" y="497" type="curve" smooth="yes"/>
      <point x="310" y="497"/>
      <point x="342" y="445"/>
      <point x="342" y="320" type="curve" smooth="yes"/>
      <point x="342" y="0" type="line"/>
      <point x="374" y="0" type="line"/>
      <point x="374" y="327" type="line" smooth="yes"/>
      <point x="374" y="459"/>
      <point x="334" y="527"/>
      <point x="234" y="527" type="curve" smooth="yes"/>
      <point x="191" y="527"/>
      <point x="150" y="517"/>
      <point x="114" y="504" type="curve"/>
      <point x="114" y="647" type="line"/>
      <point x="247" y="647" type="line"/>
      <point x="247" y="676" type="line"/>
      <point x="114" y="676" type="line"/>
      <point x="114" y="776" type="line"/>
      <point x="82" y="768" type="line"/>
      <point x="82" y="676" type="line"/>
      <point x="0" y="676" type="line"/>
      <point x="0" y="647" type="line"/>
      <point x="82" y="647" type="line"/>
    </contour>
  </outline>
</glyph>
<glyph name="Iogonek" format="2">
  <advance width="210"/>
  <unicode hex="012E"/>
  <outline>
    <contour>
      <point x="83" y="-186" type="curve" smooth="yes"/>
      <point x="98" y="-186"/>
      <point x="113" y="-184"/>
      <point x="126" y="-179" type="curve"/>
      <point x="123" y="-153" type="line"/>
      <point x="110" y="-157"/>
      <point x="99" y="-158"/>
      <point x="89" y="-158" type="curve" smooth="yes"/>
      <point x="60" y="-158"/>
      <point x="47" y="-142"/>
      <point x="47" y="-110" type="curve" smooth="yes"/>
      <point x="47" y="-74"/>
      <point x="74" y="-40"/>
      <point x="122" y="0" type="curve"/>
      <point x="122" y="693" type="line"/>
      <point x="88" y="693" type="line"/>
      <point x="88" y="0" type="line"/>
      <point x="88" y="0" type="line"/>
      <point x="42" y="-39"/>
      <point x="16" y="-76"/>
      <point x="16" y="-114" type="curve" smooth="yes"/>
      <point x="16" y="-158"/>
      <point x="42" y="-186"/>
    </contour>
  </outline>
</glyph>
<glyph name="dotlessi" format="2">
  <advance width="213.525"/>
  <unicode hex="0131"/>
  <anchor x="106" y="0" name="bottom"/>
  <anchor x="193" y="10" name="ogonek"/>
  <anchor x="106" y="513" name="top"/>
  <outline>
    <contour>
      <point x="90" y="0" type="line"/>
      <point x="124" y="0" type="line"/>
      <point x="124" y="518" type="line"/>
      <point x="90" y="518" type="line"/>
    </contour>
  </outline>
</glyph>
<glyph name="idotless" format="2">
  <advance width="196"/>
  <unicode hex="0131"/>
  <anchor x="98" y="0" name="bottom"/>
  <anchor x="176" y="10" name="ogonek"/>
  <anchor x="98" y="517" name="top"/>
  <outline>
    <contour>
      <point x="82" y="0" type="line"/>
      <point x="114" y="0" type="line"/>
      <point x="114" y="517" type="line"/>
      <point x="82" y="517" type="line"/>
    </contour>
  </outline>
</glyph>
<glyph name="Lslash" format="2">
  <advance width="391"/>
  <unicode hex="0141"/>
  <outline>
    <contour>
      <point x="94" y="0" type="line"/>
      <point x="357" y="0" type="line"/>
      <point x="357" y="31" type="line"/>
      <point x="128" y="31" type="line"/>
      <point x="128" y="334" type="line"/>
      <point x="264" y="425" type="line"/>
      <point x="247" y="449" type="line"/>
      <point x="128" y="370" type="line"/>
      <point x="128" y="693" type="line"/>
      <point x="94" y="693" type="line"/>
      <point x="94" y="347" type="line"/>
      <point x="6" y="288" type="line"/>
      <point x="23" y="264" type="line"/>
      <point x="94" y="311" type="line"/>
    </contour>
  </outline>
</glyph>
<glyph name="lslash" format="2">
  <advance width="202"/>
  <unicode hex="0142"/>
  <outline>
    <contour>
      <point x="171" y="-2" type="curve"/>
      <point x="175" y="26" type="line"/>
      <point x="132" y="36"/>
      <point x="112" y="64"/>
      <point x="112" y="117" type="curve" smooth="yes"/>
      <point x="112" y="399" type="line"/>
      <point x="181" y="442" type="line"/>
      <point x="166" y="467" type="line"/>
      <point x="112" y="433" type="line"/>
      <point x="112" y="776" type="line"/>
      <point x="80" y="768" type="line"/>
      <point x="80" y="413" type="line"/>
      <point x="10" y="369" type="line"/>
      <point x="25" y="345" type="line"/>
      <point x="80" y="379" type="line"/>
      <point x="80" y="118" type="line" smooth="yes"/>
      <point x="80" y="49"/>
      <point x="112" y="7"/>
    </contour>
  </outline>
</glyph>
<glyph name="Eng" format="2">
  <advance width="557"/>
  <unicode hex="014A"/>
  <anchor x="279" y="0" name="bottom"/>
  <anchor x="279" y="693" name="top"/>
  <outline>
    <contour>
      <point x="378" y="-187" type="curve" smooth="yes"/>
      <point x="443" y="-187"/>
      <point x="469" y="-149"/>
      <point x="469" y="-53" type="curve" smooth="yes"/>
      <point x="469" y="693" type="line"/>
      <point x="437" y="693" type="line"/>
      <point x="437" y="76" type="line"/>
      <point x="349" y="282"/>
      <point x="232" y="513"/>
      <point x="124" y="693" type="curve"/>
      <point x="88" y="693" type="line"/>
      <point x="88" y="0" type="line"/>
      <point x="120" y="0" type="line"/>
      <point x="120" y="641" type="line"/>
      <point x="223" y="467"/>
      <point x="337" y="235"/>
      <point x="436" y="0" type="curve"/>
      <point x="436" y="-57" type="line" smooth="yes"/>
      <point x="436" y="-128"/>
      <point x="419" y="-157"/>
      <point x="378" y="-157" type="curve" smooth="yes"/>
      <point x="365" y="-157"/>
      <point x="346" y="-154"/>
      <point x="334" y="-150" type="curve"/>
      <point x="329" y="-178" type="line"/>
      <point x="341" y="-183"/>
      <point x="364" y="-187"/>
    </contour>
  </outline>
</glyph>
<glyph name="eng" format="2">
  <advance width="459"/>
  <unicode hex="014B"/>
  <anchor x="229" y="0" name="bottom"/>
  <anchor x="229" y="513" name="top"/>
  <outline>
    <contour>
      <point x="286" y="-190" type="curve" smooth="yes"/>
      <point x="299" y="-190"/>
      <point x="377" y="-206"/>
      <point x="377" y="-79" type="curve" smooth="yes"/>
      <point x="377" y="310" type="line" smooth="yes"/>
      <point x="377" y="518"/>
      <point x="286" y="529"/>
      <point x="220" y="529" type="curve" smooth="yes"/>
      <point x="191" y="529"/>
      <point x="134" y="518"/>
      <point x="85" y="500" type="curve"/>
      <point x="85" y="0" type="line"/>
      <point x="119" y="0" type="line"/>
      <point x="119" y="475" type="line"/>
      <point x="150" y="485"/>
      <point x="191" y="499"/>
      <point x="222" y="499" type="curve" smooth="yes"/>
      <point x="300" y="499"/>
      <point x="342" y="443"/>
      <point x="342" y="318" type="curve" smooth="yes"/>
      <point x="342" y="-67" type="line" smooth="yes"/>
      <point x="342" y="-149"/>
      <point x="319" y="-157"/>
      <point x="291" y="-157" type="curve" smooth="yes"/>
      <point x="284" y="-157"/>
      <point x="273" y="-155"/>
      <point x="262" y="-152" type="curve"/>
      <point x="254" y="-180" type="line"/>
      <point x="269" y="-189"/>
      <point x="275" y="-190"/>
    </contour>
  </outline>
</glyph>
<glyph name="OE" format="2">
  <advance width="741"/>
  <unicode hex="0152"/>
  <anchor x="373" y="0" name="bottom"/>
  <anchor x="373" y="693" name="top"/>
  <outline>
    <contour>
      <point x="320" y="-9" type="curve" smooth="yes"/>
      <point x="352" y="-9"/>
      <point x="386" y="-5"/>
      <point x="414" y="0" type="curve"/>
      <point x="689" y="0" type="line"/>
      <point x="689" y="31" type="line"/>
      <point x="448" y="31" type="line"/>
      <point x="448" y="348" type="line"/>
      <point x="652" y="348" type="line"/>
      <point x="652" y="379" type="line"/>
      <point x="448" y="379" type="line"/>
      <point x="448" y="662" type="line"/>
      <point x="678" y="662" type="line"/>
      <point x="678" y="693" type="line"/>
      <point x="418" y="693" type="line"/>
      <point x="389" y="699"/>
      <point x="353" y="703"/>
      <point x="320" y="703" type="curve" smooth="yes"/>
      <point x="157" y="703"/>
      <point x="62" y="572"/>
      <point x="62" y="347" type="curve" smooth="yes"/>
      <point x="62" y="123"/>
      <point x="157" y="-9"/>
    </contour>
    <contour>
      <point x="323" y="22" type="curve" smooth="yes"/>
      <point x="177" y="22"/>
      <point x="98" y="141"/>
      <point x="98" y="347" type="curve" smooth="yes"/>
      <point x="98" y="554"/>
      <point x="177" y="672"/>
      <point x="323" y="672" type="curve" smooth="yes"/>
      <point x="352" y="672"/>
      <point x="379" y="669"/>
      <point x="414" y="662" type="curve"/>
      <point x="414" y="32" type="line"/>
      <point x="381" y="25"/>
      <point x="353" y="22"/>
    </contour>
  </outline>
</glyph>
<glyph name="oe" format="2">
  <advance width="711"/>
  <unicode hex="0153"/>
  <anchor x="365" y="0" name="bottom"/>
  <anchor x="365" y="513" name="top"/>
  <outline>
    <contour>
      <point x="220" y="-10" type="curve" smooth="yes"/>
      <point x="293" y="-10"/>
      <point x="345" y="39"/>
      <point x="369" y="128" type="curve"/>
      <point x="396" y="39"/>
      <point x="454" y="-10"/>
      <point x="536" y="-10" type="curve" smooth="yes"/>
      <point x="570" y="-10"/>
      <point x="604" y="-2"/>
      <point x="641" y="16" type="curve"/>
      <point x="635" y="43" type="line"/>
      <point x="606" y="28"/>
      <point x="571" y="20"/>
      <point x="539" y="20" type="curve" smooth="yes"/>
      <point x="434" y="20"/>
      <point x="386" y="109"/>
      <point x="386" y="257" type="curve"/>
      <point x="657" y="257" type="line"/>
      <point x="658" y="274"/>
      <point x="659" y="293"/>
      <point x="659" y="303" type="curve" smooth="yes"/>
      <point x="659" y="454"/>
      <point x="600" y="529"/>
      <point x="514" y="529" type="curve" smooth="yes"/>
      <point x="443" y="529"/>
      <point x="393" y="483"/>
      <point x="368" y="398" type="curve"/>
      <point x="343" y="483"/>
      <point x="291" y="529"/>
      <point x="220" y="529" type="curve" smooth="yes"/>
      <point x="115" y="529"/>
      <point x="54" y="430"/>
      <point x="54" y="259" type="curve" smooth="yes"/>
      <point x="54" y="88"/>
      <point x="115" y="-10"/>
    </contour>
    <contour>
      <point x="220" y="20" type="curve" smooth="yes"/>
      <point x="137" y="20"/>
      <point x="87" y="108"/>
      <point x="87" y="259" type="curve" smooth="yes"/>
      <point x="87" y="410"/>
      <point x="137" y="499"/>
      <point x="220" y="499" type="curve" smooth="yes"/>
      <point x="303" y="499"/>
      <point x="353" y="410"/>
      <point x="353" y="259" type="curve" smooth="yes"/>
      <point x="353" y="108"/>
      <point x="303" y="20"/>
    </contour>
    <contour>
      <point x="386" y="285" type="line"/>
      <point x="386" y="413"/>
      <point x="432" y="499"/>
      <point x="513" y="499" type="curve" smooth="yes"/>
      <point x="588" y="499"/>
      <point x="631" y="427"/>
      <point x="626" y="285" type="curve"/>
    </contour>
  </outline>
</glyph>
<glyph name="scedilla" format="2">
  <advance width="316"/>
  <unicode hex="015F"/>
  <outline>
    <contour>
      <point x="141" y="-185" type="curve" smooth="yes"/>
      <point x="187" y="-185"/>
      <point x="221" y="-156"/>
      <point x="221" y="-113" type="curve" smooth="yes"/>
      <point x="221" y="-80"/>
      <point x="203" y="-54"/>
      <point x="161" y="-38" type="curve"/>
      <point x="166" y="-27"/>
      <point x="170" y="-17"/>
      <point x="175" y="-6" type="curve"/>
      <point x="238" y="8"/>
      <point x="278" y="63"/>
      <point x="278" y="130" type="curve" smooth="yes"/>
      <point x="278" y="196"/>
      <point x="249" y="237"/>
      <point x="175" y="278" type="curve" smooth="yes"/>
      <point x="112" y="313"/>
      <point x="83" y="349"/>
      <point x="83" y="403" type="curve" smooth="yes"/>
      <point x="83" y="464"/>
      <point x="116" y="499"/>
      <point x="172" y="499" type="curve" smooth="yes"/>
      <point x="198" y="499"/>
      <point x="232" y="492"/>
      <point x="258" y="482" type="curve"/>
      <point x="262" y="512" type="line"/>
      <point x="236" y="523"/>
      <point x="202" y="529"/>
      <point x="173" y="529" type="curve" smooth="yes"/>
      <point x="97" y="529"/>
      <point x="50" y="476"/>
      <point x="50" y="401" type="curve" smooth="yes"/>
      <point x="50" y="340"/>
      <point x="84" y="292"/>
      <point x="158" y="251" type="curve" smooth="yes"/>
      <point x="230" y="211"/>
      <point x="245" y="179"/>
      <point x="245" y="126" type="curve" smooth="yes"/>
      <point x="245" y="66"/>
      <point x="201" y="20"/>
      <point x="143" y="20" type="curve" smooth="yes"/>
      <point x="111" y="20"/>
      <point x="71" y="29"/>
      <point x="40" y="42" type="curve"/>
      <point x="34" y="12" type="line"/>
      <point x="66" y="-2"/>
      <point x="106" y="-10"/>
      <point x="142" y="-10" type="curve" smooth="yes"/>
      <point x="143" y="-10" type="line"/>
      <point x="137" y="-23"/>
      <point x="130" y="-37"/>
      <point x="124" y="-52" type="curve"/>
      <point x="173" y="-67"/>
      <point x="189" y="-86"/>
      <point x="189" y="-114" type="curve" smooth="yes"/>
      <point x="189" y="-143"/>
      <point x="172" y="-158"/>
      <point x="141" y="-158" type="curve" smooth="yes"/>
      <point x="125" y="-158"/>
      <point x="104" y="-155"/>
      <point x="88" y="-150" type="curve"/>
      <point x="84" y="-176" type="line"/>
      <point x="101" y="-182"/>
      <point x="120" y="-185"/>
    </contour>
  </outline>
</glyph>
<glyph name="uni0162" format="2">
  <advance width="399"/>
  <unicode hex="0162"/>
  <outline>
    <contour>
      <point x="173" y="-185" type="curve" smooth="yes"/>
      <point x="219" y="-185"/>
      <point x="253" y="-156"/>
      <point x="253" y="-113" type="curve" smooth="yes"/>
      <point x="253" y="-80"/>
      <point x="235" y="-54"/>
      <point x="193" y="-38" type="curve"/>
      <point x="200" y="-26"/>
      <point x="208" y="-12"/>
      <point x="214" y="0" type="curve"/>
      <point x="216" y="0" type="line"/>
      <point x="216" y="661" type="line"/>
      <point x="379" y="661" type="line"/>
      <point x="379" y="693" type="line"/>
      <point x="20" y="693" type="line"/>
      <point x="20" y="661" type="line"/>
      <point x="182" y="661" type="line"/>
      <point x="182" y="0" type="line"/>
      <point x="184" y="0" type="line"/>
      <point x="176" y="-15"/>
      <point x="166" y="-33"/>
      <point x="156" y="-52" type="curve"/>
      <point x="205" y="-67"/>
      <point x="221" y="-86"/>
      <point x="221" y="-114" type="curve" smooth="yes"/>
      <point x="221" y="-143"/>
      <point x="204" y="-158"/>
      <point x="173" y="-158" type="curve" smooth="yes"/>
      <point x="157" y="-158"/>
      <point x="136" y="-155"/>
      <point x="120" y="-150" type="curve"/>
      <point x="116" y="-176" type="line"/>
      <point x="133" y="-182"/>
      <point x="152" y="-185"/>
    </contour>
  </outline>
</glyph>
<glyph name="tcedilla" format="2">
  <advance width="276"/>
  <unicode hex="0163"/>
  <outline>
    <contour>
      <point x="159" y="-185" type="curve" smooth="yes"/>
      <point x="205" y="-185"/>
      <point x="239" y="-156"/>
      <point x="239" y="-113" type="curve" smooth="yes"/>
      <point x="239" y="-80"/>
      <point x="221" y="-54"/>
      <point x="179" y="-38" type="curve"/>
      <point x="184" y="-26"/>
      <point x="189" y="-15"/>
      <point x="195" y="-3" type="curve"/>
      <point x="221" y="-3"/>
      <point x="248" y="-1"/>
      <point x="271" y="10" type="curve"/>
      <point x="265" y="38" type="line"/>
      <point x="243" y="30"/>
      <point x="223" y="27"/>
      <point x="203" y="27" type="curve" smooth="yes"/>
      <point x="142" y="27"/>
      <point x="112" y="62"/>
      <point x="112" y="137" type="curve" smooth="yes"/>
      <point x="112" y="487" type="line"/>
      <point x="251" y="487" type="line"/>
      <point x="251" y="517" type="line"/>
      <point x="112" y="517" type="line"/>
      <point x="112" y="681" type="line"/>
      <point x="80" y="673" type="line"/>
      <point x="80" y="137" type="line" smooth="yes"/>
      <point x="80" y="48"/>
      <point x="117" y="11"/>
      <point x="166" y="1" type="curve"/>
      <point x="159" y="-15"/>
      <point x="150" y="-33"/>
      <point x="142" y="-52" type="curve"/>
      <point x="191" y="-67"/>
      <point x="207" y="-86"/>
      <point x="207" y="-114" type="curve" smooth="yes"/>
      <point x="207" y="-143"/>
      <point x="190" y="-158"/>
      <point x="159" y="-158" type="curve" smooth="yes"/>
      <point x="143" y="-158"/>
      <point x="122" y="-155"/>
      <point x="106" y="-150" type="curve"/>
      <point x="102" y="-176" type="line"/>
      <point x="119" y="-182"/>
      <point x="138" y="-185"/>
    </contour>
  </outline>
</glyph>
<glyph name="Tbar" format="2">
  <advance width="399"/>
  <unicode hex="0166"/>
  <outline>
    <contour>
      <point x="182" y="0" type="line"/>
      <point x="216" y="0" type="line"/>
      <point x="216" y="334" type="line"/>
      <point x="296" y="334" type="line"/>
      <point x="296" y="365" type="line"/>
      <point x="216" y="365" type="line"/>
      <point x="216" y="661" type="line"/>
      <point x="379" y="661" type="line"/>
      <point x="379" y="693" type="line"/>
      <point x="20" y="693" type="line"/>
      <point x="20" y="661" type="line"/>
      <point x="182" y="661" type="line"/>
      <point x="182" y="365" type="line"/>
      <point x="102" y="365" type="line"/>
      <point x="102" y="334" type="line"/>
      <point x="182" y="334" type="line"/>
    </contour>
  </outline>
</glyph>
<glyph name="tbar" format="2">
  <advance width="320.85"/>
  <unicode hex="0167"/>
  <outline>
    <contour>
      <point x="207" y="-3" type="curve" smooth="yes"/>
      <point x="211" y="-3"/>
      <point x="227" y="-8"/>
      <point x="269" y="13" type="curve"/>
      <point x="264" y="42" type="line"/>
      <point x="246" y="29"/>
      <point x="211" y="28"/>
      <point x="212" y="28" type="curve" smooth="yes"/>
      <point x="142" y="28"/>
      <point x="114" y="72"/>
      <point x="114" y="137" type="curve" smooth="yes"/>
      <point x="114" y="263" type="line"/>
      <point x="245" y="263" type="line"/>
      <point x="245" y="291" type="line"/>
      <point x="114" y="291" type="line"/>
      <point x="114" y="486" type="line"/>
      <point x="251" y="486" type="line"/>
      <point x="251" y="518" type="line"/>
      <point x="114" y="518" type="line"/>
      <point x="114" y="681" type="line"/>
      <point x="80" y="673" type="line"/>
      <point x="80" y="141" type="line" smooth="yes"/>
      <point x="80" y="18"/>
      <point x="145" y="-3"/>
    </contour>
  </outline>
</glyph>
<glyph name="Uogonek" format="2">
  <advance width="520"/>
  <unicode hex="0172"/>
  <outline>
    <contour>
      <point x="317" y="-186" type="curve" smooth="yes"/>
      <point x="332" y="-186"/>
      <point x="347" y="-184"/>
      <point x="360" y="-179" type="curve"/>
      <point x="357" y="-153" type="line"/>
      <point x="344" y="-157"/>
      <point x="333" y="-158"/>
      <point x="323" y="-158" type="curve" smooth="yes"/>
      <point x="294" y="-158"/>
      <point x="281" y="-142"/>
      <point x="281" y="-110" type="curve" smooth="yes"/>
      <point x="281" y="-85"/>
      <point x="289" y="-56"/>
      <point x="310" y="-29" type="curve" smooth="yes"/>
      <point x="321" y="-15"/>
      <point x="335" y="-1"/>
      <point x="354" y="11" type="curve" smooth="yes"/>
      <point x="409" y="46"/>
      <point x="438" y="107"/>
      <point x="438" y="211" type="curve" smooth="yes"/>
      <point x="438" y="693" type="line"/>
      <point x="404" y="693" type="line"/>
      <point x="404" y="210" type="line" smooth="yes"/>
      <point x="404" y="83"/>
      <point x="358" y="24"/>
      <point x="260" y="24" type="curve"/>
      <point x="162" y="24"/>
      <point x="116" y="83"/>
      <point x="116" y="210" type="curve" smooth="yes"/>
      <point x="116" y="693" type="line"/>
      <point x="82" y="693" type="line"/>
      <point x="82" y="211" type="line" smooth="yes"/>
      <point x="82" y="62"/>
      <point x="139" y="-8"/>
      <point x="260" y="-8" type="curve"/>
      <point x="274" y="-8"/>
      <point x="288" y="-7"/>
      <point x="301" y="-5" type="curve"/>
      <point x="265" y="-37"/>
      <point x="250" y="-78"/>
      <point x="250" y="-114" type="curve" smooth="yes"/>
      <point x="250" y="-158"/>
      <point x="276" y="-186"/>
    </contour>
  </outline>
</glyph>
<glyph name="uogonek" format="2">
  <advance width="451"/>
  <unicode hex="0173"/>
  <outline>
    <contour>
      <point x="314" y="-186" type="curve" smooth="yes"/>
      <point x="329" y="-186"/>
      <point x="344" y="-184"/>
      <point x="357" y="-179" type="curve"/>
      <point x="354" y="-153" type="line"/>
      <point x="341" y="-157"/>
      <point x="330" y="-158"/>
      <point x="320" y="-158" type="curve" smooth="yes"/>
      <point x="291" y="-158"/>
      <point x="278" y="-142"/>
      <point x="278" y="-110" type="curve" smooth="yes"/>
      <point x="278" y="-72"/>
      <point x="319" y="-21"/>
      <point x="369" y="19" type="curve"/>
      <point x="369" y="517" type="line"/>
      <point x="337" y="517" type="line"/>
      <point x="337" y="40" type="line"/>
      <point x="305" y="26"/>
      <point x="264" y="20"/>
      <point x="232" y="20" type="curve" smooth="yes"/>
      <point x="143" y="20"/>
      <point x="109" y="69"/>
      <point x="109" y="197" type="curve" smooth="yes"/>
      <point x="109" y="517" type="line"/>
      <point x="77" y="517" type="line"/>
      <point x="77" y="190" type="line" smooth="yes"/>
      <point x="77" y="52"/>
      <point x="120" y="-10"/>
      <point x="230" y="-10" type="curve" smooth="yes"/>
      <point x="262" y="-10"/>
      <point x="287" y="-5"/>
      <point x="314" y="4" type="curve"/>
      <point x="271" y="-34"/>
      <point x="247" y="-76"/>
      <point x="247" y="-114" type="curve" smooth="yes"/>
      <point x="247" y="-158"/>
      <point x="273" y="-186"/>
    </contour>
  </outline>
</glyph>
<glyph name="uni0180" format="2">
  <advance width="434"/>
  <unicode hex="0180"/>
  <outline>
    <contour>
      <point x="199" y="-10" type="curve" smooth="yes"/>
      <point x="335" y="-10"/>
      <point x="380" y="100"/>
      <point x="380" y="265" type="curve" smooth="yes"/>
      <point x="380" y="459"/>
      <point x="301" y="529"/>
      <point x="209" y="529" type="curve" smooth="yes"/>
      <point x="169" y="529"/>
      <point x="134" y="515"/>
      <point x="114" y="500" type="curve"/>
      <point x="114" y="647" type="line"/>
      <point x="256" y="647" type="line"/>
      <point x="256" y="676" type="line"/>
      <point x="114" y="676" type="line"/>
      <point x="114" y="776" type="line"/>
      <point x="82" y="768" type="line"/>
      <point x="82" y="676" type="line"/>
      <point x="0" y="676" type="line"/>
      <point x="0" y="647" type="line"/>
      <point x="82" y="647" type="line"/>
      <point x="82" y="18" type="line"/>
      <point x="121" y="0"/>
      <point x="154" y="-10"/>
    </contour>
    <contour>
      <point x="199" y="20" type="curve" smooth="yes"/>
      <point x="165" y="20"/>
      <point x="134" y="27"/>
      <point x="114" y="38" type="curve"/>
      <point x="114" y="468" type="line"/>
      <point x="134" y="486"/>
      <point x="170" y="499"/>
      <point x="209" y="499" type="curve" smooth="yes"/>
      <point x="264" y="499"/>
      <point x="347" y="469"/>
      <point x="347" y="265" type="curve" smooth="yes"/>
      <point x="347" y="78"/>
      <point x="290" y="20"/>
    </contour>
  </outline>
</glyph>
<glyph name="uni0183" format="2">
  <advance width="436"/>
  <unicode hex="0183"/>
  <outline>
    <contour>
      <point x="201" y="-10" type="curve" smooth="yes"/>
      <point x="337" y="-10"/>
      <point x="382" y="100"/>
      <point x="382" y="265" type="curve" smooth="yes"/>
      <point x="382" y="459"/>
      <point x="303" y="529"/>
      <point x="211" y="529" type="curve" smooth="yes"/>
      <point x="171" y="529"/>
      <point x="136" y="515"/>
      <point x="116" y="500" type="curve"/>
      <point x="116" y="746" type="line"/>
      <point x="319" y="746" type="line"/>
      <point x="319" y="776" type="line"/>
      <point x="84" y="776" type="line"/>
      <point x="84" y="18" type="line"/>
      <point x="123" y="0"/>
      <point x="156" y="-10"/>
    </contour>
    <contour>
      <point x="201" y="20" type="curve" smooth="yes"/>
      <point x="167" y="20"/>
      <point x="136" y="27"/>
      <point x="116" y="38" type="curve"/>
      <point x="116" y="468" type="line"/>
      <point x="136" y="486"/>
      <point x="172" y="499"/>
      <point x="211" y="499" type="curve" smooth="yes"/>
      <point x="266" y="499"/>
      <point x="349" y="469"/>
      <point x="349" y="265" type="curve" smooth="yes"/>
      <point x="349" y="78"/>
      <point x="292" y="20"/>
    </contour>
  </outline>
</glyph>
<glyph name="Tonesix" format="2">
  <advance width="438"/>
  <unicode hex="0184"/>
  <outline>
    <contour>
      <point x="203" y="-10" type="curve"/>
      <point x="339" y="-10"/>
      <point x="384" y="100"/>
      <point x="384" y="265" type="curve" smooth="yes"/>
      <point x="384" y="459"/>
      <point x="305" y="529"/>
      <point x="213" y="529" type="curve" smooth="yes"/>
      <point x="173" y="529"/>
      <point x="138" y="515"/>
      <point x="118" y="500" type="curve"/>
      <point x="118" y="776" type="line"/>
      <point x="93" y="767"/>
      <point x="71" y="755"/>
      <point x="46" y="737" type="curve"/>
      <point x="86" y="668" type="line"/>
      <point x="86" y="18" type="line"/>
      <point x="125" y="0"/>
      <point x="158" y="-10"/>
    </contour>
    <contour>
      <point x="203" y="20" type="curve"/>
      <point x="169" y="20"/>
      <point x="138" y="27"/>
      <point x="118" y="38" type="curve"/>
      <point x="118" y="468" type="line"/>
      <point x="138" y="486"/>
      <point x="174" y="499"/>
      <point x="213" y="499" type="curve" smooth="yes"/>
      <point x="268" y="499"/>
      <point x="351" y="469"/>
      <point x="351" y="265" type="curve" smooth="yes"/>
      <point x="351" y="78"/>
      <point x="294" y="20"/>
    </contour>
  </outline>
</glyph>
<glyph name="uni0184" format="2">
  <advance width="443.55"/>
  <unicode hex="0184"/>
  <outline>
    <contour>
      <point x="170" y="-5" type="curve" smooth="yes"/>
      <point x="351" y="-5"/>
      <point x="389" y="87"/>
      <point x="389" y="271" type="curve" smooth="yes"/>
      <point x="389" y="431"/>
      <point x="339" y="533"/>
      <point x="217" y="533" type="curve" smooth="yes"/>
      <point x="196" y="533"/>
      <point x="157" y="528"/>
      <point x="121" y="503" type="curve"/>
      <point x="121" y="776" type="line"/>
      <point x="94" y="766"/>
      <point x="70" y="753"/>
      <point x="38" y="730" type="curve"/>
      <point x="87" y="666" type="line"/>
      <point x="87" y="16" type="line"/>
      <point x="124" y="0"/>
      <point x="197" y="-5"/>
    </contour>
    <contour>
      <point x="177" y="26" type="curve" smooth="yes"/>
      <point x="199" y="26"/>
      <point x="164" y="23"/>
      <point x="121" y="33" type="curve"/>
      <point x="121" y="474" type="line"/>
      <point x="153" y="498"/>
      <point x="188" y="502"/>
      <point x="218" y="502" type="curve" smooth="yes"/>
      <point x="276" y="502"/>
      <point x="354" y="455"/>
      <point x="354" y="271" type="curve" smooth="yes"/>
      <point x="354" y="106"/>
      <point x="318" y="26"/>
    </contour>
  </outline>
</glyph>
<glyph name="uni0185" format="2">
  <advance width="462"/>
  <unicode hex="0185"/>
  <outline>
    <contour>
      <point x="219" y="-2" type="curve" smooth="yes"/>
      <point x="362" y="-2"/>
      <point x="430" y="65"/>
      <point x="430" y="200" type="curve" smooth="yes"/>
      <point x="430" y="307"/>
      <point x="387" y="398"/>
      <point x="223" y="398" type="curve" smooth="yes"/>
      <point x="126" y="398" type="line"/>
      <point x="126" y="695" type="line"/>
      <point x="103" y="689"/>
      <point x="69" y="670"/>
      <point x="51" y="656" type="curve"/>
      <point x="92" y="586" type="line"/>
      <point x="92" y="12" type="line"/>
      <point x="130" y="3"/>
      <point x="176" y="-2"/>
    </contour>
    <contour>
      <point x="215" y="30" type="curve" smooth="yes"/>
      <point x="187" y="30"/>
      <point x="151" y="34"/>
      <point x="126" y="39" type="curve"/>
      <point x="126" y="366" type="line"/>
      <point x="219" y="366" type="line" smooth="yes"/>
      <point x="360" y="366"/>
      <point x="394" y="295"/>
      <point x="394" y="197" type="curve" smooth="yes"/>
      <point x="394" y="83"/>
      <point x="339" y="30"/>
    </contour>
  </outline>
</glyph>
<glyph name="Oopen" format="2">
  <advance width="441"/>
  <unicode hex="0186"/>
  <unicode hex="0254"/>
  <anchor x="223" y="0" name="bottom"/>
  <anchor x="223" y="693" name="top"/>
  <outline>
    <contour>
      <point x="156" y="-9" type="curve" smooth="yes"/>
      <point x="299" y="-9"/>
      <point x="379" y="120"/>
      <point x="379" y="340" type="curve" smooth="yes"/>
      <point x="379" y="575"/>
      <point x="306" y="702"/>
      <point x="160" y="702" type="curve" smooth="yes"/>
      <point x="115" y="702"/>
      <point x="76" y="690"/>
      <point x="40" y="672" type="curve"/>
      <point x="50" y="642" type="line"/>
      <point x="79" y="657"/>
      <point x="119" y="671"/>
      <point x="159" y="671" type="curve" smooth="yes"/>
      <point x="281" y="671"/>
      <point x="343" y="560"/>
      <point x="343" y="340" type="curve" smooth="yes"/>
      <point x="343" y="138"/>
      <point x="277" y="22"/>
      <point x="153" y="22" type="curve" smooth="yes"/>
      <point x="116" y="22"/>
      <point x="81" y="33"/>
      <point x="41" y="51" type="curve"/>
      <point x="32" y="21" type="line"/>
      <point x="67" y="2"/>
      <point x="112" y="-9"/>
    </contour>
  </outline>
</glyph>
<glyph name="Chook" format="2">
  <advance width="462"/>
  <unicode hex="0187"/>
  <anchor x="231" y="0" name="bottom"/>
  <anchor x="231" y="693" name="top"/>
  <outline>
    <contour>
      <point x="295" y="-9" type="curve" smooth="yes"/>
      <point x="341" y="-9"/>
      <point x="387" y="2"/>
      <point x="424" y="25" type="curve"/>
      <point x="415" y="53" type="line"/>
      <point x="374" y="34"/>
      <point x="337" y="22"/>
      <point x="298" y="22" type="curve" smooth="yes"/>
      <point x="168" y="22"/>
      <point x="98" y="138"/>
      <point x="98" y="340" type="curve" smooth="yes"/>
      <point x="98" y="560"/>
      <point x="160" y="671"/>
      <point x="292" y="671" type="curve"/>
      <point x="335" y="671"/>
      <point x="375" y="660"/>
      <point x="405" y="644" type="curve"/>
      <point x="416" y="683" type="line" smooth="yes"/>
      <point x="431" y="737"/>
      <point x="450" y="752"/>
      <point x="485" y="752" type="curve" smooth="yes"/>
      <point x="495" y="752"/>
      <point x="507" y="749"/>
      <point x="518" y="746" type="curve"/>
      <point x="526" y="774" type="line"/>
      <point x="512" y="778"/>
      <point x="499" y="781"/>
      <point x="485" y="781" type="curve" smooth="yes"/>
      <point x="433" y="781"/>
      <point x="405" y="754"/>
      <point x="386" y="689" type="curve"/>
      <point x="361" y="698"/>
      <point x="327" y="702"/>
      <point x="291" y="702" type="curve"/>
      <point x="141" y="702"/>
      <point x="62" y="575"/>
      <point x="62" y="340" type="curve" smooth="yes"/>
      <point x="62" y="120"/>
      <point x="148" y="-9"/>
    </contour>
  </outline>
</glyph>
<glyph name="uni0188" format="2">
  <advance width="383"/>
  <unicode hex="0188"/>
  <anchor x="202" y="0" name="bottom"/>
  <anchor x="202" y="517" name="top"/>
  <outline>
    <contour>
      <point x="225" y="-9" type="curve" smooth="yes"/>
      <point x="257" y="-9"/>
      <point x="289" y="-3"/>
      <point x="316" y="14" type="curve"/>
      <point x="309" y="40" type="line"/>
      <point x="282" y="26"/>
      <point x="254" y="21"/>
      <point x="227" y="21" type="curve" smooth="yes"/>
      <point x="139" y="21"/>
      <point x="87" y="107"/>
      <point x="87" y="256" type="curve" smooth="yes"/>
      <point x="87" y="417"/>
      <point x="134" y="498"/>
      <point x="225" y="498" type="curve" smooth="yes"/>
      <point x="251" y="498"/>
      <point x="280" y="492"/>
      <point x="303" y="483" type="curve"/>
      <point x="311" y="516" type="line" smooth="yes"/>
      <point x="323" y="566"/>
      <point x="342" y="591"/>
      <point x="372" y="591" type="curve" smooth="yes"/>
      <point x="383" y="591"/>
      <point x="393" y="588"/>
      <point x="403" y="585" type="curve"/>
      <point x="411" y="612" type="line"/>
      <point x="401" y="615"/>
      <point x="387" y="619"/>
      <point x="372" y="619" type="curve" smooth="yes"/>
      <point x="325" y="619"/>
      <point x="297" y="590"/>
      <point x="281" y="522" type="curve"/>
      <point x="266" y="526"/>
      <point x="247" y="529"/>
      <point x="224" y="529" type="curve" smooth="yes"/>
      <point x="114" y="529"/>
      <point x="54" y="433"/>
      <point x="54" y="256" type="curve" smooth="yes"/>
      <point x="54" y="89"/>
      <point x="115" y="-9"/>
    </contour>
  </outline>
</glyph>
<glyph name="uni018A" format="2">
  <advance width="582"/>
  <unicode hex="018A"/>
  <anchor x="298" y="0" name="bottom"/>
  <anchor x="298" y="693" name="top"/>
  <outline>
    <contour>
      <point x="257" y="-4" type="curve" smooth="yes"/>
      <point x="431" y="-4"/>
      <point x="520" y="114"/>
      <point x="520" y="347" type="curve" smooth="yes"/>
      <point x="520" y="580"/>
      <point x="435" y="697"/>
      <point x="248" y="697" type="curve"/>
      <point x="71" y="697"/>
      <point x="4" y="643"/>
      <point x="4" y="551" type="curve" smooth="yes"/>
      <point x="4" y="534"/>
      <point x="7" y="515"/>
      <point x="10" y="503" type="curve"/>
      <point x="40" y="508" type="line"/>
      <point x="37" y="521"/>
      <point x="35" y="536"/>
      <point x="35" y="553" type="curve" smooth="yes"/>
      <point x="35" y="599"/>
      <point x="62" y="632"/>
      <point x="116" y="651" type="curve"/>
      <point x="116" y="6" type="line"/>
      <point x="166" y="-2"/>
      <point x="214" y="-4"/>
    </contour>
    <contour>
      <point x="253" y="28" type="curve" smooth="yes"/>
      <point x="212" y="28"/>
      <point x="181" y="29"/>
      <point x="150" y="34" type="curve"/>
      <point x="150" y="659" type="line"/>
      <point x="178" y="666"/>
      <point x="212" y="666"/>
      <point x="249" y="666" type="curve"/>
      <point x="409" y="666"/>
      <point x="484" y="568"/>
      <point x="484" y="347" type="curve" smooth="yes"/>
      <point x="484" y="126"/>
      <point x="413" y="28"/>
    </contour>
  </outline>
</glyph>
<glyph name="Dtopbar" format="2">
  <advance width="476"/>
  <unicode hex="018B"/>
  <anchor x="238" y="0" name="bottom"/>
  <anchor x="238" y="693" name="top"/>
  <outline>
    <contour>
      <point x="276" y="-2" type="curve" smooth="yes"/>
      <point x="315" y="-2"/>
      <point x="359" y="5"/>
      <point x="388" y="12" type="curve"/>
      <point x="388" y="693" type="line"/>
      <point x="105" y="693" type="line"/>
      <point x="105" y="661" type="line"/>
      <point x="354" y="661" type="line"/>
      <point x="354" y="414" type="line"/>
      <point x="271" y="414" type="line" smooth="yes"/>
      <point x="139" y="414"/>
      <point x="44" y="372"/>
      <point x="44" y="205" type="curve" smooth="yes"/>
      <point x="44" y="67"/>
      <point x="128" y="-2"/>
    </contour>
    <contour>
      <point x="278" y="30" type="curve" smooth="yes"/>
      <point x="147" y="30"/>
      <point x="80" y="86"/>
      <point x="80" y="206" type="curve" smooth="yes"/>
      <point x="80" y="326"/>
      <point x="133" y="382"/>
      <point x="261" y="382" type="curve" smooth="yes"/>
      <point x="354" y="382" type="line"/>
      <point x="354" y="39" type="line"/>
      <point x="329" y="33"/>
      <point x="299" y="30"/>
    </contour>
  </outline>
</glyph>
<glyph name="uni018E" format="2">
  <advance width="427.525"/>
  <unicode hex="018E"/>
  <anchor x="213" y="0" name="bottom"/>
  <anchor x="213" y="693" name="top"/>
  <outline>
    <contour>
      <point x="53" y="0" type="line"/>
      <point x="337" y="0" type="line"/>
      <point x="337" y="693" type="line"/>
      <point x="64" y="693" type="line"/>
      <point x="64" y="658" type="line"/>
      <point x="299" y="658" type="line"/>
      <point x="299" y="381" type="line"/>
      <point x="90" y="381" type="line"/>
      <point x="90" y="346" type="line"/>
      <point x="299" y="346" type="line"/>
      <point x="299" y="35" type="line"/>
      <point x="53" y="35" type="line"/>
    </contour>
  </outline>
</glyph>
<glyph name="uni018F" format="2">
  <advance width="518"/>
  <unicode hex="018F"/>
  <anchor x="255" y="0" name="bottom"/>
  <anchor x="255" y="693" name="top"/>
  <outline>
    <contour>
      <point x="247" y="-10" type="curve" smooth="yes"/>
      <point x="380" y="-10"/>
      <point x="456" y="120"/>
      <point x="456" y="347" type="curve" smooth="yes"/>
      <point x="456" y="572"/>
      <point x="369" y="703"/>
      <point x="218" y="703" type="curve" smooth="yes"/>
      <point x="174" y="703"/>
      <point x="130" y="694"/>
      <point x="81" y="672" type="curve"/>
      <point x="88" y="642" type="line"/>
      <point x="126" y="662"/>
      <point x="173" y="672"/>
      <point x="214" y="672" type="curve" smooth="yes"/>
      <point x="355" y="672"/>
      <point x="420" y="551"/>
      <point x="420" y="351" type="curve"/>
      <point x="61" y="351" type="line"/>
      <point x="59" y="328"/>
      <point x="58" y="303"/>
      <point x="58" y="290" type="curve" smooth="yes"/>
      <point x="58" y="89"/>
      <point x="134" y="-10"/>
    </contour>
    <contour>
      <point x="248" y="21" type="curve" smooth="yes"/>
      <point x="143" y="21"/>
      <point x="86" y="121"/>
      <point x="92" y="320" type="curve"/>
      <point x="420" y="320" type="line"/>
      <point x="420" y="141"/>
      <point x="357" y="21"/>
    </contour>
  </outline>
</glyph>
<glyph name="Eopen" format="2">
  <advance width="412"/>
  <unicode hex="0190"/>
  <unicode hex="025B"/>
  <anchor x="206" y="0" name="bottom"/>
  <anchor x="206" y="693" name="top"/>
  <outline>
    <contour>
      <point x="238" y="-9" type="curve" smooth="yes"/>
      <point x="287" y="-9"/>
      <point x="335" y="1"/>
      <point x="378" y="22" type="curve"/>
      <point x="367" y="51" type="line"/>
      <point x="326" y="30"/>
      <point x="287" y="23"/>
      <point x="240" y="23" type="curve" smooth="yes"/>
      <point x="166" y="23"/>
      <point x="89" y="63"/>
      <point x="89" y="177" type="curve"/>
      <point x="89" y="290"/>
      <point x="149" y="355"/>
      <point x="257" y="355" type="curve" smooth="yes"/>
      <point x="317" y="355" type="line"/>
      <point x="317" y="386" type="line"/>
      <point x="257" y="386" type="line" smooth="yes"/>
      <point x="142" y="386"/>
      <point x="112" y="470"/>
      <point x="112" y="543" type="curve" smooth="yes"/>
      <point x="112" y="621"/>
      <point x="166" y="672"/>
      <point x="239" y="672" type="curve" smooth="yes"/>
      <point x="277" y="672"/>
      <point x="321" y="661"/>
      <point x="353" y="641" type="curve"/>
      <point x="366" y="668" type="line"/>
      <point x="332" y="693"/>
      <point x="282" y="703"/>
      <point x="239" y="703" type="curve" smooth="yes"/>
      <point x="146" y="703"/>
      <point x="78" y="641"/>
      <point x="78" y="543" type="curve" smooth="yes"/>
      <point x="78" y="464"/>
      <point x="111" y="397"/>
      <point x="184" y="371" type="curve"/>
      <point x="100" y="345"/>
      <point x="55" y="280"/>
      <point x="55" y="177" type="curve" smooth="yes"/>
      <point x="55" y="57"/>
      <point x="128" y="-9"/>
    </contour>
  </outline>
</glyph>
<glyph name="uni0191" format="2">
  <advance width="390"/>
  <unicode hex="0191"/>
  <outline>
    <contour>
      <point x="31" y="-189" type="curve" smooth="yes"/>
      <point x="92" y="-189"/>
      <point x="122" y="-151"/>
      <point x="122" y="-67" type="curve" smooth="yes"/>
      <point x="122" y="346" type="line"/>
      <point x="327" y="346" type="line"/>
      <point x="327" y="377" type="line"/>
      <point x="122" y="377" type="line"/>
      <point x="122" y="662" type="line"/>
      <point x="352" y="662" type="line"/>
      <point x="352" y="693" type="line"/>
      <point x="88" y="693" type="line"/>
      <point x="88" y="-68" type="line" smooth="yes"/>
      <point x="88" y="-130"/>
      <point x="71" y="-158"/>
      <point x="32" y="-158" type="curve" smooth="yes"/>
      <point x="16" y="-158"/>
      <point x="2" y="-156"/>
      <point x="-9" y="-152" type="curve"/>
      <point x="-17" y="-181" type="line"/>
      <point x="-5" y="-186"/>
      <point x="10" y="-189"/>
    </contour>
  </outline>
</glyph>
<glyph name="florin" format="2">
  <advance width="325"/>
  <unicode hex="0192"/>
  <outline>
    <contour>
      <point x="38" y="-189" type="curve" smooth="yes"/>
      <point x="106" y="-189"/>
      <point x="133" y="-151"/>
      <point x="133" y="-55" type="curve" smooth="yes"/>
      <point x="133" y="487" type="line"/>
      <point x="279" y="487" type="line"/>
      <point x="279" y="517" type="line"/>
      <point x="133" y="517" type="line"/>
      <point x="133" y="618" type="line" smooth="yes"/>
      <point x="133" y="704"/>
      <point x="166" y="746"/>
      <point x="233" y="746" type="curve" smooth="yes"/>
      <point x="253" y="746"/>
      <point x="274" y="741"/>
      <point x="294" y="731" type="curve"/>
      <point x="306" y="758" type="line"/>
      <point x="287" y="768"/>
      <point x="257" y="776"/>
      <point x="233" y="776" type="curve" smooth="yes"/>
      <point x="149" y="776"/>
      <point x="99" y="717"/>
      <point x="99" y="617" type="curve" smooth="yes"/>
      <point x="99" y="-55" type="line" smooth="yes"/>
      <point x="99" y="-133"/>
      <point x="84" y="-159"/>
      <point x="38" y="-159" type="curve" smooth="yes"/>
      <point x="21" y="-159"/>
      <point x="4" y="-156"/>
      <point x="-11" y="-151" type="curve"/>
      <point x="-16" y="-180" type="line"/>
      <point x="0" y="-186"/>
      <point x="22" y="-189"/>
    </contour>
  </outline>
</glyph>
